<svg xmlns="http://www.w3.org/2000/svg" width="81.232" height="16.348" viewBox="0 0 81.232 16.348"><defs><style>.a{isolation:isolate;}</style></defs><g class="a"><path d="M617.978-489.8c-.054.262-.1.526-.163.786a3.825,3.825,0,0,1-3.55,3.145,6.7,6.7,0,0,1-3.86-.561c-.369-.184-.7-.437-1.1-.686l1.249-1.7a4.319,4.319,0,0,0,1.921,1.071,3.967,3.967,0,0,0,1.81-.009,1.89,1.89,0,0,0,1.5-1.479,8.481,8.481,0,0,0,.15-1.674,3.51,3.51,0,0,1-1.839,1.035,4,4,0,0,1-4.915-3.829,4.778,4.778,0,0,1,.606-2.663,3.922,3.922,0,0,1,5.051-1.49,8.223,8.223,0,0,1,1.189.914v-1.11h1.946Zm-1.944-4.2a2.261,2.261,0,0,0-2.4-2.391,2.312,2.312,0,0,0-2.411,2.407,2.353,2.353,0,0,0,2.4,2.366A2.275,2.275,0,0,0,616.034-494Z" transform="translate(-536.746 502.157)"/><path d="M-459.761-540.189v-11.977c.1-.009.185-.023.271-.023,1.489,0,2.98-.039,4.468.017a6.052,6.052,0,0,1,1.9.388,2.637,2.637,0,0,1,1.72,2.654,2.632,2.632,0,0,1-1.83,2.506c-.062.024-.125.045-.221.08a.624.624,0,0,0,.131.069,2.9,2.9,0,0,1,2.385,3.463,2.978,2.978,0,0,1-1.86,2.355,5.955,5.955,0,0,1-2.373.477c-1.467.018-2.934.006-4.4.006C-459.622-540.174-459.677-540.182-459.761-540.189Zm2.158-5.325v3.476c.855,0,1.686.015,2.516-.008a3.348,3.348,0,0,0,.925-.172,1.521,1.521,0,0,0,1.12-1.643,1.35,1.35,0,0,0-1.26-1.464C-455.387-545.463-456.491-545.457-457.6-545.514Zm-.008-1.818c.84,0,1.64.011,2.439-.007a2.083,2.083,0,0,0,.655-.152,1.354,1.354,0,0,0,.967-1.389,1.3,1.3,0,0,0-1.06-1.311,12.267,12.267,0,0,0-3-.159Z" transform="translate(459.761 552.449)"/><path d="M37.783-490H35.772V-498.1h1.881v1.162a2.838,2.838,0,0,1,2.586-1.385,2.506,2.506,0,0,1,2.506,1.478c.047-.061.074-.093.1-.127a3.16,3.16,0,0,1,3.827-1.139,2.567,2.567,0,0,1,1.545,1.918,3.03,3.03,0,0,1,.12.7c.01,1.824.005,3.647.005,5.5H46.327v-.359c0-1.385,0-2.771,0-4.156a4.772,4.772,0,0,0-.059-.739,1.275,1.275,0,0,0-1.033-1.188,1.617,1.617,0,0,0-1.749.6,2.46,2.46,0,0,0-.412,1.5q0,1.977,0,3.953V-490h-2.04v-.373q0-2.146,0-4.291c0-.09,0-.18,0-.27-.019-.832-.37-1.371-.986-1.514a1.72,1.72,0,0,0-2.006.875,3.044,3.044,0,0,0-.246,1.139c-.029,1.362-.011,2.726-.011,4.088Z" transform="translate(-2.193 502.252)"/><path d="M246.363-555.828h2.024v5.1c.057-.013.084-.01.1-.022a3.587,3.587,0,0,1,4.066-.908,3.808,3.808,0,0,1,2.534,3.306,4.758,4.758,0,0,1-.444,2.926,3.939,3.939,0,0,1-5.107,1.737,3.23,3.23,0,0,1-.675-.442,7,7,0,0,1-.575-.612v1.163h-1.917Zm6.725,8.192a2.349,2.349,0,0,0-2.394-2.432,2.348,2.348,0,0,0-2.376,2.449,2.355,2.355,0,0,0,2.393,2.436A2.356,2.356,0,0,0,253.088-547.636Z" transform="translate(-198.514 555.829)"/><path d="M-258.232-493.683a4.225,4.225,0,0,1,4.445-4.266,4.229,4.229,0,0,1,4.424,4.29,4.23,4.23,0,0,1-4.448,4.266A4.221,4.221,0,0,1-258.232-493.683Zm2.041.02a2.371,2.371,0,0,0,2.4,2.437,2.375,2.375,0,0,0,2.386-2.452,2.366,2.366,0,0,0-2.4-2.434A2.364,2.364,0,0,0-256.191-493.663Z" transform="translate(271.888 501.872)"/><path d="M-105.06-493.641a4.215,4.215,0,0,1-4.458,4.247,4.228,4.228,0,0,1-4.405-4.308,4.232,4.232,0,0,1,4.466-4.247A4.211,4.211,0,0,1-105.06-493.641Zm-6.813-.015a2.358,2.358,0,0,0,2.4,2.429,2.361,2.361,0,0,0,2.371-2.46,2.352,2.352,0,0,0-2.4-2.425A2.35,2.35,0,0,0-111.873-493.656Z" transform="translate(137.358 501.873)"/><path d="M397.33-493.195h-6.269a1.993,1.993,0,0,0,1.258,1.737,2.623,2.623,0,0,0,3.126-.9l1.454,1.1a4.293,4.293,0,0,1-2.958,1.613,4.321,4.321,0,0,1-4.676-2.785,4.111,4.111,0,0,1,.961-4.471,4.316,4.316,0,0,1,4.569-1.05,3.413,3.413,0,0,1,2.328,2.828C397.25-494.517,397.262-493.882,397.33-493.195Zm-2.126-1.55a1.816,1.816,0,0,0-1.894-1.9,1.982,1.982,0,0,0-2.213,1.9Z" transform="translate(-331.481 502.11)"/><path d="M-308.017-555.849h2V-543.6h-2Z" transform="translate(318.3 555.849)"/><path d="M536.167-495.9a10.351,10.351,0,0,0-1.118-.1,2,2,0,0,0-2.055,2.085c-.009,1.305,0,2.611,0,3.916v.382h-2.029v-8.1h2.023v1.286c.1-.161.143-.241.192-.318a2.625,2.625,0,0,1,2.692-1.155c.2.039.312.105.3.345C536.154-497.008,536.167-496.457,536.167-495.9Z" transform="translate(-463.829 501.872)"/></g></svg>