<svg xmlns="http://www.w3.org/2000/svg" width="40" height="40" viewBox="0 0 40 40"><defs><style>.a{fill:none;}.b{fill:#2e6edf;}</style></defs><rect class="a" width="40" height="40"/><g transform="translate(3.333 3.333)"><path class="b" d="M18.667,2A16.667,16.667,0,1,0,35.333,18.667,16.673,16.673,0,0,0,18.667,2Zm1.4,26.283v.65a1.38,1.38,0,0,1-1.383,1.383h0A1.38,1.38,0,0,1,17.3,28.933v-.75a6.546,6.546,0,0,1-4.55-3.517A1.437,1.437,0,0,1,13.5,22.7l.117-.05a1.418,1.418,0,0,1,1.8.65,3.938,3.938,0,0,0,3.55,2.3c1.55,0,3.3-.783,3.3-2.667,0-1.6-1.167-2.45-3.8-3.383-2.367-.85-5.583-1.95-5.583-5.517a5.2,5.2,0,0,1,4.433-4.95v-.7A1.332,1.332,0,0,1,18.667,7h0A1.38,1.38,0,0,1,20.05,8.383v.65a5.69,5.69,0,0,1,3.65,2.133,1.447,1.447,0,0,1-.567,2.217h0a1.45,1.45,0,0,1-1.7-.45A3.179,3.179,0,0,0,18.75,11.65c-1.167,0-3.017.617-3.017,2.317,0,1.833,2.133,2.433,4.4,3.183,3,1.05,5.05,2.633,5.017,5.733C25.167,27.717,20.15,28.267,20.067,28.283Z" transform="translate(-2 -2)"/></g></svg>