<svg xmlns="http://www.w3.org/2000/svg" width="40" height="40" viewBox="0 0 40 40"><defs><style>.a{fill:none;}.b{fill:#2e6edf;}</style></defs><rect class="a" width="40" height="40"/><path class="b" d="M25.333,5.333a3.333,3.333,0,1,1,3.333,3.333A3.322,3.322,0,0,1,25.333,5.333ZM32,33.667V25.333h1.85a1.678,1.678,0,0,0,1.583-2.2l-3.5-10.517a3.349,3.349,0,0,0-3.167-2.283h-.2A3.333,3.333,0,0,0,25.4,12.617l-1.433,4.3A5.81,5.81,0,0,1,27,22V35.333h3.333A1.672,1.672,0,0,0,32,33.667ZM19.5,17.833a2.5,2.5,0,1,0-2.5-2.5A2.5,2.5,0,0,0,19.5,17.833ZM7.833,8.667A3.333,3.333,0,1,0,4.5,5.333,3.322,3.322,0,0,0,7.833,8.667Zm3.333,25v-10H12A1.672,1.672,0,0,0,13.667,22V13.667a3.343,3.343,0,0,0-3.333-3.333h-5A3.343,3.343,0,0,0,2,13.667V22a1.672,1.672,0,0,0,1.667,1.667H4.5v10a1.672,1.672,0,0,0,1.667,1.667H9.5A1.672,1.672,0,0,0,11.167,33.667ZM15.333,22v5A1.672,1.672,0,0,0,17,28.667h0v5a1.672,1.672,0,0,0,1.667,1.667h1.667A1.672,1.672,0,0,0,22,33.667v-5h0A1.672,1.672,0,0,0,23.667,27V22a2.518,2.518,0,0,0-2.5-2.5H17.833a2.518,2.518,0,0,0-2.5,2.5" transform="translate(1.333 1.333)"/></svg>