<svg xmlns="http://www.w3.org/2000/svg" xmlns:xlink="http://www.w3.org/1999/xlink" width="97.5" height="40" viewBox="0 0 97.5 40"><defs><style>.a,.c{fill:#aaa;}.a{stroke:#707070;}.b{clip-path:url(#a);}</style><clipPath id="a"><rect class="a" width="97.5" height="40" transform="translate(0 5116)"/></clipPath></defs><g class="b" transform="translate(0 -5116)"><path class="c" d="M56.4,9.992c0-2.861.049-5.525.2-7.992L49.048,3.431v.691l.74.1a1.361,1.361,0,0,1,1.085.543,4.365,4.365,0,0,1,.444,1.579c.1,1.431.2,4.686.148,9.817,0,5.081-.049,8.288-.148,9.521a31.17,31.17,0,0,0,6.413.839,9.234,9.234,0,0,0,6.956-2.565A9.5,9.5,0,0,0,67.251,17a8.675,8.675,0,0,0-1.924-5.772,6.048,6.048,0,0,0-4.834-2.269A9.651,9.651,0,0,0,56.4,9.992Zm.148,15.194c-.1-1.579-.2-6.314-.2-14.059a5.683,5.683,0,0,1,1.776-.247A3.111,3.111,0,0,1,60.937,12.7a9.151,9.151,0,0,1,1.036,4.588,12.661,12.661,0,0,1-1.184,5.772c-.789,1.529-1.776,2.319-3.009,2.319A9.208,9.208,0,0,0,56.546,25.185ZM20.732,2.493H1V3.48l1.036.1a2.622,2.622,0,0,1,1.677.888,4.585,4.585,0,0,1,.592,2.368,93.751,93.751,0,0,1,0,14.9A5.839,5.839,0,0,1,3.713,24.1a2.248,2.248,0,0,1-1.677.888L1,25.136v.987H13.727v-.987l-1.332-.1a2.419,2.419,0,0,1-1.677-.888,4.585,4.585,0,0,1-.592-2.368c-.148-1.973-.247-4.242-.247-6.758l2.664.049c1.431.049,2.417,1.135,2.911,3.305h.987V10.337h-.987c-.493,2.121-1.431,3.206-2.911,3.256l-2.664.049c0-4.44.1-7.6.247-9.521h3.9c2.763,0,4.637,1.776,5.722,5.328L20.93,9.1ZM18.414,17.687a9.477,9.477,0,0,0,2.171,6.364A7.756,7.756,0,0,0,26.8,26.517a8.291,8.291,0,0,0,6.413-2.565,8.882,8.882,0,0,0,2.319-6.364,9.477,9.477,0,0,0-2.171-6.364,7.756,7.756,0,0,0-6.216-2.467,8.291,8.291,0,0,0-6.413,2.565,8.882,8.882,0,0,0-2.319,6.364Zm11-5.624a14.906,14.906,0,0,1,.839,5.574c0,5.229-1.085,7.794-3.206,7.794q-1.628,0-2.516-2.22a15.251,15.251,0,0,1-.839-5.574c0-5.18,1.085-7.745,3.206-7.745C27.984,9.844,28.822,10.584,29.414,12.063ZM71.1,24.051a8.4,8.4,0,0,0,6.166,2.467,8.3,8.3,0,0,0,4.045-.937,7.426,7.426,0,0,0,2.763-2.22l-.493-.592A5.909,5.909,0,0,1,79.83,24a5.405,5.405,0,0,1-4.538-1.973,7.294,7.294,0,0,1-1.48-5.18H84.369a8.934,8.934,0,0,0-1.825-5.821,6.371,6.371,0,0,0-5.18-2.22,8.112,8.112,0,0,0-6.413,2.615,9.236,9.236,0,0,0-2.269,6.364A8.438,8.438,0,0,0,71.1,24.051Zm3.65-12.382c.543-1.184,1.233-1.776,2.171-1.776,1.48,0,2.22,1.875,2.22,5.673l-5.229.1a10.312,10.312,0,0,1,.839-4ZM97.639,9.7a12.375,12.375,0,0,0-5.032-.937,7.4,7.4,0,0,0-4.933,1.579A4.857,4.857,0,0,0,85.8,14.185a4.214,4.214,0,0,0,1.135,3.108,9.347,9.347,0,0,0,3.453,1.924,9.38,9.38,0,0,1,2.861,1.431,2.448,2.448,0,0,1,0,3.6,2.644,2.644,0,0,1-2.072.789c-2.171,0-3.8-1.579-4.933-4.736l-.839.247.2,4.933a16.21,16.21,0,0,0,5.92,1.036A8.107,8.107,0,0,0,96.8,24.988a5.022,5.022,0,0,0,1.924-4.193,4.3,4.3,0,0,0-.937-2.911,8.085,8.085,0,0,0-3.157-1.973,12.331,12.331,0,0,1-3.355-1.628,2.265,2.265,0,0,1-.888-1.825,2.583,2.583,0,0,1,.641-1.825,2.1,2.1,0,0,1,1.677-.691c1.973,0,3.4,1.431,4.292,4.242l.839-.247ZM50.183,9.252a4.94,4.94,0,0,0-2.269-.493A4.431,4.431,0,0,0,45.3,9.794,6.666,6.666,0,0,0,43.128,12.7l.049-3.946-7.5,1.48v.691l.74.049c.937.1,1.48.839,1.579,2.171a53.782,53.782,0,0,1,0,9.767c-.1,1.332-.641,2.023-1.579,2.171l-.74.1v.937H46.138v-.937l-1.332-.1c-.937-.1-1.48-.839-1.579-2.171a50.394,50.394,0,0,1-.1-9.077,2.377,2.377,0,0,1,1.924-.888,5.585,5.585,0,0,1,3.305.888l1.825-4.588Z" transform="translate(-1 5120.711)"/></g></svg>