<svg xmlns="http://www.w3.org/2000/svg" width="147.912" height="13.681" viewBox="0 0 147.912 13.681"><defs><style>.a{isolation:isolate;}</style></defs><g class="a"><path d="M207.917,235.179H206.29l-3.645,3.067v-3.067h-1.309v6.7h1.309v-2.17l1.368-1.085,2.843,3.256h1.7l-3.6-4.129Z" transform="translate(-180.358 -231.776)"/><path d="M260.322,235.179h-1.309v6.7h5.674v-1.168h-4.365Z" transform="translate(-228.171 -231.776)"/><path d="M308.076,238.966h2.737V237.81h-2.737v-1.463h4.518v-1.168h-5.827v6.7h6.1v-1.168h-4.789Z" transform="translate(-267.76 -231.777)"/><rect width="1.309" height="6.7" transform="translate(48.385 3.402)"/><path d="M397.616,239.744H397.6l-4.011-4.565h-1.156v6.7h1.309v-4.565h.012l4.011,4.565h1.156v-6.7h-1.309Z" transform="translate(-338.78 -231.776)"/><path d="M454.862,238.966H457.6V237.81h-2.737v-1.463h4.518v-1.168h-5.827v6.7h6.1v-1.168h-4.789Z" transform="translate(-389.444 -231.777)"/><path d="M515.032,237.279a1.94,1.94,0,0,0-.566-1.356,2.792,2.792,0,0,0-2.135-.743h-3.94v6.7H509.7V239.39h2.43l1.51,2.489h1.51l-1.675-2.678A2.075,2.075,0,0,0,515.032,237.279Zm-2.513.956H509.7v-1.887h2.63a1.4,1.4,0,0,1,1.156.378.847.847,0,0,1,.236.566A1.11,1.11,0,0,1,512.52,238.234Z" transform="translate(-434.905 -231.777)"/><path d="M591.072,235.179H587.1v6.7h1.309V239.39h2.63a2.772,2.772,0,0,0,2.124-.719,1.883,1.883,0,0,0,.578-1.38,1.932,1.932,0,0,0-.566-1.392A2.794,2.794,0,0,0,591.072,235.179Zm1.1,2.713a1.5,1.5,0,0,1-1.133.342h-2.63v-1.887h2.666a1.458,1.458,0,0,1,1.132.366.841.841,0,0,1,.224.578A.851.851,0,0,1,592.169,237.892Z" transform="translate(-500.151 -231.777)"/><path d="M643.6,239.009h2.737v-1.156H643.6V236.39h4.518v-1.168h-5.827v6.7h6.1v-1.168H643.6Z" transform="translate(-545.907 -231.813)"/><path d="M703.769,237.322a1.94,1.94,0,0,0-.566-1.356,2.792,2.792,0,0,0-2.135-.743h-3.94v6.7h1.309v-2.489h2.43l1.51,2.489h1.51l-1.675-2.678A2.075,2.075,0,0,0,703.769,237.322Zm-2.512.956h-2.819V236.39h2.63a1.4,1.4,0,0,1,1.156.378.846.846,0,0,1,.236.566A1.11,1.11,0,0,1,701.257,238.277Z" transform="translate(-591.366 -231.812)"/><path d="M762.4,235.222h-1.628l-3.645,3.067v-3.067h-1.309v6.7h1.309v-2.171l1.368-1.085,2.843,3.256h1.7l-3.6-4.129Z" transform="translate(-640.024 -231.813)"/><rect width="1.309" height="6.7" transform="translate(125.658 3.41)"/><path d="M849.488,239.787h-.012l-4.011-4.565h-1.156v6.7h1.309v-4.565h.012l4.011,4.565H850.8v-6.7h-1.309Z" transform="translate(-713.378 -231.813)"/><path d="M905.815,236.592c-1.062-.071-2.088-.094-2.088-.743s.7-.861,1.534-.861a4.294,4.294,0,0,1,2.642.755l.8-.908a6.173,6.173,0,0,0-3.4-.991c-1.321,0-2.9.483-2.9,2.123,0,1.663,1.817,1.781,3.409,1.9,1.262.094,1.994.283,1.994,1.038,0,.672-.79.967-1.8.967a4.855,4.855,0,0,1-3.2-1.2l-.79.908a5.9,5.9,0,0,0,3.963,1.439c1.71,0,3.15-.637,3.15-2.288C909.13,236.8,907.1,236.675,905.815,236.592Z" transform="translate(-761.218 -230.67)"/><path d="M79.8,215.283a1.14,1.14,0,0,0-1.14,1.14v5.7l6.84-6.84Z" transform="translate(-78.664 -215.283)"/><path d="M78.664,260.983a1.14,1.14,0,0,0,1.14,1.14h5.7l-6.84-6.84Z" transform="translate(-78.664 -248.443)"/><path d="M118.664,256.423v5.7l6.84-6.84h-5.7A1.14,1.14,0,0,0,118.664,256.423Z" transform="translate(-111.824 -248.443)"/><path d="M124.364,215.283h-5.7l6.84,6.84v-5.7A1.14,1.14,0,0,0,124.364,215.283Z" transform="translate(-111.824 -215.283)"/></g></svg>