<svg xmlns="http://www.w3.org/2000/svg" xmlns:xlink="http://www.w3.org/1999/xlink" width="256.091" height="199.748" viewBox="0 0 256.091 199.748"><defs><style>.a,.bq,.bx,.cc,.cg,.t{fill:none;}.b,.bp{opacity:0.1;}.c{fill:#dadada;}.d{fill:silver;}.ch,.e{fill:#1e1e1e;}.bu,.f{fill:#ba3dfe;}.g{fill:#00d5ff;}.h{fill:#ff8c19;}.i{fill:#a4a4a4;}.j{fill:url(#a);}.k{fill:#98113d;}.l{fill:#8c8c8c;}.m{fill:#d0d0d0;}.n{fill:#e57917;}.o{fill:#646464;}.p{fill:#004ab5;}.q{fill:#ff2b50;}.r{fill:#ffc402;}.s{fill:url(#b);}.t{stroke:#004000;stroke-linejoin:round;}.u{fill:url(#c);}.v{fill:url(#d);}.w{fill:url(#e);}.x{fill:url(#f);}.y{fill:url(#g);}.z{fill:url(#h);}.aa{fill:url(#i);}.ab{fill:url(#j);}.ac{fill:url(#k);}.ad{fill:url(#l);}.ae{fill:#050;}.af{fill:#a73de5;}.ag{fill:#fe9643;}.ah{fill:#ffc600;}.ai{fill:url(#m);}.aj{fill:url(#n);}.ak{fill:#00ab00;}.al{fill:url(#o);}.am{fill:url(#p);}.an{fill:url(#q);}.ao{fill:url(#r);}.ap{fill:url(#s);}.aq{fill:url(#t);}.ar{fill:#00eb00;}.as{fill:url(#u);}.at{fill:#9a35db;}.au{fill:url(#v);}.av{fill:url(#w);}.aw{fill:url(#x);}.ax,.bd,.bu,.ch{opacity:0.3;}.ax,.bn,.bp,.bu,.ca,.cb,.ch{isolation:isolate;}.ay{fill:url(#y);}.az{fill:url(#z);}.ba{fill:#009300;}.bb{fill:#007900;}.bc{fill:url(#aa);}.be{fill:url(#ab);}.bf{fill:url(#ac);}.bg{fill:url(#ad);}.bh{fill:url(#ae);}.bi{fill:url(#af);}.bj{fill:url(#ag);}.bk{fill:url(#ah);}.bl{fill:url(#ai);}.bm{fill:#e9e9e9;}.bn{opacity:0.15;}.bo{fill:#843c32;}.bq,.cg{stroke:#1e1e1e;}.bq,.bx,.cc,.cg{stroke-linecap:round;stroke-miterlimit:10;}.br{fill:#ff8538;}.bs{fill:url(#aj);}.bt{fill:url(#ak);}.bv{fill:#f5f5f5;}.bw{clip-path:url(#al);}.bx{stroke:#c836d7;}.by{fill:url(#an);}.bz{fill:url(#ao);}.ca,.cb{opacity:0.5;}.ca{fill:url(#ap);}.cb{fill:url(#aq);}.cc{stroke:#ff8538;}.cd{fill:#e3e3e3;}.ce{fill:#6343dc;}.cf{fill:#de1250;}.cg{stroke-width:0.462px;}.ci{fill:url(#ar);}</style><linearGradient id="a" x1="0.5" y1="2.229" x2="0.5" y2="1.093" gradientUnits="objectBoundingBox"><stop offset="0" stop-color="#f5f5f5"/><stop offset="1" stop-color="#d1d1d1"/></linearGradient><linearGradient id="b" y1="-2.678" y2="-9.718" xlink:href="#a"/><linearGradient id="c" y1="4.205" y2="0.255" xlink:href="#a"/><linearGradient id="d" y1="-9.583" y2="-14.372" xlink:href="#a"/><linearGradient id="e" y1="2.331" y2="1.1" xlink:href="#a"/><linearGradient id="f" y1="1.504" x2="1" y2="1.504" gradientUnits="objectBoundingBox"><stop offset="0" stop-color="#ff1d4b"/><stop offset="1" stop-color="#b93dfe"/></linearGradient><linearGradient id="g" x1="0" y1="-0.899" x2="1" y2="-0.899" xlink:href="#a"/><linearGradient id="h" y1="-6.731" y2="-6.731" xlink:href="#f"/><linearGradient id="i" y1="-5.014" y2="-6.079" xlink:href="#a"/><linearGradient id="j" x1="0" y1="-6.898" x2="1" y2="-6.898" xlink:href="#a"/><linearGradient id="k" x1="0.5" y1="-5.373" x2="0.5" y2="-3.717" xlink:href="#f"/><linearGradient id="l" x1="0.5" y1="4.594" x2="0.5" y2="5.308" xlink:href="#f"/><linearGradient id="m" x1="0" y1="12.488" x2="1" y2="12.488" xlink:href="#a"/><linearGradient id="n" x1="0" y1="9.062" x2="1" y2="9.062" xlink:href="#a"/><linearGradient id="o" x1="0" y1="10.164" x2="1" y2="10.164" xlink:href="#a"/><linearGradient id="p" y1="14.839" y2="10.243" xlink:href="#a"/><linearGradient id="q" x1="0.202" y1="8.585" x2="1.119" y2="8.585" xlink:href="#f"/><linearGradient id="r" x1="0" y1="1.073" x2="1" y2="1.073" xlink:href="#a"/><linearGradient id="s" x1="0.5" y1="2.396" x2="0.5" y2="3.614" xlink:href="#f"/><linearGradient id="t" y1="-3.979" y2="-2.91" xlink:href="#a"/><linearGradient id="u" y1="0.219" y2="1.172" xlink:href="#a"/><linearGradient id="v" x1="0" y1="1.693" x2="1" y2="1.693" xlink:href="#a"/><linearGradient id="w" y1="8.23" y2="10.072" xlink:href="#a"/><linearGradient id="x" y1="8.392" y2="9.183" xlink:href="#a"/><linearGradient id="y" y1="4.968" y2="4.302" xlink:href="#a"/><linearGradient id="z" y1="4.098" y2="3.432" xlink:href="#a"/><linearGradient id="aa" x1="0" y1="6.204" x2="1" y2="6.204" xlink:href="#a"/><linearGradient id="ab" y1="11.52" y2="9.554" xlink:href="#a"/><linearGradient id="ac" y1="3.878" y2="5.641" xlink:href="#a"/><linearGradient id="ad" y1="-0.451" x2="1" y2="-0.451" gradientUnits="objectBoundingBox"><stop offset="0" stop-color="#f5f5f5"/><stop offset="1" stop-color="#e4e4e4"/></linearGradient><linearGradient id="ae" x1="0.191" y1="-0.05" x2="1.048" y2="-1.134" xlink:href="#ad"/><linearGradient id="af" x1="0.845" y1="0.502" x2="0.147" y2="-0.497" xlink:href="#ad"/><linearGradient id="ag" y1="-44.312" y2="-44.312" xlink:href="#ad"/><linearGradient id="ah" y1="-53.19" y2="-53.19" xlink:href="#ad"/><linearGradient id="ai" x1="0.943" y1="0.834" x2="-0.124" y2="-0.353" xlink:href="#ad"/><linearGradient id="aj" x1="1.927" y1="5.34" x2="0.292" y2="3.468" gradientUnits="objectBoundingBox"><stop offset="0" stop-color="#1c48c0"/><stop offset="1" stop-color="#ba3dfe"/></linearGradient><linearGradient id="ak" x1="0.924" y1="0" x2="0.257" y2="0.921" xlink:href="#aj"/><clipPath id="al"><path class="a" d="M123.033,426.486l2.033-6.59-13.176-.956,3.071,9.1Z" transform="translate(-111.89 -418.94)"/></clipPath><linearGradient id="an" x1="0.5" y1="1.088" x2="0.732" y2="0.299" xlink:href="#aj"/><linearGradient id="ao" x1="0.091" y1="0.814" x2="0.865" y2="0.195" xlink:href="#aj"/><linearGradient id="ap" x1="-10.029" y1="136.586" x2="-10.029" y2="137.32" gradientUnits="objectBoundingBox"><stop offset="0" stop-color="#ff8538"/><stop offset="1" stop-color="#f5f5f5"/></linearGradient><linearGradient id="aq" x1="-10.015" y1="136.783" x2="-10.015" y2="137.518" xlink:href="#ap"/><linearGradient id="ar" x1="0.692" y1="0" x2="0.731" y2="1.042" xlink:href="#f"/></defs><g class="b" transform="translate(1.38 144.114)"><path d="M575.831,561.283l-2.623,1a.85.85,0,0,0,.163,1.634l6.622,1.1,2.97-1.295s-7.828,3.553-.676,4.3c9.677,1.01,15.26-3.007,15.26-3.007s11.578.624,14.452-1.95c2.276-2.038-.466-2.559-7.026-3.221,0,0-7.683-4.547-14.173-3.017S575.831,561.283,575.831,561.283Z" transform="translate(-425.744 -556.514)"/><path d="M302.7,585.841c-4.83-.355-17.767.707-17.767.707-4.687.536-5.8-1.417-5.8-1.417s.855.479-3.172,0-3.066-2.727-3.066-2.727l1.792-1.258,3.333-7.582-31.865-4.2,30.329-6.544h15.431l16.674,1,4.56,2.724h22.6l15.683,3.915-5.5,5.223-23.477-.668L306.777,580.2s28.7.831,25.181,3.317C328.411,586.023,318.223,586.981,302.7,585.841Z" transform="translate(-183.788 -561.187)"/><path d="M5.33,609.224l27,2.294-1.349,1.8,72.156-.451,2.18-8.439L43.8,603.47l-3.783.155,1.639.207,13.355,1.877,11.446,1.256,30.687,3.55L9.528,608.641Z" transform="translate(-5.33 -591.31)"/><path d="M673.131,737.152c-3.84-.407-14.445-2.25-4.454-2.447s46.672,2.569,46.672,2.569l-3.374-1.191s2.631-1.714,9.141-1.5a87.364,87.364,0,0,1,22.2,4.379c6.332,2.24,12.4,6.42-17.371,4.739S677.717,737.639,673.131,737.152Z" transform="translate(-493.807 -688.458)"/></g><path class="c" d="M250.923,72.009,249.24,60.737l4.586-1.417,1.919,11.775Z" transform="translate(-184.697 -43.959)"/><path class="d" d="M266.95,59.32l9.768,2.043,1.577,10.017-9.426-.285Z" transform="translate(-197.821 -43.959)"/><path class="e" d="M255.74,105.7l10.089.238,4.159-.868-9.426-.285Z" transform="translate(-189.514 -77.654)"/><g transform="translate(57.315)"><path class="f" d="M509.524,115.444v-1.574l-9.444-12.7.666,12.13Z" transform="translate(-427.895 -74.971)"/><g transform="translate(34.566 79.169)"><path class="c" d="M364.65,373.2l-9.84.262v13.186h9.84Z" transform="translate(-354.81 -355.725)"/><path class="g" d="M364.65,305.72h-9.84v17.736l9.84-.262Z" transform="translate(-354.81 -305.72)"/><path class="h" d="M354.81,425.13v36.125l9.84,1.069V425.13Z" transform="translate(-354.81 -394.208)"/><rect class="i" width="7.782" height="13.448" transform="translate(9.84 17.475)"/><rect class="j" width="7.782" height="17.477" transform="translate(9.84)"/></g><g transform="translate(30.366 110.091)"><path class="k" d="M400.592,425.13H392.81v15l7.782-.715Z" transform="translate(-378.769 -425.13)"/><g transform="translate(0 14.287)"><path class="l" d="M376.14,503.565v3.48l4.317-.565V503.12Z" transform="translate(-366.416 -497.211)"/><path class="i" d="M380.457,488.255V483.06l-4.317.4V488.7Z" transform="translate(-366.416 -482.345)"/><path class="c" d="M348.314,483.051l-9.724-.541v5.3l9.724.484Z" transform="translate(-338.59 -481.938)"/><path class="m" d="M338.59,502.97v3.656l9.724.308v-3.48Z" transform="translate(-338.59 -497.099)"/><path class="n" d="M392.81,526.832l7.782-1.538V512.18L392.81,513.2Z" transform="translate(-378.769 -503.924)"/><path class="k" d="M400.592,485.4v-5.1l-7.782.715v5.195Z" transform="translate(-378.769 -480.3)"/><path class="o" d="M392.81,500.815v3.361l7.782-1.015V500.01Z" transform="translate(-378.769 -494.906)"/></g></g><path class="g" d="M338.59,445.4,342.6,432.43h1.388l4.322,11.889v1.621Z" transform="translate(-308.224 -320.448)"/><path class="e" d="M376.14,477.317l5.174-.357v1.5l-5.174.476Z" transform="translate(-336.051 -353.447)"/><path class="p" d="M359.45,432.43h4.71l4.786,11.531-5.174.357Z" transform="translate(-323.683 -320.448)"/><g transform="translate(42.985 95.007)"><path class="q" d="M392.416,438.957l-5.1-.137v6.329l5.1.135Z" transform="translate(-387.32 -420.19)"/><path class="r" d="M387.32,438.672l1.072-.052v.08Z" transform="translate(-387.32 -420.042)"/><path class="h" d="M387.32,463.26v7.308l5.1.275v-7.448Z" transform="translate(-387.32 -438.302)"/><path class="n" d="M407,468.678l10.032-1.517V460.34L407,461.231Z" transform="translate(-401.904 -436.138)"/><path class="k" d="M407,436.986v6.326l10.032-.891V436.16Z" transform="translate(-401.904 -418.219)"/><g transform="translate(1.072)"><path class="p" d="M409.67,380.188l9.341-.723V366.88h-5.376l-3.965,11.736Z" transform="translate(-404.954 -366.88)"/><g transform="translate(0 12.585)"><path class="o" d="M407.691,416.2v5.384l-.691.075,10.032-.826V415.48Z" transform="translate(-402.976 -415.48)"/><path class="d" d="M396.176,418.27H391.46v5.35l4.024.109.691-.057Z" transform="translate(-391.46 -417.547)"/></g><path class="g" d="M400.14,366.88H395.7l-4.239,11.736h4.716Z" transform="translate(-391.46 -366.88)"/><rect class="s" width="4.716" height="1.572" transform="translate(0 11.736)"/><path class="t" d="M409.67,418.27Z" transform="translate(-404.954 -404.962)"/></g></g><path class="o" d="M423.1,486.68v3.4l-7.911,1.305v-3.506Z" transform="translate(-364.988 -360.65)"/><path class="d" d="M395.06,491.455v3.009l5.213.342V491.3l-2.121.321Z" transform="translate(-350.071 -364.074)"/><g transform="translate(0 81.699)"><path class="c" d="M283.52,350.22h4.946v-8.03l-4.946.163Z" transform="translate(-267.415 -335.276)"/><path class="f" d="M253.952,322.567V315.49l-10.332.888v14.056h10.332Z" transform="translate(-237.848 -315.49)"/><path class="i" d="M302.62,342.19v8.03H312.7V342.5Z" transform="translate(-281.569 -335.276)"/><path class="u" d="M253.952,373.2H243.62v3.55H258.9V373.2Z" transform="translate(-237.848 -358.255)"/><rect class="p" width="10.079" height="3.55" transform="translate(21.051 14.945)"/><g transform="translate(0.632 21.152)"><path class="k" d="M268.2,410.167v-13H263.57v13.184Z" transform="translate(-253.263 -397.17)"/><path class="c" d="M234.077,447.354,223.77,447.1v6.912l10.307.764Z" transform="translate(-223.77 -434.17)"/><path class="i" d="M263.57,454.968l4.625-.453V447.36l-4.625.186Z" transform="translate(-253.263 -434.363)"/><path class="r" d="M234.077,474.554l-10.307-.764v8.041l10.307.813Z" transform="translate(-223.77 -453.949)"/><path class="h" d="M263.57,475.443v8.09l4.625-.671V474.99Z" transform="translate(-253.263 -454.838)"/><path class="p" d="M263.57,509.981l4.625-.795v-3.8l-4.625.671Z" transform="translate(-253.263 -477.365)"/><path class="v" d="M223.77,504.84v3.649l10.307,1.085v-3.921Z" transform="translate(-223.77 -476.958)"/></g><g transform="translate(0 18.495)"><rect class="h" width="10.25" height="2.657"/><rect class="n" width="5.316" height="2.657" transform="translate(10.247)"/></g><path class="w" d="M231.577,350.436l-4.83-12.746h-1.139l-4.278,12.746Z" transform="translate(-221.33 -331.941)"/><path class="x" d="M247.771,338.084l-5.521-.394,4.83,12.746H252.4Z" transform="translate(-236.833 -331.941)"/><g transform="translate(0.632 21.152)"><path class="e" d="M235.723,440.254a2.44,2.44,0,0,0-1.344-.414,2.937,2.937,0,0,0-2.579,1.932l2.66.065A3.459,3.459,0,0,1,235.723,440.254Z" transform="translate(-229.721 -428.79)"/><path class="y" d="M223.77,397.17V410.1l2.077.052a2.937,2.937,0,0,1,2.579-1.932,2.44,2.44,0,0,1,1.344.414,3.512,3.512,0,0,1,1.29,1.647l1.577.039,1.437.036V397.17Z" transform="translate(-223.77 -397.17)"/><path class="p" d="M242.06,443.015l2.553.062a3.512,3.512,0,0,0-1.29-1.647A3.513,3.513,0,0,0,242.06,443.015Z" transform="translate(-237.324 -429.968)"/></g><path class="i" d="M281.43,386.91v15.654l10.527-.65v-15Z" transform="translate(-265.867 -368.415)"/><path class="z" d="M291.957,444l4.558-.3v3.421l-15.084,1.292v-3.765Z" transform="translate(-265.867 -410.499)"/><path class="g" d="M326.638,443.7H322.08v.3Z" transform="translate(-295.99 -410.499)"/><g transform="translate(5.785 51.75)"><path class="c" d="M256.854,521.335l-5.037-.324-2.994.515-5.153-.544v2.5l15.747,1.419V520.97Z" transform="translate(-243.67 -519.509)"/><path class="i" d="M304.48,516.791v3.931l10.275-1.893v-3.5Z" transform="translate(-288.733 -515.33)"/></g><g transform="translate(6.427 55.78)"><path class="m" d="M246.15,530.89V545.7l9.677,1.279V531.763Z" transform="translate(-246.15 -530.89)"/><path class="i" d="M288.948,533.534l-5.428-.489v15.216l10.4-2.131V532.62Z" transform="translate(-273.843 -532.172)"/></g><g transform="translate(13.932 36.622)"><path class="aa" d="M280.167,462.787l-5.037-.347v7.173l5.037.347Z" transform="translate(-275.13 -461.008)"/><path class="ab" d="M275.13,490.14v8.025l5.037.324v-8Z" transform="translate(-275.13 -481.535)"/><path class="g" d="M295.233,457.3l-3.387-.388-16.716,1.432,5.037.347Z" transform="translate(-275.13 -456.91)"/><path class="k" d="M294.58,493.42l15.066-2.175V483.3l-15.066,2.118Z" transform="translate(-289.543 -476.466)"/><path class="ac" d="M294.58,459.8v7.173l15.066-2.118V458.41Z" transform="translate(-289.543 -458.022)"/></g></g><path class="ad" d="M408.479,195.682v-17.7H402.23v19.764Z" transform="translate(-355.384 -131.891)"/><path class="ae" d="M505.866,279.22h-4.529l-8.206-1.292.72-.078Z" transform="translate(-422.745 -205.898)"/><g transform="translate(38.362 4.467)"><path class="h" d="M410.44,125.6l8.245-1.2V106.132l-8.245-1.722Z" transform="translate(-399.83 -81.839)"/><path class="af" d="M410.44,81.971l8.245,1.722v-7.7L410.44,74.13Z" transform="translate(-399.83 -59.4)"/><path class="q" d="M410.44,17.25V19.7l8.245,3.216V20.738Z" transform="translate(-399.83 -17.25)"/><g transform="translate(10.61 2.447)"><path class="e" d="M423.42,41.55a1.759,1.759,0,0,0-1.29.624,4.015,4.015,0,0,1,0,4.946,1.755,1.755,0,0,0,1.29.624c1.183,0,2.142-1.385,2.142-3.1S424.6,41.55,423.42,41.55Z" transform="translate(-419.103 -37.704)"/><path class="h" d="M410.44,26.7V38.982l8.245,1.859V29.916Zm4.317,10.037a1.759,1.759,0,0,1-1.29-.624,4.015,4.015,0,0,1,0-4.946,1.755,1.755,0,0,1,1.29-.624c1.183,0,2.142,1.385,2.142,3.1S415.938,36.737,414.757,36.737Z" transform="translate(-410.44 -26.7)"/></g><path class="ag" d="M380.08,17.25l-10.61,2.672V22.37L380.08,19.7Z" transform="translate(-369.47 -17.25)"/><path class="f" d="M380.08,74.13l-10.61,2.085v7.87l10.61-2.113Z" transform="translate(-369.47 -59.4)"/><path class="ah" d="M369.47,106.523v20.82l10.61-1.743V104.41Z" transform="translate(-369.47 -81.839)"/><path class="e" d="M383.832,44.655a3.51,3.51,0,0,1,1.069-2.68,1.66,1.66,0,0,0-1.069-.414c-1.183,0-2.142,1.385-2.142,3.1s.958,3.1,2.142,3.1a1.663,1.663,0,0,0,1.069-.414A3.538,3.538,0,0,1,383.832,44.655Z" transform="translate(-378.526 -35.265)"/><path class="ai" d="M369.47,29.372V41.067l10.61-2.085V26.7Zm5.306,7.365c-1.183,0-2.142-1.385-2.142-3.1s.958-3.1,2.142-3.1a1.663,1.663,0,0,1,1.069.414,3.893,3.893,0,0,1,0,5.36A1.638,1.638,0,0,1,374.776,36.737Z" transform="translate(-369.47 -24.253)"/></g><path class="ah" d="M380.643,4.467,370.23,0V7.088Z" transform="translate(-331.671)"/><path class="h" d="M370.23,0l7.251,2.657,11.407,5.3-8.245-3.488Z" transform="translate(-331.671)"/><path class="aj" d="M350.73,158.41V147.169l10.9-1.849v11.348Z" transform="translate(-317.221 -107.688)"/><path class="f" d="M389.275,145.32l4.754,1.243V171.4l-5.99-1.088,1.235-2.7Z" transform="translate(-344.869 -107.688)"/><path class="ah" d="M361.627,108.172,355.79,95.19l-.821.174-4.239,14.657Z" transform="translate(-317.221 -70.54)"/><path class="h" d="M370.27,95.19l4.788,1.269,5.8,12.956-4.754-1.243Z" transform="translate(-331.701 -70.54)"/><path class="ak" d="M412.84,150.79" transform="translate(-363.247 -111.742)"/><g transform="translate(39.986 62.412)"><path class="o" d="M402.891,248.152V242.39l-8.2-1.38v6.311Z" transform="translate(-389.783 -241.01)"/><path class="al" d="M380.647,241.01l-4.907.7V248.1l4.907-.779Z" transform="translate(-375.74 -241.01)"/><path class="h" d="M394.69,272.426l.005,0,8.2.725v-6.937l-8.2-.831Z" transform="translate(-389.783 -259.069)"/><path class="q" d="M375.74,293.1v3.662l4.907-.629V292.59Z" transform="translate(-375.74 -279.233)"/><path class="r" d="M380.647,265.38l-4.907.779v6.777l4.907-.51Z" transform="translate(-375.74 -259.069)"/><path class="k" d="M394.7,292.58l-.005,0v3.543l8.2.629v-3.449Z" transform="translate(-389.783 -279.225)"/></g><path class="e" d="M338.079,217.915l8.538.684s1.6-14.458,14.017-17.006l-2-4.622-17.744,3.7L336.44,216.6Z" transform="translate(-306.631 -145.963)"/><path class="q" d="M359.968,191.536V183.4l-24.195,3.75-.233,20.709h1.872s1.261-10.765,9.436-15.8S359.968,191.536,359.968,191.536Z" transform="translate(-305.964 -135.907)"/><path class="e" d="M375.74,306.9l8.16.443,4.949-.443-8.2-.629Z" transform="translate(-335.754 -226.959)"/><g transform="translate(30.34 71.952)"><path class="ah" d="M338.49,295.079l9.646.772v-3.662l-9.646-.829Z" transform="translate(-338.49 -287.861)"/><path class="am" d="M339.6,277.85H338.49v3.5l9.646.829v-3.641Z" transform="translate(-338.49 -277.85)"/></g><path class="an" d="M329.65,307.93v-2.9l-27.03-1.88v2.768Z" transform="translate(-281.569 -224.647)"/><path class="e" d="M329.65,315.852l-13.515.218L302.62,315.1V313.84Z" transform="translate(-281.569 -232.568)"/><g transform="translate(59.133 72.029)"><path class="ao" d="M449.68,279.118v33.745l5.257,1.116h5.995V278.15Z" transform="translate(-449.68 -278.15)"/><g transform="translate(11.252)"><path class="ap" d="M502.352,279.165l-9.221-1.015v16.584h9.221Z" transform="translate(-493.13 -278.15)"/><rect class="e" width="9.222" height="19.246" transform="translate(0 16.584)"/></g></g><g transform="translate(65.664 122.086)"><path class="aq" d="M487.377,474.724,474.9,474.17v15.841l12.477,1.064Z" transform="translate(-474.9 -473.466)"/><path class="m" d="M474.9,535.34v15.506l12.477,1.486V536.4Z" transform="translate(-474.9 -518.795)"/><path class="o" d="M523.08,472.709v16.351l8.129-1.826V471.45Z" transform="translate(-510.603 -471.45)"/><path class="i" d="M523.08,550.154l8.129-2.4V532.4l-8.129,1.826Z" transform="translate(-510.603 -516.616)"/></g><g transform="translate(71.908 114.209)"><path class="ar" d="M499.01,475.314l6.171.233v0l-6.171-.264Z" transform="translate(-499.01 -466.411)"/><path class="g" d="M499.01,441.03V449.9l6.171.264v-9.043Z" transform="translate(-499.01 -441.03)"/></g><g transform="translate(71.799 106.743)"><path class="r" d="M498.59,412.99v7.259l6.28.093v-7.266Z" transform="translate(-498.59 -412.785)"/><path class="h" d="M522.84,412.49v7.266l8.191-.663.375-.031-.023-6.862Z" transform="translate(-516.56 -412.2)"/></g><g transform="translate(59.752 106.743)"><path class="h" d="M464.117,412.4l-12.047-.2v15.817l12.156.552v-8.9l6.171.091-6.28-.093Z" transform="translate(-452.07 -412.2)"/><path class="p" d="M522.84,439.483v9.043l.062,0,8.129-1.259v-8.45Z" transform="translate(-504.514 -431.927)"/></g><g transform="translate(54.891 89.62)"><path class="i" d="M479.26,346.08v17.866l4.71-.539V346.08Z" transform="translate(-467.358 -346.08)"/><path class="as" d="M433.3,346.409v17.482l11.9.054V346.08Z" transform="translate(-433.3 -346.08)"/></g><g transform="translate(72.301 100.603)"><path class="o" d="M522.84,388.718v6.2l8.432-.29v-6.14Z" transform="translate(-517.063 -388.49)"/><path class="d" d="M500.53,389.37v6.124l5.777.078v-6.2Z" transform="translate(-500.53 -389.142)"/></g><g transform="translate(71.908 98.7)"><path class="f" d="M499.01,381.765v1.906h6.171l.616-.018V381.68Z" transform="translate(-499.01 -381.54)"/><path class="at" d="M533.3,381.14l-8.08.14v1.973l8.08-.21Z" transform="translate(-518.433 -381.14)"/></g><g transform="translate(71.908 85.511)"><path class="f" d="M529.128,330.21l-1.088.013-2.82,13.316,8.08-.14Z" transform="translate(-518.433 -330.21)"/><path class="au" d="M502.4,330.327l-3.392,13.334,6.787-.085,2.82-13.316Z" transform="translate(-499.01 -330.247)"/></g><path class="av" d="M443.944,339.354l-11.814.326v-2.31l11.814-.381Z" transform="translate(-377.541 -249.723)"/><path class="o" d="M482.67,339.344V336.99h-4.92v2.364l.391-.01Z" transform="translate(-411.348 -249.723)"/><path class="ah" d="M432.13,298.711l4.92-13.787.987-.1,6.3,13.51h-.391Z" transform="translate(-377.541 -211.063)"/><path class="h" d="M454.94,284.82l4.83.466,6,13.044h-4.529Z" transform="translate(-394.445 -211.063)"/><path class="n" d="M511.429,155.771v-5.617l-8.779-2.144v6.676Z" transform="translate(-429.8 -109.681)"/><path class="h" d="M433.163,148.01l-24.283,4.151v5.8l24.283-3.278Z" transform="translate(-360.312 -109.681)"/><path class="r" d="M459.716,267.294l-11.676,1v-3.431l12.4-1.367v3.716Z" transform="translate(-389.331 -195.264)"/><path class="h" d="M507.926,265.383,495.91,263.5v3.716l12.016,1.37Z" transform="translate(-424.805 -195.264)"/><path class="aw" d="M432.5,101.17l-18.534,3.418-5.083,12.862,24.283-4.151Z" transform="translate(-360.312 -74.971)"/><path class="ax" d="M480.28,121.911l1.318-4.361,4.086.782.388,7.106v5.85l-3.607.673Z" transform="translate(-413.223 -87.109)"/><g transform="translate(11.35 41.793)"><path class="e" d="M441.777,260.58l-11.907,1.479,4.705.645,12.4-1.367Z" transform="translate(-387.217 -234.894)"/><path class="d" d="M429.87,245.849v4.19l11.907-1.479v-4.2Z" transform="translate(-387.217 -222.874)"/><path class="ay" d="M441.777,161.39l-11.907,1.9v21.071l11.907-1.489Z" transform="translate(-387.217 -161.39)"/><path class="az" d="M277.067,200l-11.907,1.9v21.071l11.907-1.486Z" transform="translate(-265.16 -190.002)"/></g><path class="ba" d="M475.85,260.58" transform="translate(-409.94 -193.101)"/><path class="e" d="M493.06,215.052l-17.21-3.8v4.687l13.88,3.019v7.2l3.33.51Z" transform="translate(-409.94 -156.545)"/><g transform="translate(65.91 59.392)"><path class="o" d="M480.783,233.5v3.786l-4.933-.974v4.2l13.88,2.129v-7.2Z" transform="translate(-475.85 -232.425)"/><path class="f" d="M480.783,230.425l-4.933-1.075v3.887l4.933.974Z" transform="translate(-475.85 -229.35)"/></g><path class="f" d="M475.85,180.871V161.39l4.457.984v18.5Z" transform="translate(-409.94 -119.597)"/><path class="bb" d="M475.85,169.64" transform="translate(-409.94 -125.71)"/><path class="bc" d="M501.37,185.134V171.314s-2.069-2.287-7.4-2.859a91.293,91.293,0,0,0-13.7.142v15.462Z" transform="translate(-413.215 -124.667)"/><g class="bd" transform="translate(79.06 43.653)"><path d="M535.725,171.564s-2.069-2.287-7.4-2.859c-.536-.057-1.1-.1-1.691-.135v16.351l9.092.464V171.564Z" transform="translate(-526.63 -168.57)"/></g><path class="e" d="M480.28,227.436s9.278-1.316,16.48-.256,3.83,1.828,3.83,1.828l-11.226,1.114Z" transform="translate(-413.223 -168.044)"/><path class="d" d="M494.9,234.211v-3.763l7.461-1.1v3.716Z" transform="translate(-424.057 -169.958)"/><path class="e" d="M503.847,246.445l-8.947-1.6,7.461-1.145,7.916,1.657Z" transform="translate(-424.057 -180.592)"/><path class="o" d="M531.626,234.723v-3.8l-7.916-1.572v3.716Z" transform="translate(-445.406 -169.958)"/><path class="ah" d="M429.87,158.736v-1.489l11.907-2.007v1.593Z" transform="translate(-375.867 -115.039)"/><path class="q" d="M429.87,120.6l4.477-14.626,1.114-.189,6.316,12.808Z" transform="translate(-375.867 -78.387)"/><path class="k" d="M451.46,105.78l4.8,1.357,5.969,12.536-4.457-1.085Z" transform="translate(-391.866 -78.387)"/><path class="n" d="M475.85,155.24l4.457,1.085v1.492l-4.457-.984Z" transform="translate(-409.94 -115.039)"/><g transform="translate(11.159 49.614)"><path class="k" d="M311.909,200.081v-6.269l-3.623-.867v1.435l-2.136-.386v-1.559l-3.53-.844v6.971Z" transform="translate(-292.728 -191.59)"/><path class="e" d="M279.791,196.683v-.821l-2.921-.642v1.849Z" transform="translate(-273.646 -194.28)"/><path class="e" d="M318.386,198.255V196.82l-2.136.461v.588Z" transform="translate(-302.828 -195.466)"/><path class="q" d="M274.312,191.59l-3.747.528v1.875l-2.921.386V192.53l-3.224.453v6.746l9.892-1.168Z" transform="translate(-264.42 -191.59)"/><path class="i" d="M302.62,261.629l9.289.666v-13.9l-9.289-1.274Z" transform="translate(-292.728 -232.74)"/><path class="c" d="M264.42,248.391v13.9l9.892-.666V247.12Z" transform="translate(-264.42 -232.74)"/></g><g transform="translate(11.159 31.223)"><path class="r" d="M264.42,121.422v19.243l2.243-.316V120.99Z" transform="translate(-264.42 -120.881)"/><path class="h" d="M330.342,121.111l-2.592-.541v19.948l2.592.619Z" transform="translate(-311.35 -120.57)"/></g><path class="r" d="M322.281,120.57l-1.911.684v19.292l1.069-.23.842.2Z" transform="translate(-294.723 -89.347)"/><g transform="translate(13.401 29.863)"><path class="r" d="M291,115.9v19.6l3.009-.425V115.32Z" transform="translate(-286.359 -115.32)"/><path class="h" d="M273.08,120.99v19.36l.981-.137,1.155.254.049-18.565Z" transform="translate(-273.08 -119.522)"/><path class="h" d="M302.62,115.32v19.751l2.605.634V115.864Z" transform="translate(-294.97 -115.32)"/><path class="e" d="M312.68,117.42v1.707l1.953.417.039-.624,1.911-.684Z" transform="translate(-302.425 -116.876)"/></g><path class="e" d="M283.293,117.55l-2.693.518,2.693.59Z" transform="translate(-265.252 -87.109)"/><g transform="translate(21.051 21.714)"><path class="d" d="M302.62,83.85V92l4.646.971V85.2Z" transform="translate(-302.62 -83.85)"/><path class="o" d="M325.014,90.365,320.56,89.07v7.769l4.454.93Z" transform="translate(-315.914 -87.718)"/></g><path class="c" d="M286.3,83.85,280.6,85v8.092l5.7-1.1Z" transform="translate(-265.252 -62.136)"/><g transform="translate(11.159 56.583)"><path class="e" d="M276.7,237.234a2.138,2.138,0,0,0-1.468-.624c-1.406,0-2.546,1.518-2.546,3.39,0,.109.005.218.013.326l2.929-.375A3.791,3.791,0,0,1,276.7,237.234Z" transform="translate(-270.548 -231.92)"/><path class="be" d="M264.42,219.67v7.512l2.152-.277c-.008-.106-.013-.215-.013-.326,0-1.872,1.139-3.39,2.546-3.39a2.127,2.127,0,0,1,1.468.624,3.709,3.709,0,0,1,1.062,2.439l1.375-.176,1.3-.168V218.5Z" transform="translate(-264.42 -218.5)"/></g><g transform="translate(21.051 56.585)"><path class="e" d="M316.773,237a2.209,2.209,0,0,0-1.323.453,3.485,3.485,0,0,1,1.277,2.8l2.631.36c.01-.117.016-.236.016-.355C319.371,238.458,318.208,237,316.773,237Z" transform="translate(-312.128 -232.212)"/><path class="f" d="M302.62,218.51v7.409l.961.132,1.1.15a3.4,3.4,0,0,1,1.261-2.45,2.209,2.209,0,0,1,1.323-.453c1.435,0,2.6,1.458,2.6,3.258,0,.119-.005.238-.016.355l2.061.282v-7.16Z" transform="translate(-302.62 -218.51)"/></g><g transform="translate(5.772 66.524)"><path class="q" d="M258.9,256.89l-15.279,2.017v6.409l15.279-1.422Z" transform="translate(-243.62 -256.89)"/><path class="k" d="M302.62,256.89v7l4.9.627v-6.886Z" transform="translate(-287.341 -256.89)"/><path class="ah" d="M243.62,285.362V293l15.279-1.316V283.94Z" transform="translate(-243.62 -276.935)"/><path class="h" d="M302.62,291.683l4.9.365v-7.481l-4.9-.627Z" transform="translate(-287.341 -276.935)"/></g><path class="bf" d="M288.466,321.181V313.84l-4.946.427v7.077Z" transform="translate(-267.415 -232.568)"/><path class="k" d="M312.7,321.492v-6.883l-10.079-.769v7.341Z" transform="translate(-281.569 -232.568)"/><path class="ax" d="M354.81,322l9.84,8.318V321.84Z" transform="translate(-320.244 -238.497)"/><path class="ax" d="M281.43,386.91v4.534l10.527,7.253V386.91Z" transform="translate(-265.867 -286.716)"/><path class="ax" d="M321.53,265.38l11.684,10.931-11.684-.8Z" transform="translate(-295.582 -196.658)"/><g transform="translate(30.151 35.244)"><path class="ax" d="M348.491,157.014c.308-.189.609-.363.906-.526v-6.233l-4.156.575V138.49l-2.9-2.39-1.225,4.239v11.19l-3.359.531v.588l.189.047V172.81h1.106S340.316,162.042,348.491,157.014Z" transform="translate(-337.76 -136.1)"/></g><path class="ax" d="M432.433,343.993l-.3.008V342.82l12.2,15.84v2.869l-5.358-.034-6.544-11.487Z" transform="translate(-377.541 -254.044)"/></g><path class="ax" d="M388.76,100.09l5.638,4.915,3.892.715-3.726,9.431v-2.105Z" transform="translate(-288.087 -74.171)"/><path class="ax" d="M480.28,229.35l.228.412,4.9,8.737,7.606,1.067v-3.755l-8.947-1.6,3.286-.5,4.174-4.356-7.461,1.1" transform="translate(-355.907 -169.958)"/><path class="ax" d="M448.04,264.867l6.616,4.62,5.042,10.967v-8.911l.018-4.25.72-.078V263.5Z" transform="translate(-332.016 -195.264)"/><path class="ax" d="M501.9,338.2h2.318l2.048,9.064-.466,2.2-6.787.085Z" transform="translate(-369.787 -250.62)"/><path class="ax" d="M471.005,381.68v1.973l-.616.016v1.264l-1.922,1.274v6.163a4.19,4.19,0,0,1-4.242,4.187l-2.4-.031.313,9.286L452.06,405.4l.2-15.105,6.837.031,4.71-.539.8.008v-6.124h-.394v-1.9Z" transform="translate(-334.995 -282.841)"/><path class="ax" d="M474.9,474.17v1.712l12.477,5.7v-6.86Z" transform="translate(-351.921 -351.38)"/><path class="ax" d="M354.81,508.3l9.84,5.412,7.782.567V503.239l-1.986.326-5.213-.342-.583-.1v3.361l-4.317.565-5.524-.176Z" transform="translate(-262.929 -372.833)"/><path class="ax" d="M243.67,520.983v.945l4.037,1.916,2.025.184,4.257,2.411v-2.028l5.428.489V520.97l-2.564.365-5.037-.324-2.994.515Z" transform="translate(-180.569 -386.06)"/><path class="ax" d="M263.57,339.21l5.9,3.672,2.965,8.68H268.2Z" transform="translate(-195.316 -251.369)"/><g transform="translate(27.17 98.389)"><path class="c" d="M191.8,379.974h0l1.857-.034Z" transform="translate(-169.302 -379.94)"/><path class="c" d="M109.61,381.444l9.317,57.833,2.144-.363-9.706-57.5Z" transform="translate(-108.395 -381.029)"/><path class="bg" d="M104.92,381.561l8.893,57.605,1.639.207-9.317-57.833Z" transform="translate(-104.92 -381.126)"/><path class="bh" d="M193.657,379.94l-1.857.034,10.426,61.044,2.408.3Z" transform="translate(-169.302 -379.94)"/><path class="c" d="M211.737,440.964,201.495,379.94H198.97l10.977,61.381Z" transform="translate(-174.615 -379.94)"/></g><g transform="translate(0 79.218)"><path class="c" d="M5.33,625.69Z" transform="translate(-3.95 -542.88)"/><path class="bi" d="M32.046,305.91h0l-1.468.1L0,388.5l1.38.22Z" transform="translate(0 -305.91)"/><path class="c" d="M39.627,306.788,36,305.91,5.33,388.72h0l4.547-.632Z" transform="translate(-3.95 -305.91)"/></g><g transform="translate(19.665 115.307)"><path class="bj" d="M75.94,445.9,76,445.27l34.126.088.127.6Z" transform="translate(-75.94 -445.27)"/></g><g transform="translate(13.58 131.463)"><path class="bk" d="M52.44,507.66v.629l22.762.557.181-.585Z" transform="translate(-52.44 -507.66)"/></g><g transform="translate(24.788 77.134)"><path class="bl" d="M102.059,299.537l-.546,1.069,1.466-.1,12.047-.811a5.367,5.367,0,0,1,5.49,6.935l-24.8,80.42,2.248.36,23.64-80.712a6.306,6.306,0,0,0-6.484-8.064Z" transform="translate(-95.72 -298.424)"/><g transform="translate(2.248)"><path class="c" d="M121.556,298.073h0a6.3,6.3,0,0,1,6.484,8.064L104.4,386.849l4.622-.769,22.822-78.97a7.239,7.239,0,0,0-7.453-9.232Z" transform="translate(-104.4 -297.861)"/></g></g><g transform="translate(7.691 146.918)"><path class="bm" d="M52.115,568.93l-18.881-1.59H29.7L52,569.305Z" transform="translate(-29.7 -567.34)"/><path class="c" d="M29.7,567.34v.629l22.118,1.924.181-.588Z" transform="translate(-29.7 -567.34)"/></g><path class="bn" d="M123.75,305.91l2.465,4.066,1.165-3.188Z" transform="translate(-91.704 -226.692)"/><path class="bn" d="M75.94,447.69l2.292,1.66.6-1.631Z" transform="translate(-56.275 -331.757)"/><path class="bn" d="M52.44,510.09l3.043.075-.712,1.947Z" transform="translate(-38.86 -377.998)"/><g transform="translate(163.628 141.733)"><path class="e" d="M634.68,550.016c-.29-.554-1.336-2.118-1.722-2.7H631.87v4.348a5.153,5.153,0,0,0,1.523,1.442C635.2,553.281,635.04,550.7,634.68,550.016Z" transform="translate(-631.87 -547.32)"/><path class="k" d="M638.261,549.9c-.448-.629-1.833-2.569-1.833-2.569h-.357c.386.575,1.432,2.142,1.722,2.7.36.684.515,3.266-1.287,3.1a1.13,1.13,0,0,0,.839.119C638.4,552.916,638.709,550.526,638.261,549.9Z" transform="translate(-634.982 -547.327)"/></g><path class="bn" d="M29.7,569.77l2.6,1.924.6-1.644Z" transform="translate(-22.009 -422.223)"/><path class="bn" d="M195.028,379.94l-.526.034-.852,2.952.831,4.713.989-5.213Z" transform="translate(-143.503 -281.551)"/><g transform="translate(88.625 75.972)"><g transform="translate(1.849 86.134)"><path class="i" d="M352.476,641.35a4.551,4.551,0,0,1-3.066-.94c0,.386,0,.658,0,.7,0,.15,1.183,1.334,4.356.932,1.271-.161,2.693-.3,3.941-.414l-.073-.847A35.454,35.454,0,0,1,352.476,641.35Z" transform="translate(-349.401 -636.676)"/><path class="e" d="M360.189,627l-5.086-.886-5.236-.122s-.453.15-.479.378c-.018.168-.01,2.24,0,3.356a4.557,4.557,0,0,0,3.066.94,35.8,35.8,0,0,0,5.161-.572l.072.847c1.862-.166,3.335-.267,3.335-.267Z" transform="translate(-349.377 -625.99)"/></g><path class="m" d="M351.27,618.713v1.94s.8.956,3.273.956c2.116,0,1.963-1.114,1.963-1.114V618.41Z" transform="translate(-348.93 -534.239)"/><g transform="translate(7.792 87.151)"><path class="e" d="M383.916,633.382c.427-.091.572-.531.616-.914a1.425,1.425,0,0,0-1.152-1.383l-5.327-1.044-5.236-.122s-.453.15-.479.378c-.018.171-.01,2.31,0,3.413a4.67,4.67,0,0,0,2.924.93A65.67,65.67,0,0,0,383.916,633.382Z" transform="translate(-372.327 -629.92)"/><path class="i" d="M383.933,640.682a65.643,65.643,0,0,1-8.66,1.256,4.669,4.669,0,0,1-2.924-.93c0,.357,0,.6,0,.642,0,.15,1.183,1.334,4.356.932,2.261-.287,5-.847,6.378-1.145a1.912,1.912,0,0,0,1.308-1.01h0a1.413,1.413,0,0,0,.153-.658C384.506,640.151,384.361,640.591,383.933,640.682Z" transform="translate(-372.344 -637.219)"/></g><path class="m" d="M374.21,619.641v2.711s.7.963,2.921.963c1.973,0,1.963-1.158,1.963-1.585V619.39Z" transform="translate(-365.93 -534.966)"/><path class="bo" d="M388.65,313.43a5,5,0,0,0,1.31,1.227c.381.274-.047.79-.531.546S388.65,313.43,388.65,313.43Z" transform="translate(-376.631 -308.237)"/><path class="ax" d="M388.15,313.43a5.457,5.457,0,0,0,1.437,1.227c.381.274-.173.79-.658.546" transform="translate(-376.26 -308.237)"/><path class="bo" d="M388.571,331.687s4.962-7.08,5.5-7.777,2.245-2.245,3.351-2.211,1.295.7.632.79-1.1.189-1.1.189l-1.2,3.359V328.1l-5.016,14.869a1.473,1.473,0,0,1-2.087.792l-5.609-3.04Z" transform="translate(-372.473 -314.364)"/><path class="bo" d="M360.239,315.08v-3.866l-1.489-5.643,5.617-2.481.673.262s2.67,4.415,3.245,5.511.678,3.449-2.193,3.84v3.056Z" transform="translate(-354.473 -300.574)"/><g transform="translate(10.807 9.619)"><path class="ax" d="M383.97,330.52a5.7,5.7,0,0,1,.811,2.507c1.859-.254,2.47-1.326,2.517-2.349C387.129,331.931,383.97,330.52,383.97,330.52Z" transform="translate(-383.97 -330.52)"/></g><path class="e" d="M349.1,301.725l1.81,2.986a1.711,1.711,0,0,0,2.17.671l1.719-.782a.98.98,0,0,0,.536-1.163l-1.215-4.2,1.106.414s.95.207,1.253-.08-1.051-1.673-1.051-1.673a10.1,10.1,0,0,1,2.256-.611c.1.161.285.474.285.474a1.545,1.545,0,0,0-.355-1.966s1.88-1.274-.127-1.945a8.042,8.042,0,0,0-8.222,1.657C346.41,298.043,348.863,301.329,349.1,301.725Z" transform="translate(-346.43 -293.375)"/><path class="q" d="M343.786,456.11S343.569,484.829,345,498.1c0,0,.963,2.473,5.995,1.026l1.111-.992-.373-41.433Z" transform="translate(-343.376 -413.968)"/><path class="bp" d="M353.477,478.777a4.206,4.206,0,0,1-1.844.9c-.1.026,1.238.761,1.238.875s0,.225.005.342c.106,7.7.471,30.052,1.152,35.216,0,0,2.833-.065,3.444-.94C358.159,514.192,360.762,474.25,353.477,478.777Z" transform="translate(-349.196 -430.501)"/><path class="q" d="M351.66,462.551l3.382,1.028s.7,29.141,1.585,34.954c0,0,.873,1.093,3.983,1.093,2.325,0,2.748-1.339,2.748-1.339s1.657-26,1.657-32.523V455.3H353.6" transform="translate(-349.219 -413.368)"/><path class="ax" d="M343.79,455.495v.2s6.023,4.125,15.385,2.525V455.28l-15.4.026Z" transform="translate(-343.38 -413.353)"/><path class="bo" d="M371.884,315.649s-1.53-1.738-2.375-1.243.176,2.152,1.308,2.678,1.308-.414,1.308-.414" transform="translate(-362.216 -308.895)"/><path class="q" d="M363.27,346.4v-.93a.475.475,0,0,1,.166-.363,5.258,5.258,0,0,1,3.281-1.2,11.006,11.006,0,0,1,2.893.238.481.481,0,0,1,.365.466v1.349Z" transform="translate(-357.823 -330.812)"/><g transform="translate(0 13.658)"><path class="bo" d="M441.172,368.721l-.394.078.5-.855a.265.265,0,0,0-.4-.339l-1.191.984s.3-.663.541-1.054-.091-.691-.391-.482-2.318,2.167-2.318,2.167.034-.974-.181-1.023c-.352-.083-.754.722-.932,1.264s-.787,2.1-.787,2.1l-5.78,3s-2.512-2.527-5.591-5.28c.984.891-.668,5.485-2.5,7.5l6.451,3.069a3.464,3.464,0,0,0,3.887-.627c2.447-2.344,6.715-6.42,7.458-7.077a9.26,9.26,0,0,0,1.836-2.981v-.269A.176.176,0,0,0,441.172,368.721Z" transform="translate(-401.159 -361.58)"/><path class="c" d="M365.662,353.388c-3.405-3.045-7.507-6.365-9.682-6.852-4.141-.927-9.348-.857-11.775,5.925s-1.927,22.2-1.927,22.2c10.586,3.227,17.177,0,17.177,0l.031-14.758,3.027,1.567.645-.572C365,358.876,366.646,354.279,365.662,353.388Z" transform="translate(-342.236 -346.116)"/></g><line class="bq" x2="0.624" y2="0.653" transform="translate(28.686 26.635)"/><path class="ax" d="M402.707,396.042l-2.147-1.152,2.142,3.724Z" transform="translate(-385.456 -368.602)"/><line class="bq" x1="2.147" y1="1.152" transform="translate(15.104 26.288)"/></g><line class="bq" x1="0.839" y2="1.093" transform="translate(126.323 96.638)"/><line class="bq" x1="1.259" y2="1.486" transform="translate(126.988 96.848)"/><g transform="translate(10.707 18.803)"><path class="n" d="M243.34,76.756s1.025-2.748,1.1-3.286.287-.86.43-.86c.3,0,.432.464.552,1.435.137,1.134-1.1,2.631-1.1,2.631Z" transform="translate(-191.032 -72.61)"/><path class="ax" d="M257.351,79.43l.091.562a2.327,2.327,0,0,1-.94.9c-.311.142-1.4,3.827-1.541,5.757l-1.362.259-.748-4.77,3.475-2.25Z" transform="translate(-198.079 -77.664)"/><path class="br" d="M235.92,81.6s1.37-2.468,1.782-3.359a11.643,11.643,0,0,1,1.833-3.1,14.666,14.666,0,0,1,3.752-.924c.805-.034,2.364.067,2.4.36s-.342.445-.616.464c0,0,.254.339-.464.616,0,0,.319.668-.71.976a4.365,4.365,0,0,0-2.357,1.849c-.412.72-2.022,4.265-2.022,4.265Z" transform="translate(-185.533 -73.793)"/><path class="bs" d="M121.136,206.689l-4.2,4.265,1.839,6.5-2.072,3.167s-3.814-5.086-5.228-9.043a2.293,2.293,0,0,1,.352-2.183c1.867-2.4,6.849-8.794,8.942-11.368C123.369,194.826,121.136,206.689,121.136,206.689Z" transform="translate(-93.217 -165.141)"/><g class="bd" transform="translate(25.052 32.337)"><path d="M140.59,198.032c-.583.717-1.391,1.732-2.292,2.872l-.088.816a21.1,21.1,0,0,0,.275,6.342l.189.956,2.284-2.32S143.188,194.831,140.59,198.032Z" transform="translate(-138.088 -197.483)"/></g><path class="k" d="M237.04,95.181v-.256A4.669,4.669,0,0,1,237.9,93.5a2.735,2.735,0,0,1,2.672.223c1.259.787.873,1.538.394,2.411S237.04,95.181,237.04,95.181Z" transform="translate(-186.363 -87.91)"/><path class="bt" d="M141.06,138.332c1.222-2.323,1.934-7.515,3.309-12.031,0,0,6.969-2.351,9.245-6.492S164.729,98.474,165.9,96.764c1.028-1.5,4.9-.71,3.967,1.463s-7.815,16.094-10.247,22.718-4.275,16.55-5.267,20.541-12.689-1.5-12.689-1.5Z" transform="translate(-115.238 -89.936)"/><path class="e" d="M156.973,151.727s6.148,13.1-3.366,15.3c-6.4,1.479-7.225-3.395-7.083-6.746a6.394,6.394,0,0,1-1.121-4.257c.394-2.144,3.027-5.143,2.3-7.194s-1.536-5.449,1.085-7.7a5.617,5.617,0,0,1,5.441-1.163s2.268-1.4,3.444.805-.228,3.133-.228,3.133l.308,2.276a2.707,2.707,0,0,0,1.171,1.883h0Z" transform="translate(-118.408 -122.195)"/><path class="br" d="M184.816,155.091a2.814,2.814,0,0,1-1.1-.728c-.9-.093-2.043-1.719-1.248-2.209s1.89,1.429,1.89,1.429c.552-.287.342-.59.163-.826s-1.7-1.867-.878-2.522,1.678.725,1.678.725c.093.267.484,1.525.484,1.525a6.205,6.205,0,0,1,.79,2.7l-.409.779-.479-.391A2.87,2.87,0,0,0,184.816,155.091Z" transform="translate(-145.728 -130.003)"/><path class="e" d="M86.243,264.153a10.83,10.83,0,0,0,2.167,3.3l-2.121,12.961s-3.967,18.332-4.006,18.663,1.227.852,3.237,1.111a19.591,19.591,0,0,0,2.952.189.526.526,0,0,0,.492-.378c.593-2.01,3.556-12.08,5.666-19.681a164.412,164.412,0,0,0,4.2-19.652c-.047-.8-2.263-2.781-6.034-3.581a15.007,15.007,0,0,0-7.259.425,17.177,17.177,0,0,0-2.217,3.537c-1.137,2.626-1.872,5.9-2.874,8.149-1.7,3.817-3.157,8.437-3.157,8.437s-9.162,7.5-10.713,8.916a.961.961,0,0,0-.29.5,7.608,7.608,0,0,0,.07,3.309c.445,1.564,1.7,2.781,2.4,2.592S81.67,283.43,83.366,282.2s9.561-17.614,9.561-17.614" transform="translate(-59.714 -209.112)"/><ellipse class="bu" cx="1.334" cy="3.001" rx="1.334" ry="3.001" transform="translate(6.292 77.92) rotate(-13.539)"/><path class="bv" d="M65.812,376.232a5.053,5.053,0,0,0-1.018-2.142l-1.743.994-1.631.932.963,4.325,1.994-1.2,1.58-.95A5.542,5.542,0,0,0,65.812,376.232Z" transform="translate(-56.222 -296.019)"/><g class="bd" transform="translate(7.229 78.071)"><path d="M71.622,376.232A5.053,5.053,0,0,0,70.6,374.09l-1.344.767a3.582,3.582,0,0,1,1.87,3.719l.637-.383A5.542,5.542,0,0,0,71.622,376.232Z" transform="translate(-69.26 -374.09)"/></g><path class="e" d="M45.361,387.833c.5-1.432.826-4.213-.111-4.609a1.519,1.519,0,0,0-1.6.249c-.233.228-.243.533-.344.917h0c-.36,1.652-1.085,4.915-1.569,6.515-.461,1.525-.647,3.206.168,3.9,0,0,.008.005.01.01.028.023.06.047.091.07l.013.008.018.01C43.489,395.737,44.882,389.219,45.361,387.833Z" transform="translate(-41.346 -302.698)"/><g transform="translate(0.69 78.896)"><path class="q" d="M52.736,379.438c-.148-2.064-1.776-2.382-2.615-2.051a16.031,16.031,0,0,0-2.817,1.388c.331-.215,1.634-.86,2.3.129s.2,3.237,0,4-1.067,3.589-1.411,4.488-1.023,3.532-2.281,3.377a2.108,2.108,0,0,0,.329.041c1.846.054,2.934-3.47,4.532-5.811S52.884,381.5,52.736,379.438Z" transform="translate(-45.418 -377.274)"/><path class="q" d="M48.93,388.07Z" transform="translate(-47.656 -385.274)"/><path class="k" d="M46.781,390.53c.344-.9,1.212-3.721,1.411-4.488s.666-3.014,0-4-1.965-.344-2.3-.129a1.022,1.022,0,0,0-.432.471c-.036.171-.1.458-.179.823.1-.383.114-.689.344-.917a1.519,1.519,0,0,1,1.6-.249c.937.4.606,3.177.111,4.609-.479,1.385-1.872,7.9-3.322,7.07a1.445,1.445,0,0,0,.484.189C45.761,394.063,46.439,391.424,46.781,390.53Z" transform="translate(-44.01 -380.409)"/></g><path class="bu" d="M135.645,420.725c-.031.223-1.388.212-3.03-.023s-3.027-.65-3-.87,1.471-.166,3.11.067S135.676,420.5,135.645,420.725Z" transform="translate(-106.759 -329.812)"/><path class="bv" d="M134.768,419.942c-.671-.1-1.308-.161-1.828-.192l-.148.627-.422,1.782,4.374.1.311-1.339.109-.469A14.531,14.531,0,0,0,134.768,419.942Z" transform="translate(-108.799 -329.855)"/><g class="bd" transform="translate(23.913 89.895)"><path d="M135.746,419.942c-.671-.1-1.308-.161-1.828-.192l-.148.627-.08.339a21.2,21.2,0,0,1,4.379.049l.073-.311A14.531,14.531,0,0,0,135.746,419.942Z" transform="translate(-133.69 -419.75)"/></g><g transform="translate(18.268 89.685)"><g class="bw"><path class="q" d="M139.467,430.06a2.642,2.642,0,0,0-1.15-1.15c-.818-.445-3.928-2.944-4.084-3.027a14.62,14.62,0,0,0-2.279-.083c-.932,0-3.255-.083-3.359.155-.078.179-.474,2.815-.666,4.1C129.258,430.055,135.65,430.057,139.467,430.06Z" transform="translate(-123.776 -424.013)"/></g><g class="bw"><path class="k" d="M127.759,442.281c-.021.148-.041.277-.057.383a.274.274,0,0,0,.272.313h11.195a.248.248,0,0,0,.249-.267,1.434,1.434,0,0,0-.122-.43C135.479,442.279,129.088,442.276,127.759,442.281Z" transform="translate(-123.605 -436.235)"/></g></g><path class="bx" d="M143.79,285.16a10.83,10.83,0,0,0,2.167,3.3l-1.543,9.434" transform="translate(-117.261 -230.118)"/><path class="bq" d="M258.17,79.872a13.44,13.44,0,0,1,2.781-.6.135.135,0,0,1,.142.106" transform="translate(-202.022 -77.544)"/><path class="bq" d="M258,76.835s1.795-.383,3.164-.508a.259.259,0,0,1,.264.168h0" transform="translate(-201.896 -75.364)"/></g><path class="o" d="M572.33,521.4l-.2,1.606-6.329,8.618a3.406,3.406,0,0,0,.241,4.325h0a3.406,3.406,0,0,0,3.374.987l13.831-3.651L579.633,521.4Z" transform="translate(-418.791 -386.379)"/><path class="ax" d="M598.447,550.26c-.047.013-.065-.018-6.117,4.252l7.16-1.67Z" transform="translate(-438.941 -407.765)"/><g transform="translate(161.356 145.574)"><g transform="translate(0.001)"><path class="e" d="M630.179,564.023a17.55,17.55,0,0,1-1.007-1.722c-.36-.826-3.522,2.03-3.522,2.03l.36,1.743-.179.808a2.758,2.758,0,0,1,3.7,1.4,3.1,3.1,0,0,0,.541-1.906C630.143,564.474,630.342,564.292,630.179,564.023Z" transform="translate(-624.99 -562.151)"/><path class="m" d="M623.942,579.63a2.609,2.609,0,0,0-.842,1.789c.057.513,1.694.671,3,.383a2.6,2.6,0,0,0,1.543-.769A2.753,2.753,0,0,0,623.942,579.63Z" transform="translate(-623.1 -574.9)"/></g><path class="q" d="M628.285,569.38c.161.269-.036.451-.109,2.354-.073,1.921-.772,2.39-2.085,2.678s-2.939.127-3-.383a2.685,2.685,0,0,0,.031.51s.142.88,2.263.772,2.66-.971,2.965-1.852a15.347,15.347,0,0,0,.287-3.322A2.091,2.091,0,0,0,628.285,569.38Z" transform="translate(-623.094 -567.508)"/></g><path class="by" d="M578.227,468.7c.477-.383.243-1.67-.443-2.913s-2.266-7.932-2.688-9.967-2.393-4.2-6.852-3.944-5.959,1.243-9.069,3.452-4.716,3.452-4.716,3.452v5.145s7.546-4.5,8.66-5.21c0,0,.557,2.937.792,5.487s.36,3.807.505,5.663h13.567Z" transform="translate(-410.878 -334.846)"/><path class="bq" d="M585.684,471.9a14.157,14.157,0,0,0-.774-2.248" transform="translate(-433.442 -348.03)"/><path class="ax" d="M601.947,480.3l-6.179,10.643h-3.429l-.2-2.388Z" transform="translate(-438.8 -355.922)"/><path class="bz" d="M570.281,464.69a28.383,28.383,0,0,1-7.8,7.745c-4.364,2.869-7.228,4.949-7.927,5.461a.493.493,0,0,0-.2.339,5.285,5.285,0,0,0,.329,2.512c.57,1.432,1.046,1.766,1.606,1.551a100.113,100.113,0,0,0,10.076-6.324,76.127,76.127,0,0,0,7.935-7.681" transform="translate(-410.775 -344.354)"/><ellipse class="e" cx="0.676" cy="2.082" rx="0.676" ry="2.082" transform="matrix(0.96, -0.279, 0.279, 0.96, 143.451, 133.91)"/><path class="br" d="M540.479,518.154c-.316-1.082-.852-1.883-1.209-1.815-.008,0-.016,0-.021,0a.3.3,0,0,0-.075.039l0,0-1.38.7-1.88-.174a.229.229,0,0,0-.228.13h0a.231.231,0,0,0,.1.306l.746.388a.12.12,0,0,1-.029.223l-3.076.73a.243.243,0,0,0-.184.277h0a.244.244,0,0,0,.269.2l2.683-.331a.022.022,0,0,1,.013.041l-2.336,1.341a.27.27,0,0,0-.078.4h0a.268.268,0,0,0,.3.088l2.463-.813a.022.022,0,0,1,.021.039L535,521.311a.251.251,0,0,0,.01.386h0a.249.249,0,0,0,.287.016l1.787-1.1a.022.022,0,0,1,.031.029l-.634,1.406a.243.243,0,0,0,.15.331l.008,0a.241.241,0,0,0,.249-.065l2.1-2.214.676-.4,1.01-.6A5.539,5.539,0,0,0,540.479,518.154Z" transform="translate(-395.151 -382.625)"/><g class="b" transform="translate(143.971 133.709)"><path d="M557.317,518.154c-.316-1.082-.852-1.883-1.209-1.815-.008,0-.016,0-.021,0a.3.3,0,0,0-.075.039l0,0-.049.026a4.146,4.146,0,0,1,.956,3.051l.6-.355A6.133,6.133,0,0,0,557.317,518.154Z" transform="translate(-555.96 -516.335)"/></g><path class="q" d="M594.378,451.595c-.578.365-.917,1.284-.36,1.745s2.289.8,4.13-.531c2.289-1.66.787-3.146-.676-2.243A8.239,8.239,0,0,1,594.378,451.595Z" transform="translate(-439.982 -333.686)"/><path class="br" d="M600.03,441.511l-.186-2.292-.093-1.129-3.98,1.538.114,2.823.023.57c.052,1.326,2.051.712,3.255,0A1.484,1.484,0,0,0,600.03,441.511Z" transform="translate(-441.49 -324.643)"/><path class="ax" d="M599.445,438.67l.306-.57-3.98,1.538.114,2.823C596.695,442.326,599.424,442.08,599.445,438.67Z" transform="translate(-441.49 -324.65)"/><path class="bq" d="M596.757,464.69a28.314,28.314,0,0,1-6.707,6.984" transform="translate(-437.251 -344.354)"/><g transform="translate(154.563 132.868)"><path class="d" d="M609.651,514.076a2.606,2.606,0,0,1-1.968.282c-1-.321-8.269-3.172-10.317.883-2.007,3.978,2.406,7.341,6.288,13.147a.566.566,0,0,0,.6.243c.282-.06.59-.124.932-.192a4.334,4.334,0,0,0,2.8-2.022.811.811,0,0,0,.06-.823l-1.525-3.051s3.612-.161,4.576-2.649S609.651,514.076,609.651,514.076Z" transform="translate(-596.865 -513.086)"/></g><g class="bd" transform="translate(161.261 135.946)"><path d="M622.73,524.97l2.968,6.381c.2-.01,3.04-.2,4.255-2.048C628.557,531.009,623.517,526.671,622.73,524.97Z" transform="translate(-622.73 -524.97)"/></g><g transform="translate(149.95 105.367)"><path class="q" d="M607.566,430.746a.224.224,0,0,0-.026-.016l.008.041A.216.216,0,0,0,607.566,430.746Z" transform="translate(-600.163 -424.556)"/><path class="br" d="M588.142,428.576c.378-.054.334-.484.334-.484l1.259-.184c.974-.142.756-.774.627-1.549-.1-.614-.293-1.639-.365-2.038a1.872,1.872,0,0,1-2.652-.4,1.284,1.284,0,0,1-.8,1.044,1.24,1.24,0,0,1-.28.078c.236,1.1.5,2.4.65,3.206l.772-.114S587.764,428.63,588.142,428.576Z" transform="translate(-584.401 -419.509)"/><path class="br" d="M608.925,429.331c-.2-.95-.94-.772-1.347-.111a.176.176,0,0,1-.018.029c.117.8.259,2.486.619,2.434,0,0,.8-.277.795-1.82A2.605,2.605,0,0,0,608.925,429.331Z" transform="translate(-600.177 -423.03)"/><path class="r" d="M588.4,410.3a1.557,1.557,0,0,0-1.326-1.316,2.026,2.026,0,0,0-.016-.414,1.968,1.968,0,0,0-3.2-1.233,1.862,1.862,0,0,0-2.83.616,1.172,1.172,0,0,0-.919,1.315.01.01,0,0,0,0,.008,1.407,1.407,0,0,0-1.049,1.569,1.388,1.388,0,0,0,.355.746,1.174,1.174,0,0,0-.031.477,1.124,1.124,0,0,0,1.644.852s-.114-.508-.109-.51a1.24,1.24,0,0,0,.28-.078,1.288,1.288,0,0,0,.795-1.044,1.871,1.871,0,0,0,2.652.4c.073.4.262,1.424.365,2.038.129.772.347,1.406-.627,1.549l-1.259.184s.047.427-.334.484-.453-.443-.453-.443l-.772.114c.028.155.049.3.067.409.158,1.08.241,3.141,2.817,2.546a3.249,3.249,0,0,0,2.6-3.04c-.357.052-.5-1.637-.619-2.434l-.008-.041a.231.231,0,0,0,.026.016c.407-.66,1.15-.836,1.347.111a.924.924,0,0,0,.189-1.585A1.55,1.55,0,0,0,588.4,410.3Z" transform="translate(-579.051 -406.888)"/><path class="ca" d="M585.447,434.68h0a.868.868,0,0,1-.984-.733h0a.868.868,0,0,1,.733-.984h0a.868.868,0,0,1,.984.733h0A.868.868,0,0,1,585.447,434.68Z" transform="translate(-583.055 -426.204)"/><path class="cb" d="M594.427,433.36h0a.868.868,0,0,1-.984-.733h0a.868.868,0,0,1,.733-.984h0a.868.868,0,0,1,.984.733h0A.866.866,0,0,1,594.427,433.36Z" transform="translate(-589.709 -425.226)"/><path class="bq" d="M585.447,434.68h0a.868.868,0,0,1-.984-.733h0a.868.868,0,0,1,.733-.984h0a.868.868,0,0,1,.984.733h0A.868.868,0,0,1,585.447,434.68Z" transform="translate(-583.055 -426.204)"/><path class="bq" d="M594.427,433.36h0a.868.868,0,0,1-.984-.733h0a.868.868,0,0,1,.733-.984h0a.868.868,0,0,1,.984.733h0A.866.866,0,0,1,594.427,433.36Z" transform="translate(-589.709 -425.226)"/><line class="bq" y1="0.091" x2="0.609" transform="translate(3.125 7.401)"/><line class="bq" y1="0.414" x2="0.59" transform="translate(5.451 6.736)"/><line class="cc" y1="0.715" x2="1.049" transform="translate(6.235 5.876)"/><g class="bd" transform="translate(1.867 4.411)"><path d="M586.54,425.318a1.239,1.239,0,0,0,.28-.078,1.285,1.285,0,0,0,.79-1.018,1.911,1.911,0,0,1-.275-.3,1.284,1.284,0,0,1-.795,1.044,1.24,1.24,0,0,1-.28.078c.021.093.041.189.06.285A1.108,1.108,0,0,0,586.54,425.318Z" transform="translate(-586.26 -423.92)"/><path d="M593.47,426a1.825,1.825,0,0,0,.653-.225c-.031-.166-.057-.311-.075-.412a1.872,1.872,0,0,1-2.307-.036A1.879,1.879,0,0,0,593.47,426Z" transform="translate(-590.321 -424.965)"/></g></g><g transform="translate(163.683 88.377)"><path class="cd" d="M638.919,442.52l-1.08-1.787-.427-.707a16.071,16.071,0,0,0-2.88-3.517l-2.452-2.25,16.762-3.3,2.452,2.25a16.141,16.141,0,0,1,2.88,3.517l.427.707,1.08,1.787,3.434,6.811-17.348,4.508Z" transform="translate(-632.08 -407.736)"/><g transform="translate(9.613 26.06)"><path class="q" d="M675.2,471.843l-1.9.479-2.095-5,1.893-.479Z" transform="translate(-670.689 -460.384)"/><path class="q" d="M699.471,465.686l-1.893.479-2.1-5,1.9-.482Z" transform="translate(-688.675 -455.819)"/><path class="r" d="M669.2,448.977l9.537-2.419-.717-.471a41.249,41.249,0,0,0-6.417-3.452l-1.688-.725h0a17.253,17.253,0,0,1-.306,5.762Z" transform="translate(-669.2 -441.91)"/><g transform="translate(2.413 5.342)"><path class="ce" d="M678.52,463.654l2.1,5,1.093-.277-.653-1.556c-.321-.767-.088-1.51.521-1.665a1.622,1.622,0,0,1,1.683,1.106l.653,1.556,1.093-.277-2.095-5Z" transform="translate(-678.52 -462.54)"/></g></g><path class="bn" d="M718.36,463.99l1.857,2.142-.285-2.074Z" transform="translate(-696.017 -432.212)"/><path class="bn" d="M665.62,467.94l1.665,2.429,2.25,1.857h-3.385Z" transform="translate(-656.935 -435.14)"/><path class="cf" d="M664.221,714.438l-3.423.3c-1.362-.329-3.524-.95-5.024-.554-1.717.453-1.111,1.717-1.111,1.717s.681,1.743,6.158,4.19,6.943,2.095,7.6,1.564a14.978,14.978,0,0,0,2.2-4.946C670.54,716.207,667.443,713.832,664.221,714.438Z" transform="translate(-648.738 -617.522)"/><path class="bv" d="M691.741,706.237s-.989,2.693-1.013,3.019.836,1.795,3.387,2.054a2.666,2.666,0,0,0,2.4-.733,14.675,14.675,0,0,0,1.463-3.558C698.834,704.243,691.741,706.237,691.741,706.237Z" transform="translate(-675.541 -611.213)"/><g class="bd" transform="translate(15.776 94.33)"><path d="M693.425,706.237s-.2.559-.425,1.215a5.789,5.789,0,0,0,5.451,2.727,20.561,20.561,0,0,0,1.209-3.159C700.518,704.243,693.425,706.237,693.425,706.237Z" transform="translate(-693 -705.543)"/></g><path class="cg" d="M751.666,373.008h-1.442a.6.6,0,0,1-.6-.6v-1.062a.6.6,0,0,1,.6-.6h1.442a.6.6,0,0,1,.6.6v1.062A.6.6,0,0,1,751.666,373.008Z" transform="translate(-719.182 -363.11)"/><path class="bq" d="M751.666,373.008h-1.442a.6.6,0,0,1-.6-.6v-1.062a.6.6,0,0,1,.6-.6h1.442a.6.6,0,0,1,.6.6v1.062A.6.6,0,0,1,751.666,373.008Z" transform="translate(-719.182 -363.11)"/><path class="br" d="M657.442,471.487s-.992-.3-1.036-.554a23.052,23.052,0,0,0-.676-3.211c-.194-.225-.554.044-.6.6a6.928,6.928,0,0,1-.225,1.652,4.383,4.383,0,0,1-1.02-.269l-1.08-1.787s-.629.7-.135,1.305a1.4,1.4,0,0,0-.331,1.365,1.907,1.907,0,0,0,.645,1.815,5.74,5.74,0,0,0,4.457,2.237C660.13,474.9,657.442,471.487,657.442,471.487Z" transform="translate(-647.044 -434.919)"/><path class="q" d="M667.085,480.936a2.041,2.041,0,0,0-1.577.075,2.137,2.137,0,0,0-.857,2.644c.419,1.233,2.028.9,2.028.9Z" transform="translate(-656.107 -444.675)"/><path class="br" d="M720.327,457.794a4.778,4.778,0,0,0-2.069-.544l.824,1.357-.875-.287a.381.381,0,0,0-.495.313h0a.38.38,0,0,0,.166.363l1.758,1.168Z" transform="translate(-695.534 -427.218)"/><path class="e" d="M706.789,517.411s-14.774,48.715-14.9,49.161a4.021,4.021,0,0,0,3.056,3.247,5.154,5.154,0,0,0,4.389-.829c.451-.445,8.6-21.206,11.34-27.509a72.834,72.834,0,0,1,4.268-8.724s4.648,15.791,5.858,17.767,13.054,16.747,13.756,17,2.639-.344,4.04-1.492,2.711-2.968,2.584-3.54-11.718-15.729-11.718-15.729l-4.521-17.449s-.989-8.978-3.139-10.762S706.789,517.411,706.789,517.411Z" transform="translate(-676.392 -471.717)"/><ellipse class="bu" cx="3.794" cy="1.308" rx="3.794" ry="1.308" transform="translate(57.399 94.211) rotate(-38.222)"/><path class="bv" d="M863.941,692.569l-.611-.769-1.036-1.3a8.032,8.032,0,0,0-2.59,1.437,8.268,8.268,0,0,0-1.945,2.079c.357.44.754.922,1.116,1.365.671.816,1.233,1.492,1.233,1.492l4-3.568Z" transform="translate(-799.318 -600.066)"/><g class="bd" transform="translate(58.442 90.437)"><path class="e" d="M863.315,691.789l-1.02-1.279a8.031,8.031,0,0,0-2.59,1.437,8.266,8.266,0,0,0-1.945,2.079c.181.223.142.176.334.409C859.272,692.973,861.064,691.4,863.315,691.789Z" transform="translate(-857.76 -690.51)"/></g><g transform="translate(55.294 91.583)"><path class="cf" d="M855.836,696.534c-1.165-1.717-1.766-2.209-4.048-.694s-1.818,2.631-1.766,3.915a12.707,12.707,0,0,1-.241,2.862s-.272.15-2.139.963-2.24,1.7-1.947,2.59,3.848.8,5.221.689a5.234,5.234,0,0,0,.811-.148,33.9,33.9,0,0,0,4.006-1.5c.432-.168.523-.811,1.026-1.795a14.87,14.87,0,0,0,.961-3.019,4.437,4.437,0,0,0,.122-.826C857.835,699.035,857,698.251,855.836,696.534Z" transform="translate(-845.606 -694.935)"/><path class="ch" d="M874.219,711.066c-.943.088-1.906.855-2.463,3.154s-1.077,3.985-2.507,4.441a33.911,33.911,0,0,0,4.006-1.5c.432-.168.523-.811,1.026-1.795a14.877,14.877,0,0,0,.961-3.019C875.413,711.63,875.159,710.975,874.219,711.066Z" transform="translate(-863.127 -706.882)"/></g><path class="cf" d="M746.953,511.741s-.168,3.128.21,3.543,2.056,2.667,8.313,2.667,8.561-2.644,8.432-4.047-.192-3.193-.192-3.193Z" transform="translate(-717.178 -466.834)"/><path class="bx" d="M786.785,561.46l-5.011,2.3-.844,1.725" transform="translate(-742.384 -504.442)"/><path class="ci" d="M692.678,406.1s-1.813,1.225-4.553,2.792-3.672,4.9-4.26,7.2-2.693,9.351-2.693,9.351-10.136-.246-11.948-.246a2.4,2.4,0,0,0-.588,4.6c1.826.865,8.66,2.274,13.168,3.146a4.92,4.92,0,0,0,5.552-3.133l.13-.355a51.418,51.418,0,0,0,.148,5.827c.246,1.225,3.133,3.672,9.548,3.379s7.833-3.183,7.784-4.358-.2-3.721-.2-3.721,4.309.391,4.161-4.309-1.567-14.248-3.623-16.255a20.1,20.1,0,0,0-6.316-3.918C697.917,405.755,692.678,406.1,692.678,406.1Z" transform="translate(-658.042 -389.199)"/><path class="q" d="M745.78,496.73" transform="translate(-716.336 -456.474)"/><line class="bq" y1="10.527" x2="3.478" transform="translate(29.444 29.729)"/><line class="bq" x2="1.323" y2="16.11" transform="translate(45.406 25.273)"/><path class="q" d="M669.08,482.22" transform="translate(-659.499 -445.722)"/><g transform="translate(31.474 4.877)"><path class="br" d="M757.31,371.931v-1.6s-3.473.992-3.568-2.491-.122-7.735-.122-7.735H762l.267,10.806v1.789l-4.568.7Z" transform="translate(-753.62 -360.11)"/><g class="bd" transform="translate(0.855 8.113)"><path d="M759.756,391.44s-1.639,2.691-2.836,1.624a3.267,3.267,0,0,0,2.836.489h0Z" transform="translate(-756.92 -391.44)"/></g></g><path class="e" d="M749.7,347.41a4.583,4.583,0,0,1-1.862-.508c-.748-.458-.435-1.619,0-2.079,0,0-1.991-.339-1.139-1.911s8.173-2.618,10.884-.217c2.688,2.38,1.538,5.889,1,7.388s-1.3,2.056-1.489,2.975.218,2.1-1.354,2.152-2.877.137-3.063-1.4a3.386,3.386,0,0,0-.855-2.079s1.4-1.691.508-2.514-1.836.87-1.885,2.683c0,0-.676.145-.676-.049S749.7,347.41,749.7,347.41Z" transform="translate(-716.864 -341.277)"/><path class="cf" d="M767.323,403.8c-2.779,0-3.843-.653-3.843-1.618s1.137-1.328,1.137-1.328v.58a3.864,3.864,0,0,0,2.439.539,4.368,4.368,0,0,0,2.512-.974l-.008-.58a1.4,1.4,0,0,1,1.1,1.378C770.632,402.932,769.177,403.8,767.323,403.8Z" transform="translate(-729.453 -385.104)"/><path class="bq" d="M754.57,386.536a.776.776,0,0,0,.609-.316" transform="translate(-722.85 -374.582)"/></g><path class="br" d="M592.684,443.19l-.754.111a.332.332,0,0,0-.282.381h0a.333.333,0,0,0,.381.282l.754-.111a.332.332,0,0,0,.282-.381h0A.338.338,0,0,0,592.684,443.19Z" transform="translate(-438.433 -328.42)"/><line class="bq" x1="0.339" y2="1.279" transform="translate(186.471 124.616)"/></svg>