<svg xmlns="http://www.w3.org/2000/svg" xmlns:xlink="http://www.w3.org/1999/xlink" width="448.321" height="498.752" viewBox="0 0 448.321 498.752"><defs><style>.a,.aa,.k,.l,.s,.x{fill:none;}.b,.c,.h{fill:#1e1e1e;}.b,.t,.v{opacity:0.3;}.d{fill:url(#a);}.e,.h{opacity:0.15;}.f{fill:url(#b);}.g{clip-path:url(#c);}.i{clip-path:url(#d);}.j{fill:#ffdee7;}.k{stroke:#ffdee7;stroke-width:10px;}.aa,.k,.l,.s{stroke-linecap:round;}.aa,.k,.l,.s,.x{stroke-miterlimit:10;}.l,.x{stroke:#1e1e1e;}.m{fill:url(#e);}.n{fill:#c254fe;}.o{fill:#de1250;}.p{fill:url(#f);}.q{fill:#ff8538;}.r{fill:url(#g);}.s{stroke:#ba3dfe;}.t{fill:#ba3dfe;}.u{fill:#f5f5f5;}.w{fill:url(#h);}.y,.z{opacity:0.5;}.y{fill:url(#i);}.z{fill:url(#j);}.aa{stroke:#ff8538;}</style><linearGradient id="a" x1="0.87" y1="0.5" x2="0.066" y2="0.5" gradientUnits="objectBoundingBox"><stop offset="0" stop-color="#1c48c0"/><stop offset="1" stop-color="#ba3dfe"/></linearGradient><linearGradient id="b" x1="0.21" y1="0.5" x2="0.915" y2="0.5" gradientUnits="objectBoundingBox"><stop offset="0" stop-color="#ff1d4b"/><stop offset="1" stop-color="#b93dfe"/></linearGradient><clipPath id="c"><path class="a" d="M4101.426,2595.667l-5.148,57.971c0,9.6,58.8,20.557,131.333,20.557s131.332-10.006,131.332-19.6l-5.149-58.925Z" transform="translate(-4096.278 -2595.667)"/></clipPath><clipPath id="d"><path class="a" d="M4101,2595.68l-5.149,57.971c0,9.6,58.8,20.557,131.333,20.557s131.332-10.006,131.332-19.6l-5.148-58.925Z" transform="translate(-4095.848 -2595.68)"/></clipPath><linearGradient id="e" x1="0.377" y1="0.5" x2="1.184" y2="0.5" gradientUnits="objectBoundingBox"><stop offset="0" stop-color="#f5f5f5"/><stop offset="1" stop-color="#ba3dfe"/></linearGradient><linearGradient id="f" x1="9.447" y1="-11.551" x2="9.904" y2="-12.438" gradientUnits="objectBoundingBox"><stop offset="0" stop-color="#1e1e1e"/><stop offset="1" stop-color="#b93dfe"/></linearGradient><linearGradient id="g" x1="0.608" y1="0.132" x2="0.355" y2="0.89" xlink:href="#b"/><linearGradient id="h" x1="13.29" y1="-12.022" x2="13.58" y2="-12.893" xlink:href="#f"/><linearGradient id="i" x1="37.181" y1="-39.919" x2="37.225" y2="-40.207" gradientUnits="objectBoundingBox"><stop offset="0" stop-color="#ff8538"/><stop offset="1" stop-color="#f5f5f5"/></linearGradient><linearGradient id="j" x1="37.245" y1="-40.22" x2="37.288" y2="-40.509" xlink:href="#i"/></defs><g transform="translate(-3946.099 -2027.719)"><g transform="translate(3946.674 2028.246)"><path class="b" d="M4076.594,2718.534l13.842,13.37a53.883,53.883,0,0,0,19.491,12.053l8.978,3.171,23.841,12.224s111.181,21.024,220.262-1.949c87.437-18.415,40.559-36.594,40.559-36.594l-45.923-24.323Z" transform="translate(-3993.66 -2269.919)"/><path class="c" d="M4365.422,2703.669c0,22.754-82.127,35.418-146.283,35.418-71.352,0-146.284-12.665-146.284-35.418,0-21.351,65.494-29.415,146.284-29.415S4365.422,2681.784,4365.422,2703.669Z" transform="translate(-3992.309 -2261.878)"/><path class="c" d="M4364.8,2706.233l-3.3-14.189-284.774,2.36-3.584,13.783,69.748,19.2,153.248,3.4Z" transform="translate(-3992.412 -2268.312)"/><path class="d" d="M4363.79,2679.076c0,22.753-80.014,31.731-142.517,31.731-69.515,0-142.517-8.978-142.517-31.731,0-21.351,63.807-29.415,142.517-29.415S4363.79,2657.191,4363.79,2679.076Z" transform="translate(-3994.442 -2252.984)"/><g class="e" transform="translate(286.169 402.245)"><path class="c" d="M4478.152,2682.23c0-11.711-18.278-19.311-47.328-23.846l-35.851,13.768,1.588,22.251L4428,2707.029C4459.594,2701.516,4478.152,2693.289,4478.152,2682.23Z" transform="translate(-4394.973 -2658.384)"/></g><path class="f" d="M4101.426,2595.667l-5.148,57.971c0,9.6,58.8,20.557,131.333,20.557s131.332-10.006,131.332-19.6l-5.149-58.925Z" transform="translate(-4000.779 -2233.457)"/><g transform="translate(95.499 362.21)"><g class="g"><path class="h" d="M4387.339,2569.933l9.305,133.186,106.677-1.646,1.54-120.061Z" transform="translate(-4201.542 -2586.36)"/></g></g><g transform="translate(95.224 362.218)"><g class="i"><g transform="translate(35.706)"><path class="j" d="M4186.952,2595.68H4162.2l-3.545,7.988L4151.783,2698c9.662,1.308,46.362,2.415,58.729,3.269l2.821-101.525Z" transform="translate(-4151.783 -2595.68)"/></g><path class="c" d="M4385.312,2565.77,4393.4,2696.6l115.812,2.694,1.539-120.061Z" transform="translate(-4200.534 -2584.863)"/></g></g><path class="k" d="M4167.648,2723.363c9.343,1.386,21.355,2.774,35.757,3.636" transform="translate(-4026.591 -2279.639)"/><line class="l" y1="79.758" x2="106.422" transform="translate(298.41 188.311)"/><line class="l" y1="31.917" x2="122.119" transform="translate(302.624 281.124)"/><line class="l" y1="34.731" x2="103.213" transform="translate(343.9 241.206)"/><line class="l" x1="72.58" y1="48.092" transform="translate(33.784 184.45)"/><line class="l" x1="37.276" y1="24.699" transform="translate(121.456 242.542)"/><line class="l" x1="118.875" y1="19.64" transform="translate(0 292.531)"/><line class="l" x1="16.432" y1="2.715" transform="translate(134.096 314.686)"/><line class="l" x1="22.021" y1="4.836" transform="translate(49.178 265.65)"/><path class="l" d="M4083.382,2457.5l-6.237-1.37-9.8-2.151" transform="translate(-3990.317 -2182.216)"/><line class="l" x1="5.021" y1="1.103" transform="translate(99.63 276.729)"/><line class="l" x1="8.202" y2="56.266" transform="translate(253.294 36.86)"/><line class="l" x1="4.671" y1="84.503" transform="translate(210.54)"/><line class="l" x1="3.896" y1="26.881" transform="translate(191.877 49.81)"/><path class="m" d="M4356.71,2588.824c0,6.2-56.494,11.858-126.184,11.858s-126.184-5.66-126.184-11.858,56.5-11.222,126.184-11.222S4356.71,2582.626,4356.71,2588.824Z" transform="translate(-4003.696 -2226.924)"/><ellipse class="n" cx="121.621" cy="10.432" rx="121.621" ry="10.432" transform="translate(105.21 350.411)"/><ellipse class="h" cx="69.835" cy="5.324" rx="69.835" ry="5.324" transform="translate(188.249 355.519)"/></g><g transform="translate(4041.276 2142.927)"><path class="c" d="M4276.4,2391.971s8.028,6.027,36.431-8.789c0,0-9.189,34.352-9.413,35.189-.645,2.413,3.107,4.788,10.1,6.759s11.844,2.366,13.294-.578,18.542-44.963,21.052-52.6,3.432-21.623-18.386-21.637-43.392,8.292-43.392,8.292Z" transform="translate(-4160.523 -2259.406)"/><path class="o" d="M4292.458,2349.3s4.379,7.619-1.4,8.19-11.949-8.361-11.949-8.361S4286.518,2345.994,4292.458,2349.3Z" transform="translate(-4161.504 -2258.49)"/><g transform="translate(115.877 110.463)"><path class="p" d="M4302.5,2391.153a54.246,54.246,0,0,1-14.851,2.767l-8.746,4.69-2.5,4.439s7.29,5.473,32.556-6.834l3.875-1.955,3.657-13.313C4314.058,2387.077,4307.322,2389.537,4302.5,2391.153Z" transform="translate(-4276.401 -2380.947)"/></g><g transform="translate(230.26 51.255)"><path class="q" d="M4467.757,2295.249s5.373,3.613,6.107,3.988,9.646,1.4,11.416,1.549,2.574.481,2.8,1.294-3,1.2-3,1.2,2.56.742,4.384,1.247,1.264,1.85.643,2.076c0,0,2.126.363,1.921,1.242s-.643,1.33-2.419,1.194-8.362-.652-9.322-.705-.184.91,1.5,1.779,6.015,3.048,7.309,3.74.8,2.462-1.636,1.8-7.923-2.737-10.276-3.388-3.441-.283-3.358,1.337.174,1.883.258,2.727c.144,1.413-2.253,2.869-3.308.215-.756-1.9-1.64-5.32-3.321-6.825a29.866,29.866,0,0,0-5.632-3.509C4459.765,2305.058,4467.757,2295.249,4467.757,2295.249Z" transform="translate(-4457.717 -2290.746)"/><path class="o" d="M4461.763,2288.194a33.557,33.557,0,0,1,4.847,4.342c1.019,1.326,1.538,4.734-.261,7.7-1.585,2.611-3.67,4.661-6.194,4.2a43.779,43.779,0,0,1-4.567-1.485Z" transform="translate(-4455.587 -2288.194)"/><line class="l" x1="8.606" y1="1.297" transform="translate(23.777 14.565)"/><line class="l" x1="4.421" y1="0.936" transform="translate(22.936 11.603)"/></g><g transform="translate(18.188 0)"><path class="o" d="M4203.334,2336.856s-3.455,4.435-2.109,9.2l46.615,1.867,1.225-7.174C4226.542,2332.388,4210.176,2335.19,4203.334,2336.856Z" transform="translate(-4151.411 -2253.878)"/><path class="r" d="M4343.432,2260.754c-1.362-3.214-24-19.6-45.616-21.028a132.025,132.025,0,0,0-40.409,3.978s-18.21-6.23-23.65-7.158-22.188-15.093-35.212-22.053-24.2-8.976-36.263-3.282-22.914,14.393-31.28,21.148-11.161,16.184-1.671,21.141,9.824-.154,18.539-6.418,26.322-16.072,26.322-16.072c9.751,5.324,25.924,17.919,25.924,17.919s-27.146,30.859-24.826,41.951c6.841-1.666,23.208-4.468,45.73,3.895l-1.225,7.174,12.833.515s8.512-3.823,8.747-5.829.944-9.314.944-9.314L4258.7,2268.9s30.863-7.976,39.792-6.667,33.035,12.1,36.646,12.392,6.257-2.593,7.768-5.134A9.083,9.083,0,0,0,4343.432,2260.754Z" transform="translate(-4123.365 -2207.901)"/></g><path class="o" d="M4120.458,2262.417s2.864-4.074,3.68-4.455a10.986,10.986,0,0,1,11.591,2.44c5.25,4.764,2.323,11.423-.828,13.31s-4.765,3.228-9.786,2.2S4120.458,2262.417,4120.458,2262.417Z" transform="translate(-4104.124 -2225.747)"/><path class="q" d="M4307.194,2247.937l6.984-14.283,12.487,3.73-5.471,24.6-.974,3.276-7.178-.842-8.51-6.052Z" transform="translate(-4170.697 -2217.215)"/><path class="c" d="M4118.649,2267.056s.876-3.776,5.57-3.206,8.737,2.588,9.242,7.409-1.132,7.312-9.816,7.793S4118.649,2267.056,4118.649,2267.056Z" transform="translate(-4103.19 -2228.114)"/><path class="q" d="M4119.936,2271.621s-.146,5.054-9.5,4.532-12.5-.613-12.758-1.423c-.275-.855,1.392-1.076,2.831-1.323,1.645-.281,3.664-.653,3.682-1.418.025-1.049-5.453-1.085-7.537-1.2-2.283-.128-2.485-2.2.071-2.442,2.171-.2,6.508-.16,8.833-.812s-1.681-1.958-4.04-2.646c-3.552-1.037-6.616-2.337-6.271-3.877s6.3.248,8.339.694,4.748,1.34,5.574.8-.613-3.5-1.64-5.131-4.071-5.1-2.8-6.071,3.453,1.021,5.6,3.768,6.731,6.853,8.712,6.793,4.743-2.066,6.453-2.783,2.386.8,1.867,2.043-2.264,4.76-3.155,6.716A7.631,7.631,0,0,1,4119.936,2271.621Z" transform="translate(-4094.873 -2223.507)"/><path class="c" d="M4260.677,2408.749c.192-2.641.389-17.442,1.223-33.945s2.6-31.9-4.9-39.043c-3.96-3.773-11.831-7.958-26.361,1.422-14.016-.595-25.983,5.113-30.715,7.594h0s-8.628,23.324,5.48,35.618,29.164,3.843,29.164,3.843,2.885,27.79,3.024,28.944c.247,2.053,5.3,2.81,12.175,1.382C4256.241,2413.217,4260.484,2411.389,4260.677,2408.749Z" transform="translate(-4131.92 -2252.596)"/><line class="s" x2="2.755" y2="21.64" transform="translate(99.892 110)"/><line class="s" x1="4.208" y2="14.548" transform="translate(152.308 109.228)"/><line class="l" x2="5.484" y2="4.862" transform="translate(94.937 41.027)"/><line class="l" y1="2.455" x2="4.943" transform="translate(69.013 20.653)"/><path class="o" d="M4305.653,2253.131l-.644,1.316s-2.507,12.174,8.587,15.3,2.945-13.417,2.945-13.417l6.658.809s5.749,13.842-2.88,17.967c-9.515,4.548-18.771-3.631-20.737-10.715-1.658-5.978-1.064-8.671-.572-10.36C4299.9,2250.955,4305.424,2251.1,4305.653,2253.131Z" transform="translate(-4168.513 -2223.725)"/><path class="q" d="M4339.544,2241.626s-3.2,4.91-5.371,7.786-7.951,9.559-12.725,7.778a9.212,9.212,0,0,1-5.584-5.806,20.606,20.606,0,0,1-1.077-6.531c-.149-5.986,3.62-17.059,3.62-17.059l11.473,1.321,9,7.608Z" transform="translate(-4174.405 -2215.095)"/><path class="l" d="M4325.3,2266.741a5.5,5.5,0,0,1-3.852.114,9.214,9.214,0,0,1-5.584-5.806,20.607,20.607,0,0,1-1.076-6.531" transform="translate(-4174.407 -2224.76)"/><path class="s" d="M4238.419,2340.409a63.121,63.121,0,0,0-19.593,19.066" transform="translate(-4139.701 -2255.823)"/><path class="s" d="M4299.359,2360.637" transform="translate(-4168.827 -2263.139)"/><path class="s" d="M4297.76,2415.952" transform="translate(-4168.248 -2283.144)"/><path class="s" d="M4297.76,2395.947c.13-3.374.283-6.946.468-10.6.451-8.94,1.176-17.555.553-24.709" transform="translate(-4168.248 -2263.139)"/><line class="l" x1="2.49" y2="3.25" transform="translate(134.65 79.418)"/><line class="l" y1="2.324" x2="2.078" transform="translate(153.526 58.68)"/><path class="c" d="M4314.821,2235.231l1.8-6.714s4.757,2.974,6.614-3.192c0,0,1.828,5,6,7.126a34.6,34.6,0,0,0,9.083,2.89l-2.294,3.415a10.522,10.522,0,0,0,9.087-4.6c3.236-5.031-.922-10.093-.922-10.093a2.945,2.945,0,0,0,4.09-1.475c1.369-2.859-8.953-10.785-19.968-12.009s-14.652,4.818-16.027,8.126-.72,7.944-.72,7.944l2.131,3.007S4311.854,2233.784,4314.821,2235.231Z" transform="translate(-4173.187 -2208.811)"/><path class="q" d="M4312.5,2242.052c-.825.414-1.486-.08-1.579-1.853s.2-5.459,1.816-5.891,1.64,2.22,1.64,2.22l-1.423,4.618" transform="translate(-4173.003 -2217.434)"/><path class="l" d="M4312.511,2245.417c-.825.414-1.486-.081-1.579-1.853" transform="translate(-4173.012 -2220.799)"/><g transform="translate(106.957 154.412)"><path class="t" d="M4293.681,2451.408c-.124-.619-.93-1.053-2.2-1.289l.258,3.577C4293.081,2452.908,4293.818,2452.1,4293.681,2451.408Z" transform="translate(-4272.934 -2449.912)"/><path class="t" d="M4262.443,2457.343c.127.635.974,1.076,2.3,1.308l-.385-3.582C4263.035,2455.852,4262.305,2456.655,4262.443,2457.343Z" transform="translate(-4262.426 -2451.702)"/><path class="u" d="M4282.327,2453.578l-.258-3.577a25.293,25.293,0,0,0-8.746.457,26.741,26.741,0,0,0-7.866,2.7l.385,3.582,1.287,11.966,16.02-3.751Z" transform="translate(-4263.522 -2449.795)"/><g class="v" transform="translate(1.935)"><path class="c" d="M4282.129,2450.82l-.06-.818a25.293,25.293,0,0,0-8.746.457,26.741,26.741,0,0,0-7.866,2.7l.385,3.582.2,1.9A23.815,23.815,0,0,1,4282.129,2450.82Z" transform="translate(-4265.457 -2449.795)"/></g></g><g transform="translate(142.805 158.136)"><path class="t" d="M4350.032,2462.516c-.122-.092-.253-.185-.389-.278l-1.775,3.957c.281-.011.55-.03.8-.056,1.587-.163,2.627-.622,2.809-1.362C4351.644,2464.114,4351.1,2463.323,4350.032,2462.516Z" transform="translate(-4329.175 -2458.019)"/><path class="t" d="M4320.716,2457.167c-.14.569.251,1.233,1.037,1.92l.947-3.16C4321.582,2456.148,4320.864,2456.564,4320.716,2457.167Z" transform="translate(-4319.345 -2455.737)"/><path class="u" d="M4331.186,2456.612a25.843,25.843,0,0,0-8.449-.912q-.426.045-.8.119l-.947,3.16-2.408,8.031,15.043,4.926,3.65-8.131,1.775-3.957A26.018,26.018,0,0,0,4331.186,2456.612Z" transform="translate(-4318.584 -2455.629)"/></g><path class="o" d="M4314.974,2466.46c.493-.6,5.923-.831,11.082-.5s9.071.869,10.2,3.1,2.565,4.84,2.565,4.84,12.807,11.114,13.828,13.085.66,3.482-3.479,3.738c-3.688.227-14.183-.709-22.159-1.692s-17.489-3.534-17.3-5.818S4314.035,2467.6,4314.974,2466.46Z" transform="translate(-4172.57 -2301.175)"/><path class="b" d="M4313.765,2495.179c-3-1.037-4.285-2.722,3.564-2.066s19.165,1.632,27.407,3.479,9.282,2.726,6.594,3.162-10.822-.162-18.456-.922A89.206,89.206,0,0,1,4313.765,2495.179Z" transform="translate(-4173.193 -2310.996)"/><g class="v" transform="translate(144.975 158.136)"><path class="c" d="M4339.828,2460.862l.455-1.014a30.179,30.179,0,0,0-16.317-4.148q-.426.045-.8.119l-.947,3.16-.237.792C4329.1,2457.462,4337.027,2459.852,4339.828,2460.862Z" transform="translate(-4321.984 -2455.629)"/></g><path class="w" d="M4237.485,2387.175l-.531-3c.1,2.5-.708,4.452-2.043,6.932-2.6,4.839-9.957,10.416-16.616,10.968a10.223,10.223,0,0,1-7.241-2.051,25.326,25.326,0,0,0,20.452,5.794,25.835,25.835,0,0,0,8.031-2.527Z" transform="translate(-4136.891 -2271.651)"/><path class="o" d="M4264.464,2466.082c.3-.769,5.675-2.8,10.967-4.181s9.4-2.142,11.277-.28,4.184,4.01,4.184,4.01,16.558,6.91,18.239,8.549,1.819,3.279-2.253,4.911c-3.629,1.454-14.483,4-22.821,5.664s-18.743,2.262-19.31-.1S4263.9,2467.543,4264.464,2466.082Z" transform="translate(-4156.096 -2299.26)"/><path class="b" d="M4269.973,2494.655c-3.355-.045-5.209-1.31,2.894-3.259s19.793-4.728,28.687-5.613,10.229-.346,7.674.985-10.924,3.434-18.845,5.207S4275.247,2494.727,4269.973,2494.655Z" transform="translate(-4157.165 -2308.242)"/><g transform="translate(141.72 16.465)"><line class="x" x2="2.176" y2="0.856" transform="translate(11.634 11.152)"/><line class="l" x1="4.634" y1="7.399"/><rect class="y" width="7.637" height="5.282" rx="2.318" transform="translate(5.481 5.716) rotate(22.702)"/><rect class="z" width="7.637" height="5.282" rx="2.318" transform="translate(14.642 9.405) rotate(22.702)"/><rect class="l" width="7.637" height="5.282" rx="2.318" transform="translate(5.481 5.716) rotate(22.702)"/><rect class="l" width="7.637" height="5.282" rx="2.318" transform="translate(14.642 9.405) rotate(22.702)"/><line class="aa" x1="1.284" y1="1.803" transform="translate(0.322 0.762)"/></g></g></g></svg>