<svg xmlns="http://www.w3.org/2000/svg" width="102.128" height="27.361" viewBox="0 0 102.128 27.361"><defs><style>.a{isolation:isolate;}</style></defs><g class="a"><g transform="translate(0 0)"><path d="M-39.334,102.191c-1.167,0-1.8.02-1.591.065.961.2.936.038.9,5.479-.038,5.195-.035,5.16-.683,5.259-.179.027.029.065.463.084s1.419.075,2.187.122a10.569,10.569,0,0,0,3.436-.053,5.728,5.728,0,0,0,4.325-6.892,5.289,5.289,0,0,0-2.479-3.368c-1.116-.557-1.635-.625-5.221-.68-.5-.008-.944-.014-1.333-.015Zm1.948.334a6.46,6.46,0,0,1,4.461,1.629,5.762,5.762,0,0,1,1,6.307,4.411,4.411,0,0,1-2.221,2.028c-1.285.5-3.89.423-4.446-.133a32.053,32.053,0,0,1-.137-4.9V102.7l.668-.11a5.08,5.08,0,0,1,.676-.061Z" transform="translate(66.3 -101.873)"/><path d="M47.252,129.137c-.814-.247-.843-.3-.843-1.4a2.914,2.914,0,0,1,.122-1.1c.073-.045.122.11.122.388,0,1.037.883,1.739,2.188,1.739A1.887,1.887,0,0,0,50.589,128a2.212,2.212,0,0,0,.32-1.895c-.151-.561-.573-1.027-2.456-2.715-1.246-1.117-1.679-1.854-1.679-2.856a2.486,2.486,0,0,1,2.734-2.633c1.34-.007,2.28.153,2.2.372a5.146,5.146,0,0,0-.082.993c-.012.772-.017.788-.125.33-.2-.864-.831-1.282-1.929-1.282-1.243,0-1.943.617-1.944,1.713,0,.739.4,1.327,1.579,2.3,1.972,1.63,2.457,2.219,2.679,3.253A2.88,2.88,0,0,1,50.26,128.9a3.039,3.039,0,0,1-1.725.346,7,7,0,0,1-1.283-.1Z" transform="translate(19.86 -117.802)"/><path d="M64.532,129.062c-.688-.22-.737-.356-.593-1.635.056-.5.11-.751.119-.555a2.012,2.012,0,0,0,1.062,1.654,2.839,2.839,0,0,0,2.564-.13,2.057,2.057,0,0,0,.764-1.654c0-.822-.292-1.3-1.382-2.27-2.235-1.985-2.651-2.531-2.8-3.667a2.487,2.487,0,0,1,.486-1.9c.623-.9,1.767-1.179,3.725-.913l.7.1-.008.933c-.007.755-.032.875-.132.629-.455-1.119-.86-1.369-2.132-1.311-.775.035-.918.08-1.247.4a1.886,1.886,0,0,0-.043,2.619,16.471,16.471,0,0,0,1.5,1.336c1.772,1.435,2.306,2.243,2.306,3.492a2.915,2.915,0,0,1-1.552,2.667,2.772,2.772,0,0,1-1.662.363A5.3,5.3,0,0,1,64.532,129.062Z" transform="translate(10.578 -117.798)"/><path d="M-61.832,126.91c-1.185-1.222-3.072-3.242-4.192-4.49s-2.082-2.273-2.137-2.278c-.125-.012.022,6.72.168,7.7a2.513,2.513,0,0,0,.23.842,1.674,1.674,0,0,0,.641.207c.32.052-.132.084-1.182.084-.936,0-1.51-.035-1.276-.076.7-.123.714-.284.722-5.995.005-4,.039-5.056.159-5.009.084.033,2.061,2.136,4.395,4.674s4.261,4.6,4.283,4.574-.005-1.938-.06-4.257c-.112-4.708-.068-4.5-1-4.682-.413-.081-.14-.106,1.161-.107,1.093,0,1.556.033,1.295.1a1.45,1.45,0,0,0-.547.237,37.124,37.124,0,0,0-.175,5.42c-.026,4.051-.069,5.28-.182,5.283a25.052,25.052,0,0,1-2.3-2.217Z" transform="translate(81.536 -117.795)"/><path d="M11.117,129.134c-.769-.04-1.249-.084-1.067-.1.628-.046.642-.164.642-5.411v-4.84l-.287-.232a1.4,1.4,0,0,0-.668-.259c-.259-.018,5.1-.164,5.714-.156.011,0-.019.41-.066.911-.073.77-.1.852-.179.529-.172-.711-.434-.827-1.974-.876l-1.385-.044v4.4h1.494a4.417,4.417,0,0,0,1.638-.144c.237-.237.267-.073.17.94-.083.871-.1.921-.184.511a.949.949,0,0,0-.312-.572,7.486,7.486,0,0,0-1.523-.2l-1.3-.084.04,2.309a7.482,7.482,0,0,0,.206,2.508,2.6,2.6,0,0,0,2.03.371c1.05-.1,1.315-.256,1.58-.96l.183-.486-.065.765c-.107,1.263-.078,1.244-1.8,1.216-.816-.013-2.113-.057-2.881-.1Z" transform="translate(39.356 -117.927)"/><path d="M29.272,129.134c-.769-.04-1.249-.084-1.067-.1.628-.046.642-.164.642-5.411v-4.84l-.287-.232a1.4,1.4,0,0,0-.668-.259c-.259-.018,5.1-.164,5.714-.156.011,0-.019.41-.066.911-.073.77-.1.852-.179.529-.175-.723-.431-.833-1.944-.833H30.061l-.033,2.157L30,123.059H31.4a6.87,6.87,0,0,0,1.654-.131c.135-.072.268-.109.3-.081a5.147,5.147,0,0,1-.033,1.012c-.079.908-.09.936-.2.5a1.018,1.018,0,0,0-.324-.572,7.525,7.525,0,0,0-1.506-.2L30,123.509l.007,2.053c.008,2.49.1,2.837.78,3.061a4.644,4.644,0,0,0,2.626-.2,1.934,1.934,0,0,0,.424-.682l.183-.486-.065.765c-.107,1.263-.078,1.244-1.8,1.216-.816-.013-2.113-.057-2.881-.1Z" transform="translate(29.707 -117.927)"/><path d="M82.44,129.147c-.769-.04-1.254-.084-1.078-.1.651-.049.65-.038.688-5.268l.036-4.842-.3-.3a1.2,1.2,0,0,0-.7-.331c-.22-.015.967-.056,2.637-.091s3.052-.058,3.07-.051a6.04,6.04,0,0,1-.049.891l-.082.878-.156-.453a1.34,1.34,0,0,0-.316-.553,4.872,4.872,0,0,0-2.043-.206l-.911.038-.033,2.157-.033,2.157h1.408a6.87,6.87,0,0,0,1.654-.131c.135-.072.273-.1.307-.07a4.241,4.241,0,0,1-.038,1.012c-.062.585-.116.8-.141.553-.06-.59-.384-.733-1.878-.83l-1.306-.084.007,2.053a12.932,12.932,0,0,0,.152,2.478c.2.587.778.77,2.069.658,1.1-.1,1.489-.336,1.668-1.024.086-.33.1-.24.054.411a2.837,2.837,0,0,1-.195,1c-.149.18-1.64.2-4.484.047Z" transform="translate(1.447 -117.94)"/><path d="M107.387,126.962c-1.149-1.163-3.074-3.2-4.278-4.526s-2.218-2.411-2.253-2.411c-.1,0,.1,7.414.211,7.943.128.589.238.7.814.81.288.056-.155.087-1.178.084-.9,0-1.463-.028-1.246-.054a.728.728,0,0,0,.547-.315,35.714,35.714,0,0,0,.19-5.535l.038-5.27.312.288c.171.158,2.115,2.243,4.32,4.632s4.043,4.344,4.086,4.344a61.548,61.548,0,0,0-.269-8.561,1.4,1.4,0,0,0-.686-.3c-.427-.083-.189-.107,1.094-.11,1.151,0,1.532.03,1.276.106-.677.2-.667.123-.681,5.452-.007,2.71-.056,5.065-.109,5.232-.091.288-.207.192-2.186-1.811Z" transform="translate(-8.31 -117.687)"/><path d="M-89.947,101.673c-.151.013-.435.766-1.963,4.974-.9,2.486-1.742,4.737-1.861,5a1.542,1.542,0,0,1-1.192,1.037c-.281.054.2.09,1.245.091,1.106,0,1.558-.032,1.291-.095-.487-.115-.637-.315-.547-.729a24.485,24.485,0,0,1,1.188-3.432,14.279,14.279,0,0,1,3.2.008,12.5,12.5,0,0,1,.866,1.971c.526,1.376.69,1.936.608,2.092-.1.2-.007.213,1.378.2,1.2-.01,1.4-.034,1.01-.125-.98-.229-1.068-.4-3.364-6.4-.938-2.452-1.749-4.5-1.8-4.56-.019-.02-.035-.036-.057-.034Zm-.258,2.179a40.607,40.607,0,0,1,1.526,4.124,6.221,6.221,0,0,1-1.5.091h-1.5l.68-2.126A10.628,10.628,0,0,1-90.205,103.852Z" transform="translate(95.042 -101.598)"/><path d="M-12.864,102.175c-.887.005-1.318.032-1.1.076a1.216,1.216,0,0,1,.623.3c.348.475.391,9.311.049,10.058a.6.6,0,0,1-.528.376,6.308,6.308,0,0,0,1.443.049c1,0,1.579-.032,1.28-.072-.786-.105-.848-.3-.851-2.593l0-1.914h2.069l.573.813a24.088,24.088,0,0,0,2.844,3.451c.366.261.545.293,1.743.311.9.013,1.159-.006.79-.065-1.09-.174-1.647-.66-3.634-3.171l-1.31-1.655.421-.482c1.814-2.073,1.719-4.313-.216-5.206-.494-.227-.8-.253-3.159-.273-.39,0-.733-.006-1.029,0Zm2.02.327c1.625.008,2.632,1.265,2.51,3.265a2.49,2.49,0,0,1-.866,1.986,3.189,3.189,0,0,1-1.967.266c-.134-.032-.366-.086-.516-.118-.273-.058-.273-.061-.273-2.654v-2.593l.38-.076a3.652,3.652,0,0,1,.733-.076Z" transform="translate(51.98 -101.865)"/><g transform="translate(5.286 15.98)"><path d="M174.907,101.648a5.836,5.836,0,0,0-3.36,1,6.457,6.457,0,0,0-1.929,2.487,5.762,5.762,0,0,0,3.524,7.727,8.865,8.865,0,0,0,3.9-.171,5.915,5.915,0,0,0,3.3-3.581,7.477,7.477,0,0,0,0-4.017,5.505,5.505,0,0,0-1.595-2.263A6.2,6.2,0,0,0,174.907,101.648Zm-.547.463c.174,0,.372,0,.615.011a3.212,3.212,0,0,1,1.807.4c1.984,1.085,2.972,3.78,2.392,6.516a4.072,4.072,0,0,1-2.316,3.159,2.91,2.91,0,0,1-1.64.338,6.5,6.5,0,0,1-1.215-.1,5.14,5.14,0,0,1-3.345-3.994c-.593-2.8.421-5.332,2.445-6.094a3.127,3.127,0,0,1,1.257-.235Z" transform="translate(-156.914 -101.648)"/><path d="M225.48,101.648a5.836,5.836,0,0,0-3.36,1,6.457,6.457,0,0,0-1.929,2.487,5.762,5.762,0,0,0,3.524,7.727,8.865,8.865,0,0,0,3.9-.171,5.915,5.915,0,0,0,3.3-3.581,7.478,7.478,0,0,0,0-4.017,5.506,5.506,0,0,0-1.595-2.263A6.2,6.2,0,0,0,225.48,101.648Zm-.547.463c.174,0,.372,0,.615.011a3.212,3.212,0,0,1,1.807.4c1.984,1.085,2.972,3.78,2.392,6.516a4.072,4.072,0,0,1-2.316,3.159,2.91,2.91,0,0,1-1.64.338,6.5,6.5,0,0,1-1.215-.1,5.139,5.139,0,0,1-3.345-3.994c-.593-2.8.421-5.332,2.445-6.094a3.126,3.126,0,0,1,1.257-.235Z" transform="translate(-183.793 -101.648)"/><path d="M249.626,129.321c-.031-.084-.579-1.9-1.218-4.04-1.646-5.5-1.858-6.168-2.057-6.427a1.738,1.738,0,0,0-.758-.387c-.539-.145-.443-.156,1.3-.146a7.842,7.842,0,0,1,1.558.06c-.544.083-.637.3-.476,1.119.152.771,2.063,7.691,2.148,7.776a.063.063,0,0,0,.094,0c.024-.028.761-1.988,1.639-4.356,1.512-4.079,1.748-4.637,1.9-4.483.036.036.752,2.028,1.591,4.426s1.549,4.384,1.577,4.412a.074.074,0,0,0,.1,0c.164-.164,2.377-7.843,2.377-8.247s-.045-.494-.273-.542l-.516-.11a6.8,6.8,0,0,1,1.4-.053c.96,0,1.485.036,1.265.088a2.392,2.392,0,0,0-.519.178c-.314.194-.782,1.42-2.255,5.9-.845,2.573-1.591,4.76-1.657,4.86-.1.159-.141.155-.285-.033a28.621,28.621,0,0,1-1.025-2.673l-1.489-4.258a6.541,6.541,0,0,0-.727-1.7c-.054.055-.788,1.955-1.632,4.222s-1.587,4.222-1.652,4.344c-.137.255-.335.288-.416.069Z" transform="translate(-197.363 -118.086)"/><path d="M320.661,129.268a9.069,9.069,0,0,1,1.047-1.853c3.221-4.947,5.358-8.27,5.417-8.422s-.18-.169-1.315-.165c-.759,0-1.948.052-2.642.11-1.166.1-1.289.131-1.617.46a2.669,2.669,0,0,0-.525.832c-.21.588-.22.392-.045-.86l.136-.972,3.783.041c2.081.023,3.8.056,3.818.075s-1.444,2.314-3.25,5.1-3.285,5.089-3.285,5.119c0,.084,4.905.063,5.335-.023a1.715,1.715,0,0,0,1.181-1.127c.041-.207.129-.376.2-.376.12,0,.094.244-.163,1.549l-.126.638h-3.933A25.92,25.92,0,0,1,320.661,129.268Z" transform="translate(-237.414 -118.127)"/><path d="M143.234,129.124c.654-.14.668-.254.67-5.429,0-3.61-.035-4.794-.15-4.949a1.332,1.332,0,0,0-.638-.315c-.368-.085-.045-.112,1.337-.112,1.2,0,1.679.034,1.4.1-.691.163-.735.313-.735,2.512v1.982h6.44V120.93a6.875,6.875,0,0,0-.152-2.188,1.391,1.391,0,0,0-.7-.314c-.416-.081-.111-.107,1.276-.11,1.258,0,1.71.031,1.458.106a1.148,1.148,0,0,0-.516.317,75.931,75.931,0,0,0,0,10c.118.234.279.321.7.377.3.04-.276.073-1.279.073a7.342,7.342,0,0,1-1.5-.05c.613-.094.644-.234.686-3.091l.039-2.655h-6.457v2.412c0,3.1.022,3.171,1.094,3.339a8.108,8.108,0,0,1-1.519.05c-1,0-1.66-.033-1.461-.075Z" transform="translate(-142.975 -118.086)"/><path d="M198.7,102.125c-1.375.008-2.125.049-1.849.1.914.177.873-.073.873,5.323,0,5.211-.012,5.312-.638,5.407a6.211,6.211,0,0,0,1.428.053,7.492,7.492,0,0,0,1.458-.046c-.729-.115-.831-.175-.961-.547a12.273,12.273,0,0,1-.133-2.191v-1.807l1.063.034,1.063.034.608.839a15.441,15.441,0,0,0,2.969,3.47,3.146,3.146,0,0,0,1.674.232c1.04-.012,1.115-.027.6-.114a3.208,3.208,0,0,1-1.04-.395,19.888,19.888,0,0,1-2.95-3.246l-.915-1.158.532-.6c1.467-1.667,1.633-3.417.437-4.583-.7-.682-1.434-.822-4.218-.8Zm1.42.357a2.261,2.261,0,0,1,2.066,1.314,2.762,2.762,0,0,1,.338,1.644,2.645,2.645,0,0,1-.873,2.3,3.058,3.058,0,0,1-1.739.27,4.649,4.649,0,0,0-.577-.125l-.456-.076v-5.2l.547-.084A3.922,3.922,0,0,1,200.115,102.482Z" transform="translate(-171.578 -101.901)"/><path d="M284.537,129.153c.617-.095.65-.377.649-5.522,0-4.393-.016-4.713-.225-4.945a1.133,1.133,0,0,0-.606-.3,5.428,5.428,0,0,1,1.38-.055c1.11,0,1.611.029,1.356.089a1.449,1.449,0,0,0-.547.237,31.678,31.678,0,0,0-.141,5.043c0,4.6.014,4.917.226,5.151a1.209,1.209,0,0,0,.668.3c.244.026-.35.048-1.319.049a6.776,6.776,0,0,1-1.44-.047Z" transform="translate(-218.096 -118.094)"/><path d="M298.968,128.958a.9.9,0,0,0,.547-.371c.19-.29.21-.777.21-5.125v-4.8l-1.533.018c-1.681.019-1.939.1-2.3.689-.227.373-.236.376-.225.083a6.446,6.446,0,0,1,.154-.911c.13-.556.168-.6.444-.547.166.033,2.147.061,4.4.061h4.1l-.007.911c-.007.866-.014.89-.152.487-.2-.592-.558-.719-2.265-.811l-1.478-.079.037,4.927c.034,4.6.052,4.944.262,5.176a1.209,1.209,0,0,0,.668.3c.243.026-.377.048-1.38.049a6.977,6.977,0,0,1-1.486-.049Z" transform="translate(-224.13 -117.901)"/></g></g></g></svg>