<svg xmlns="http://www.w3.org/2000/svg" width="113.662" height="31.921" viewBox="0 0 113.662 31.921"><defs><style>.a{isolation:isolate;}.b{fill:#ed6d5b;}.c{fill:none;}</style></defs><g class="a"><path d="M210.593,67.99a1.393,1.393,0,1,1,1.014-2.4,1.379,1.379,0,0,1,.422,1,1.4,1.4,0,0,1-1.435,1.4Z" transform="translate(-173.455 -54.062)"/><path d="M582.935,76.61c-1.7,0-3-1.587-3-3.617a4.13,4.13,0,0,1,4.156-4.237,3.69,3.69,0,0,1,1.476.33l.056.026V67.453c0-.771-.092-.822-.487-.916l-.12-.029-.513-.15L588,65.22v9.36c0,.839.111,1.049.622,1.2l.311.079-.094.22-3.219.531V75.029l-.072.091A3.536,3.536,0,0,1,582.935,76.61ZM584.2,69.2c-1.152,0-1.709,1.012-1.709,3.094,0,1.825.675,2.958,1.76,2.958a1.382,1.382,0,0,0,1.367-1.321V70.626A1.418,1.418,0,0,0,584.2,69.2Z" transform="translate(-480.841 -54.076)"/><path d="M205.33,93.514l.038-.214.545-.085a.4.4,0,0,0,.376-.408V88.222c0-.866-.4-1.085-.742-1.179l-.205-.051,3.325-1.082V92.8a.41.41,0,0,0,.342.417l.571.089.038.214Z" transform="translate(-170.246 -71.231)"/><path d="M422.365,97.557l.038-.214.545-.085a.4.4,0,0,0,.376-.408V88.265a1.209,1.209,0,0,0-.622-1.2l-.342-.087,3.344-1.1v1.584l.072-.091a3.412,3.412,0,0,1,2.546-1.493c1.7.005,2.862,1.751,2.862,3.78a3.946,3.946,0,0,1-4.1,4.077,3.151,3.151,0,0,1-1.34-.256l-.056-.026v3.39a.4.4,0,0,0,.378.408l.543.085.038.214Zm4.69-10.36a1.427,1.427,0,0,0-1.367,1.345v3.431a1.324,1.324,0,0,0,1.283,1.316c.781,0,1.78-.627,1.78-3.286C428.747,88.178,428.14,87.2,427.055,87.2Z" transform="translate(-350.193 -71.206)"/><path d="M290.79,75.637V71.488a1.307,1.307,0,0,0-1.341-1.3,1.28,1.28,0,0,0-1.247,1.246v4.19a.407.407,0,0,0,.342.4l.571.089.038.214h-4.138l.038-.214.422-.089a.407.407,0,0,0,.342-.4v-8.3a.952.952,0,0,0-.6-.887l-.372-.147,3.385-1.1v5.071l.073-.111a3.447,3.447,0,0,1,2.657-1.422,2.315,2.315,0,0,1,1.56.656,2.84,2.84,0,0,1,.627,1.921l.017,4.323a.407.407,0,0,0,.342.4l.571.089.038.214h-4.13l.038-.214.422-.089a.407.407,0,0,0,.342-.4" transform="translate(-236.17 -54.059)"/><path d="M147.679,65.917a.4.4,0,0,0-.376-.408l-.545-.085-.038-.214h4.7l-.041.214-.545.085a.4.4,0,0,0-.376.408v9.616c0,.453.593.384.593.384,1.7,0,2.746-.636,3.882-3.111l.186-.407h.531l-.475,3.95H146.72l.038-.214.545-.085a.4.4,0,0,0,.376-.408Z" transform="translate(-121.65 -54.068)"/><path d="M343.436,85.681a2.173,2.173,0,0,1-2.148-2.179V79.116H339.61l1.042-1.025h.354a.28.28,0,0,0,.28-.284V76.9l2.221-.736v1.934h2.132l-.976,1.025h-1.15v4.116a1.308,1.308,0,0,0,1.261,1.437,1.411,1.411,0,0,0,.624-.152l.029-.012.21.244A3.064,3.064,0,0,1,343.436,85.681Z" transform="translate(-281.582 -63.147)"/><path d="M484.364,89.052l4.571.07c.017-.142.02-.595.014-.754-.051-1.155-.854-2.459-2.954-2.459a4.027,4.027,0,0,0-4.164,4.1,3.606,3.606,0,0,0,3.622,3.759,3.478,3.478,0,0,0,3.467-2.237l-.171-.147a2.237,2.237,0,0,1-1.934,1.032c-1.48,0-2.447-1.2-2.464-3.057A2.6,2.6,0,0,1,484.364,89.052Zm0-.571c.116-1.44.613-2.095,1.4-2.095a.777.777,0,0,1,.574.236,2.438,2.438,0,0,1,.466,1.845v.039l-2.438.017Z" transform="translate(-399.501 -71.231)"/><path d="M532.9,89.052l4.571.07c.017-.142.02-.595.014-.754-.051-1.155-.854-2.459-2.954-2.459a4.028,4.028,0,0,0-4.164,4.1,3.606,3.606,0,0,0,3.622,3.759,3.478,3.478,0,0,0,3.467-2.237l-.171-.147a2.237,2.237,0,0,1-1.945,1.042c-1.48,0-2.447-1.2-2.464-3.057A2.627,2.627,0,0,1,532.9,89.052Zm0-.571c.116-1.44.613-2.095,1.4-2.095a.777.777,0,0,1,.574.236,2.438,2.438,0,0,1,.466,1.845v.039l-2.438.017Z" transform="translate(-439.747 -71.231)"/><path d="M384.652,88.82c-1.01-.388-1.77-.683-1.77-1.43a1.05,1.05,0,0,1,1.164-1.082,1.842,1.842,0,0,1,.959.27l1.278,1.856.437-.017-.085-2.507-.824.268a6.064,6.064,0,0,0-1.75-.268c-1.816,0-3.028.959-3.028,2.455,0,1.379,1.042,1.9,2.322,2.392.941.371,1.818.636,1.818,1.586a1.209,1.209,0,0,1-1.346,1.071c-.875,0-1.329-.437-1.9-1.278l-.468-.974-.449.109-.159,1.974a8.93,8.93,0,0,0,2.93.519c2.254,0,3.281-1.2,3.281-2.507C387.058,89.778,385.812,89.291,384.652,88.82Z" transform="translate(-315.775 -71.231)"/><path d="M240.1,91.332h-2.674a.646.646,0,0,1-.6-.627.637.637,0,0,1,.63-.661.731.731,0,0,1,.109,0,4.143,4.143,0,0,0,.771.067c2.03,0,3.405-1.058,3.405-2.549a1.446,1.446,0,0,0-.325-1.049l.931-.854L242.124,85l-1.592.656a4.442,4.442,0,0,0-2.076-.5c-1.979,0-3.322,1.271-3.322,2.613a2.125,2.125,0,0,0,1.611,2.131v.017c-.989.285-1.895.957-1.895,1.862a1.892,1.892,0,0,0,1.8,1.644c-1.006.386-2,.839-2,1.727,0,1.124,1.073,1.678,3.246,1.678,2.768,0,4.731-1.538,4.731-3.339C242.631,92.146,241.592,91.332,240.1,91.332ZM237.661,86.1a.875.875,0,0,1,.777-.472c.631,0,1.025.538,1.025,2.069s-.3,2.05-1.025,2.05c-.617,0-.972-.61-.972-2.069A4.044,4.044,0,0,1,237.661,86.1Zm.458,10.149a1.5,1.5,0,0,1-1.676-1.528,1.449,1.449,0,0,1,1.422-1.28h1.428c1.2.084,1.762.342,1.762,1.2,0,.952-1.575,1.611-2.927,1.611Z" transform="translate(-194.556 -70.476)"/><path class="b" d="M43.742,43.742h-5.57v-5.57L32.6,32.6V49.314H49.314Z" transform="translate(-27.03 -27.03)"/><rect class="c" width="5.57" height="5.57" transform="translate(4.113)"/><rect class="c" width="113.662" height="31.921"/></g></svg>