<svg xmlns="http://www.w3.org/2000/svg" width="40" height="40" viewBox="0 0 40 40"><defs><style>.a{fill:none;}.b{fill:#2e6edf;}</style></defs><rect class="a" width="40" height="40"/><g transform="translate(3.333 3.333)"><path class="b" d="M18.667,2A16.667,16.667,0,1,0,35.333,18.667,16.673,16.673,0,0,0,18.667,2ZM17,31.883A13.314,13.314,0,0,1,5.333,18.667a13.53,13.53,0,0,1,.35-2.983l7.983,7.983v1.667A3.343,3.343,0,0,0,17,28.667ZM28.5,27.65a3.307,3.307,0,0,0-3.167-2.317H23.667v-5A1.672,1.672,0,0,0,22,18.667H12V15.333h3.333A1.672,1.672,0,0,0,17,13.667V10.333h3.333A3.343,3.343,0,0,0,23.667,7V6.317A13.3,13.3,0,0,1,28.5,27.65Z" transform="translate(-2 -2)"/></g></svg>