<svg xmlns="http://www.w3.org/2000/svg" xmlns:xlink="http://www.w3.org/1999/xlink" width="210" height="40" viewBox="0 0 210 40"><defs><style>.a,.c{fill:#aaa;}.a{stroke:#707070;}.b{clip-path:url(#a);}.d{fill:#fff;}</style><clipPath id="a"><rect class="a" width="210" height="40" transform="translate(0 5116)"/></clipPath></defs><g class="b" transform="translate(0 -5116)"><g transform="translate(0 5118.414)"><path class="c" d="M84.052,29.055a20,20,0,0,1,2.13.222,3.775,3.775,0,0,1,.065,1.22H79.858a5.314,5.314,0,0,1,.288-1.176,15.224,15.224,0,0,1,1.864-.288V16.451H78.415c-.044.511-.2,1.488-.288,1.888a6.32,6.32,0,0,1-1.331.133V15.1H89.267V18.56a6.322,6.322,0,0,1-1.353-.156,17.371,17.371,0,0,1-.288-1.953H84.052v12.6Zm9.8.089a8.108,8.108,0,0,1,1.619.288,3.362,3.362,0,0,1,.046,1.065H90.195a3.1,3.1,0,0,1,.31-1,8.069,8.069,0,0,1,1.421-.422V15.764h-1.6a2.559,2.559,0,0,1,.4-1.176,6.079,6.079,0,0,1,2-.31,4.541,4.541,0,0,1,1.132.132v4.283c0,.909-.045,1.864-.111,2.773h.222a3.594,3.594,0,0,1,3.484-1.885c1.775,0,3.351.554,3.351,3.993,0,1.864-.045,3.706-.134,5.57a9.8,9.8,0,0,1,1.8.288,3.178,3.178,0,0,1,.066.688,2.123,2.123,0,0,1-.023.378H97.251a3.086,3.086,0,0,1,.31-1,7.542,7.542,0,0,1,1.265-.422V23.885c0-1.708-.555-2.8-2.13-2.8a4.032,4.032,0,0,0-2.84,1.421Zm11.98-3.662a3.557,3.557,0,0,0,3.617,3.839,10.165,10.165,0,0,0,3.107-.621,2.407,2.407,0,0,1-.288,1.266,7.65,7.65,0,0,1-3.506.911c-3.174,0-4.993-2.375-4.993-5.438,0-3.262,2.019-5.857,5.125-5.857,2.663,0,3.795,1.931,3.795,4.727a11.015,11.015,0,0,1-.066,1.175h-6.791Zm4.881-1.287c.157-1.531-.288-3.4-2.152-3.4-1.575,0-2.6,1.376-2.729,3.4Zm8.184,6.3a5.307,5.307,0,0,1,.266-1.176,13,13,0,0,1,1.73-.288V16.518a15.933,15.933,0,0,1-1.642-.156,4.809,4.809,0,0,1-.043-1.266H124.8a3.379,3.379,0,0,1-.045,1.244,15.449,15.449,0,0,1-1.82.177V29.055a17.007,17.007,0,0,1,1.975.222,3.468,3.468,0,0,1,.089.865,1.993,1.993,0,0,1-.023.355H118.9Zm11.159-1.353a7.836,7.836,0,0,1,1.62.288,3.363,3.363,0,0,1,.044,1.065H126.4a3.087,3.087,0,0,1,.311-1,8.045,8.045,0,0,1,1.42-.422V21.2h-1.62a2.58,2.58,0,0,1,.4-1.176,5.6,5.6,0,0,1,1.842-.31,3.851,3.851,0,0,1,1.044.132v1.62h.221a3.983,3.983,0,0,1,3.573-1.885c1.753,0,3.306.554,3.306,3.993,0,1.864-.044,3.684-.133,5.57a9.787,9.787,0,0,1,1.8.288,3.138,3.138,0,0,1,.066.688,2.184,2.184,0,0,1-.022.378h-5.259a3.07,3.07,0,0,1,.31-1,7.567,7.567,0,0,1,1.266-.422V23.886c0-1.708-.532-2.8-2.086-2.8a3.919,3.919,0,0,0-2.774,1.421v6.634Zm16.328-9.187a9.18,9.18,0,0,1,.111,1.286h-3.018v7.834a12.824,12.824,0,0,1,2.2.4,3.106,3.106,0,0,1,.044,1.021h-5.9a3.041,3.041,0,0,1,.311-1,8.047,8.047,0,0,1,1.419-.422V21.244H139.8a3.644,3.644,0,0,1,.266-1.153,10.191,10.191,0,0,1,1.486-.4v-1.2c0-3,1.819-4.194,3.906-4.194a8.35,8.35,0,0,1,2.418.378,4.137,4.137,0,0,1,.067.754,6.184,6.184,0,0,1-.31,1.952,2.966,2.966,0,0,1-1.309-.354V15.542a1.645,1.645,0,0,0-.71-.156c-1.176,0-2.131.6-2.131,2.885v1.686Zm11.315,5.1c0,3.7-1.975,5.814-5.038,5.814-3.24,0-5.059-2-5.059-5.814,0-3.4,2.175-5.481,5.059-5.481,3.017,0,5.038,1.952,5.038,5.481Zm-5.038,4.481c2.042,0,3.017-1.73,3.017-4.481,0-2.375-1.175-4.172-3.017-4.172-1.975,0-3.04,1.664-3.04,4.172C149.626,27.769,150.779,29.542,152.666,29.542ZM163,21.954a2.968,2.968,0,0,1,2.885-2.374,3.158,3.158,0,0,1,1,.177,2.9,2.9,0,0,1,.288,1.331,2.536,2.536,0,0,1-.065.6,3.044,3.044,0,0,0-1.509-.376,2.746,2.746,0,0,0-2.552,1.819v5.948a11.021,11.021,0,0,1,2.2.4,3.107,3.107,0,0,1,.044,1.021h-5.9a3.1,3.1,0,0,1,.309-1,8.091,8.091,0,0,1,1.422-.422V21.2H159.5a2.587,2.587,0,0,1,.4-1.176,5.824,5.824,0,0,1,1.842-.31,3.842,3.842,0,0,1,1.043.132v2.108Zm9.161,7.19a7.837,7.837,0,0,1,1.619.288,3.38,3.38,0,0,1,.045,1.065H168.5a3.056,3.056,0,0,1,.311-1,8.044,8.044,0,0,1,1.42-.422V21.2h-1.62a2.566,2.566,0,0,1,.4-1.176,5.609,5.609,0,0,1,1.842-.31,3.853,3.853,0,0,1,1.043.132v1.62h.222a3.915,3.915,0,0,1,3.507-1.885c1.353,0,2.529.377,2.951,2.019h.11a3.889,3.889,0,0,1,3.573-2.019c1.731,0,3.262.554,3.262,3.993,0,1.886-.045,3.749-.134,5.57a9.827,9.827,0,0,1,1.8.288,3.178,3.178,0,0,1,.066.688,2.124,2.124,0,0,1-.023.378h-5.259a3.068,3.068,0,0,1,.309-1,7.556,7.556,0,0,1,1.266-.422V23.886c0-1.708-.51-2.8-2.041-2.8a3.846,3.846,0,0,0-2.708,1.421v6.613a7.737,7.737,0,0,1,1.62.31,3.38,3.38,0,0,1,.043,1.065h-5.126a3.07,3.07,0,0,1,.31-1,7.529,7.529,0,0,1,1.266-.422V23.886c0-1.708-.51-2.8-2.041-2.8a3.807,3.807,0,0,0-2.707,1.421v6.634Zm22.738.044a3.409,3.409,0,0,1-3.106,1.688,2.9,2.9,0,0,1-3.151-2.974c0-2.286,1.93-3.462,4.128-3.462a5.508,5.508,0,0,1,2.064.379v-1.2c0-1.642-.71-2.485-2.107-2.485a7.049,7.049,0,0,0-3.241,1.086,1.935,1.935,0,0,1-.11-.754,2.492,2.492,0,0,1,.243-1.109,9.077,9.077,0,0,1,3.618-.776c2.419,0,3.484,1.176,3.484,4.215V28.1a2,2,0,0,0,.288,1.154,6.9,6.9,0,0,0,1.531-.266,1.006,1.006,0,0,1,.022.244,2.362,2.362,0,0,1-.221,1,5.637,5.637,0,0,1-2.4.643,2.364,2.364,0,0,1-.931-1.688H194.9Zm-.044-3.4a7.247,7.247,0,0,0-1.554-.177c-1.73,0-2.706.776-2.706,1.952a1.791,1.791,0,0,0,2.019,1.775,2.785,2.785,0,0,0,2.241-1.087V25.793Zm6.454-8.542a3.936,3.936,0,0,1,1.488-.356v3.063h3.216a5.616,5.616,0,0,1,.066,1.286H202.8v6.1c0,1.442.2,2.063,1.442,2.063a8.743,8.743,0,0,0,2.063-.288,1.447,1.447,0,0,1,.023.288,2,2,0,0,1-.222.866,7.145,7.145,0,0,1-2.73.6c-1.707,0-2.573-.933-2.573-3.219,0-1.309.023-4.172.112-6.413h-1.533a3.484,3.484,0,0,1,.268-1.153,7.109,7.109,0,0,1,1.286-.4Zm6.7,3.95a2.572,2.572,0,0,1,.4-1.176,6.517,6.517,0,0,1,2-.31,4.729,4.729,0,0,1,1.155.132v9.276a10.2,10.2,0,0,1,1.753.31,3.181,3.181,0,0,1,.066.688,2.182,2.182,0,0,1-.022.378H207.9a3.1,3.1,0,0,1,.31-1,8.077,8.077,0,0,1,1.42-.422V21.2ZM211.9,16.03a1.184,1.184,0,0,1-1.243,1.309,1.15,1.15,0,0,1-1.265-1.309,1.188,1.188,0,0,1,1.265-1.22A1.147,1.147,0,0,1,211.9,16.03Zm12.691,9.032c0,3.7-1.975,5.814-5.038,5.814-3.24,0-5.059-2-5.059-5.814,0-3.4,2.175-5.481,5.059-5.481,3.017,0,5.038,1.952,5.038,5.481Zm-5.038,4.481c2.041,0,3.018-1.73,3.018-4.481,0-2.375-1.175-4.172-3.018-4.172-1.975,0-3.04,1.664-3.04,4.172C216.51,27.769,217.663,29.542,219.55,29.542Zm10.6-.4a7.83,7.83,0,0,1,1.619.288,3.4,3.4,0,0,1,.045,1.065h-5.325a3.083,3.083,0,0,1,.31-1,8.066,8.066,0,0,1,1.421-.422V21.2H226.6a2.56,2.56,0,0,1,.4-1.176,5.593,5.593,0,0,1,1.842-.31,3.841,3.841,0,0,1,1.042.132v1.62h.222a3.987,3.987,0,0,1,3.573-1.885c1.753,0,3.306.554,3.306,3.993,0,1.864-.045,3.684-.132,5.57a9.8,9.8,0,0,1,1.8.288,3.219,3.219,0,0,1,.066.688,2.123,2.123,0,0,1-.023.378h-5.259a3.088,3.088,0,0,1,.312-1,7.477,7.477,0,0,1,1.264-.422V23.886c0-1.708-.532-2.8-2.085-2.8a3.918,3.918,0,0,0-2.774,1.421Z" transform="translate(-28.636 -5.324)"/><path class="c" d="M35.17,17.588A17.585,17.585,0,1,0,17.584,35.172,17.587,17.587,0,0,0,35.17,17.588Z"/><path class="d" d="M29.955,28.594l-4.019-.95V19.293l4.017-.952a.932.932,0,0,0,.719-.906V15.777H17.692v1.658a.932.932,0,0,0,.717.906l4.016.952v8.351l-4.015.95a.934.934,0,0,0-.719.908v1.657H30.673V29.5a.933.933,0,0,0-.717-.908Z" transform="translate(-6.597 -5.883)"/></g></g></svg>