<svg xmlns="http://www.w3.org/2000/svg" xmlns:xlink="http://www.w3.org/1999/xlink" width="156.25" height="40" viewBox="0 0 156.25 40"><defs><style>.a,.c{fill:#aaa;}.a{stroke:#707070;}.b{clip-path:url(#a);}</style><clipPath id="a"><rect class="a" width="156.25" height="40" transform="translate(0 5116)"/></clipPath></defs><g class="b" transform="translate(0 -5116)"><g transform="translate(0 5120.638)"><path class="c" d="M.23,20.857l1.98-.316V2.266L0,1.98.115,0H13.943L13.6,5.537l-2.754-.086L10.672,1.98H6.4v8.234H8.262l.43-1.893,1.922.057v5.68H8.693l-.459-1.951H6.369v8.721h4.3l.4-3.787,2.9.086.23,5.766H.143Z"/><path class="c" d="M53.572,39.4l.086-1.693,1.549-.316V25.854L53.4,25.682V23.961l4.533-.66.344.975v.66a5.447,5.447,0,0,1,4.1-1.836c2.467,0,4.3,1.492,4.3,4.447v9.812l1.635.316-.086,1.693H62.839V28.407c0-1.578-.574-2.467-2.008-2.467a3.111,3.111,0,0,0-1.2.23,5.566,5.566,0,0,0-.66.746v10.5l1.635.316-.115,1.693H53.572Z" transform="translate(-38.08 -16.473)"/><path class="c" d="M355.6,39.4l.057-1.693,1.549-.316V25.854l-1.807-.172V23.961l4.533-.66.344.975v.66a5.448,5.448,0,0,1,4.1-1.836c2.467,0,4.3,1.492,4.3,4.447v9.812l1.635.316-.086,1.693h-5.365V28.407c0-1.578-.574-2.467-2.008-2.467a3.11,3.11,0,0,0-1.2.23,5.567,5.567,0,0,0-.66.746v10.5l1.635.316-.115,1.693H355.6Z" transform="translate(-253.504 -16.473)"/><path class="c" d="M113.45,32.091a8.784,8.784,0,0,1-3.213.545c-1.922,0-3.7-.861-3.7-3.672v-10.1l-1.836-.287.086-2.008,2.066-.086.889-3.07,2.639-.115v3.3h2.84l-.2,2.008-2.611.287v10.1a1.237,1.237,0,0,0,1.32,1.377h1.549Z" transform="translate(-74.681 -9.484)"/><path class="c" d="M509,39.823l.057-1.664,1.463-.344V26.282L508.8,26.11V24.389l4.7-.66.316,1.119v.373a8.12,8.12,0,0,1,4.906-1.521l.689.6-.488,4.361-2.582-.086-.258-2.324a3.755,3.755,0,0,0-1.664.6V37.844l1.635.344-.115,1.664H509Z" transform="translate(-362.921 -16.901)"/><path class="c" d="M273.572,39.823l.086-1.664,1.463-.344V26.282L273.4,26.11V24.389l4.7-.66.316,1.119v.373a8.121,8.121,0,0,1,4.906-1.521l.689.6-.545,4.361-2.582-.086-.258-2.324a3.756,3.756,0,0,0-1.664.6V37.844l1.635.344-.115,1.664h-6.914Z" transform="translate(-195.013 -16.901)"/><path class="c" d="M138.772,39.823l.086-1.664,1.463-.344V26.282L138.6,26.11V24.389l4.7-.66.316,1.119v.373A8.1,8.1,0,0,1,148.5,23.7l.689.6-.488,4.361-2.582-.086-.258-2.324a3.756,3.756,0,0,0-1.664.6V37.844l1.635.344-.115,1.664h-6.943Z" transform="translate(-98.862 -16.901)"/><path class="c" d="M180.945,32.3c0,2.754,1.2,4.877,3.586,4.877a7.32,7.32,0,0,0,3.357-.8l.66,1.521a7.99,7.99,0,0,1-5.049,1.664c-4.189,0-6.6-3.615-6.6-8.262,0-3.959,1.75-8.291,6.541-8.291,4.189,0,5.766,3.873,5.766,8.176l-.4,1.033Zm-.057-1.836,4.82-.23c-.086-1.922-.488-4.963-2.381-4.963a2.673,2.673,0,0,0-1.348.373A11.543,11.543,0,0,0,180.888,30.459Z" transform="translate(-126.181 -16.402)"/><path class="c" d="M413.345,32.3c0,2.754,1.2,4.877,3.586,4.877a7.321,7.321,0,0,0,3.357-.8l.66,1.521a7.99,7.99,0,0,1-5.049,1.664c-4.189,0-6.6-3.615-6.6-8.262,0-3.959,1.75-8.291,6.541-8.291,4.188,0,5.766,3.873,5.766,8.176l-.4,1.033Zm-.057-1.836,4.82-.23c-.086-1.922-.488-4.963-2.381-4.963a2.674,2.674,0,0,0-1.348.373A11.544,11.544,0,0,0,413.288,30.459Z" transform="translate(-291.95 -16.402)"/><path class="c" d="M315.745,32.3c0,2.754,1.2,4.877,3.586,4.877a7.32,7.32,0,0,0,3.357-.8l.66,1.521a7.989,7.989,0,0,1-5.049,1.664c-4.189,0-6.6-3.615-6.6-8.262,0-3.959,1.75-8.291,6.541-8.291,4.189,0,5.766,3.873,5.766,8.176l-.4,1.033Zm-.057-1.836,4.82-.23c-.086-1.922-.488-4.963-2.381-4.963a2.674,2.674,0,0,0-1.348.373A11.115,11.115,0,0,0,315.688,30.459Z" transform="translate(-222.332 -16.402)"/><path class="c" d="M463.686,39.538l-.4-1.377a4.979,4.979,0,0,1-3.7,1.607c-2.467,0-4.676-1.234-4.676-4.648V25.6l-1.807-.172V23.9l5.221-.6.4,1.377v9.984c0,1.75.717,2.668,2.123,2.668a4.073,4.073,0,0,0,1.377-.23,5.408,5.408,0,0,0,.717-.889V25.6l-1.865-.172V23.9l5.279-.6.4,1.377V37.53l1.635.316-.2,1.693Z" transform="translate(-323.201 -16.615)"/><path class="c" d="M228.131,37.33a4.089,4.089,0,0,1-2.008-.43V26.772a8.348,8.348,0,0,1,.746-.947,4.064,4.064,0,0,1,1.434-.23c2.152,0,2.525,2.18,2.525,6.082,0,3.758-.574,4.791-.717,5.221A4.456,4.456,0,0,1,228.131,37.33Zm6.426-6.34c0-4.848-1.434-7.889-5.021-7.889a4.75,4.75,0,0,0-3.959,1.951v-.545l-.4-1.377-4.676.66v1.664l1.807.23V45.248l-1.549.316-.086,1.635h6.914l.115-1.635-1.635-.316v-6.2a5.365,5.365,0,0,0,2.582.6C234.5,39.653,234.557,33.715,234.557,30.989Z" transform="translate(-157.281 -16.473)"/></g></g></svg>