<svg xmlns="http://www.w3.org/2000/svg" xmlns:xlink="http://www.w3.org/1999/xlink" width="222.642" height="40" viewBox="0 0 222.642 40"><defs><style>.a,.c{fill:#aaa;}.a{stroke:#707070;}.b{clip-path:url(#a);}</style><clipPath id="a"><rect class="a" width="222.642" height="40" transform="translate(572 5462)"/></clipPath></defs><g class="b" transform="translate(-572 -5462)"><path class="c" d="M195.849,4.151c0-2.189.679-2.943,1.811-2.943s2.038.453,3.094,2.943l6.415,14.566v9.208c0,2.189-.906,2.792-3.4,3.094v.6h11.849v-.6c-2.566-.3-3.4-.981-3.4-3.094V18.717l6.189-14.038c1.208-2.717,2.415-3.321,4.226-3.623v-.6h-8.679v.6c2.943.3,4,1.132,3.17,3.094L211.7,16.6,206.113,3.849c-.755-1.736-.3-2.264,2.943-2.717v-.6H190.415v.6c2.943.453,3.849.981,3.849,3.094V21.283L180.6.528h-6.717v.6c2.189.3,2.868.981,2.868,3.094V28c0,2.189-.6,2.943-1.359,2.943-.679,0-1.057-.3-2.038-2.943L163.245.377h-.6l-9.736,26.415c-1.057,2.943-2.717,3.925-4.377,4.3v.6h8.906v-.6c-3.094-.3-4.075-1.509-3.4-3.472l2.189-6.038h9.208l2.113,5.66c.906,2.566.377,3.321-2.264,3.774v.6h16.906v-.6c-2.943-.453-3.849-.981-3.849-3.094V6.642L194.868,31.7h.981V4.151ZM76.679,16c0-9.66,4.6-14.717,9.962-14.717,3.17,0,5.208.679,6.415,1.962A11.335,11.335,0,0,1,95.4,7.472H96V.981A44.989,44.989,0,0,0,87.321,0C79.245,0,70.868,5.208,70.868,16s8.377,16,15.925,16a31.219,31.219,0,0,0,9.057-1.358l.906-6.113-.528-.151a16.165,16.165,0,0,1-2.415,3.4,10.3,10.3,0,0,1-7.245,3.019C81.434,30.717,76.679,25.811,76.679,16Zm66.943.906a16,16,0,0,1-2.491-.226V1.585h2.491c4.151,0,5.962,2.189,5.962,7.623C149.585,14.717,147.7,16.906,143.623,16.906ZM46.642.453V7.925h.6c.906-4.755,2.792-6.264,5.962-6.264h1.509V27.925c0,2.189-.906,2.792-3.4,3.094v.6H63.17v-.6c-2.566-.3-3.4-.981-3.4-3.094V1.585h1.509c3.17,0,5.057,1.509,5.962,6.264h.6V.377H46.642ZM37.208,32c5.132,0,10.566-2.943,10.566-8.981a9.267,9.267,0,0,0-5.208-8.3l-5.887-3.245c-3.094-1.736-4-3.321-4-5.585,0-2.566,1.887-4.6,5.434-4.6a5.607,5.607,0,0,1,4.075,1.434A12.056,12.056,0,0,1,44.83,7.849h.528V.981A24.332,24.332,0,0,0,38.491,0c-5.057,0-8.83,3.17-8.83,8.528a9.655,9.655,0,0,0,4.981,8.3l5.434,3.019c3.094,1.736,4.075,3.4,4.075,5.887,0,2.943-3.019,5.057-6.34,5.057a7.286,7.286,0,0,1-5.283-2.038,10.451,10.451,0,0,1-2.34-3.774h3.547v-.6c-.981-.226-1.585-.377-2.415-2.34L24.377,5.509h-.6L16.981,21.66c-.906,2.189-1.509,2.566-2.566,2.717v.6h6.038v-.6c-2.189-.226-2.792-1.283-2.264-2.642l1.057-2.566h6.113l1.358,3.17c.6,1.434-.3,1.811-2.491,1.962v.6h4.83v5.962A32.2,32.2,0,0,0,37.208,32Zm76.679-.3,8.981-24.981L123.547,28c.075,2.113-.755,2.717-3.321,3.019v.6h24.755v-.6c-2.943-.453-3.849-.981-3.849-3.094V17.887a18.769,18.769,0,0,0,2.717.226c5.962,0,11.094-2.189,11.094-8.83S149.811.453,143.849.453H133.208v.6c2.189.3,2.868.981,2.868,3.094V27.925c0,2.189-.906,3.094-3.4,3.094H132.6c-2.642,0-3.774-.981-3.849-3.019l-.906-23.774c-.075-2.189.679-2.868,3.019-3.17v-.6h-7.321l-8,22.415-8-22.415H99.7v.6c2.34.3,3.094,1.057,3.019,3.17l-.83,22.792a3.832,3.832,0,0,1-3.472,4v.6h8.3v-.6a3.522,3.522,0,0,1-3.245-4l.679-20.755,9.132,25.358.6.075ZM89.811,25.132c4,0,9.132-3.547,9.132-9.132,0-5.509-5.057-9.132-9.132-9.132-4,0-9.132,3.547-9.132,9.132C80.679,21.509,85.736,25.132,89.811,25.132Zm0-16.981c2.566,0,4.3,2.113,4.3,7.849,0,5.811-1.811,7.849-4.3,7.849-2.566,0-4.3-2.113-4.3-7.849C85.509,10.189,87.245,8.151,89.811,8.151ZM165.057,20.3h-8.377L160.83,8.83ZM24.981,17.962H19.849L22.415,11.7ZM15.17,19.547h.6V10.189h-.6c-.981,3.321-1.962,4.075-3.774,4.075H7.925V1.585h5.509c3.17,0,5.057,1.509,5.962,6.264H20V.377H0v.6c2.189.3,2.868.981,2.868,3.094V27.849c0,2.189-.679,2.792-2.868,3.094v.6H11.774v-.6c-2.943-.453-3.849-.981-3.849-3.094V15.4H11.4C13.132,15.472,14.189,16.226,15.17,19.547Z" transform="translate(572 5466)"/></g></svg>