<svg xmlns="http://www.w3.org/2000/svg" width="80" height="80" viewBox="0 0 80 80"><defs><style>.a{fill:none;}.b{fill:#ccc;}</style></defs><rect class="a" width="80" height="80"/><path class="b" d="M48.667,8.667a6.667,6.667,0,1,1,6.667,6.667A6.644,6.644,0,0,1,48.667,8.667ZM62,65.333V48.667h3.7a3.355,3.355,0,0,0,3.167-4.4l-7-21.033a6.7,6.7,0,0,0-6.333-4.567h-.4A6.666,6.666,0,0,0,48.8,23.233l-2.867,8.6A11.621,11.621,0,0,1,52,42V68.667h6.667A3.343,3.343,0,0,0,62,65.333ZM37,33.667a5,5,0,1,0-5-5A4.993,4.993,0,0,0,37,33.667ZM13.667,15.333A6.667,6.667,0,1,0,7,8.667,6.644,6.644,0,0,0,13.667,15.333Zm6.667,50v-20H22A3.343,3.343,0,0,0,25.333,42V25.333a6.686,6.686,0,0,0-6.667-6.667h-10A6.686,6.686,0,0,0,2,25.333V42a3.343,3.343,0,0,0,3.333,3.333H7v20a3.343,3.343,0,0,0,3.333,3.333H17A3.343,3.343,0,0,0,20.333,65.333ZM28.667,42V52A3.343,3.343,0,0,0,32,55.333h0v10a3.343,3.343,0,0,0,3.333,3.333h3.333A3.343,3.343,0,0,0,42,65.333v-10h0A3.343,3.343,0,0,0,45.333,52V42a5.036,5.036,0,0,0-5-5H33.667a5.036,5.036,0,0,0-5,5" transform="translate(4.667 4.667)"/></svg>