<svg xmlns="http://www.w3.org/2000/svg" width="80" height="80" viewBox="0 0 80 80"><defs><style>.a{fill:none;}.b{fill:#ccc;}</style></defs><rect class="a" width="80" height="80"/><g transform="translate(6.667 6.667)"><path class="b" d="M35.333,2A33.333,33.333,0,1,0,68.667,35.333,33.345,33.345,0,0,0,35.333,2ZM32,61.767A26.628,26.628,0,0,1,8.667,35.333a27.06,27.06,0,0,1,.7-5.967L25.333,45.333v3.333A6.686,6.686,0,0,0,32,55.333ZM55,53.3a6.613,6.613,0,0,0-6.333-4.633H45.333v-10A3.343,3.343,0,0,0,42,35.333H22V28.667h6.667A3.343,3.343,0,0,0,32,25.333V18.667h6.667A6.686,6.686,0,0,0,45.333,12V10.633A26.607,26.607,0,0,1,55,53.3Z" transform="translate(-2 -2)"/></g></svg>