<svg xmlns="http://www.w3.org/2000/svg" xmlns:xlink="http://www.w3.org/1999/xlink" width="40" height="40" viewBox="0 0 40 40"><defs><style>.a{fill:none;}.b{clip-path:url(#a);}.c{fill:#2e6edf;}</style><clipPath id="a"><rect class="a" width="40" height="40"/></clipPath></defs><g class="b"><rect class="a" width="40" height="40"/><path class="c" d="M20,21.25a17.685,17.685,0,0,1,7.067,1.5A4.974,4.974,0,0,1,30,27.3v1.033A1.672,1.672,0,0,1,28.333,30H11.667A1.672,1.672,0,0,1,10,28.333V27.317a4.939,4.939,0,0,1,2.933-4.55A17.4,17.4,0,0,1,20,21.25Zm-13.333.417a3.333,3.333,0,1,0-3.333-3.333A3.343,3.343,0,0,0,6.667,21.667ZM8.55,23.5a11.638,11.638,0,0,0-1.883-.167,11.584,11.584,0,0,0-4.633.967A3.351,3.351,0,0,0,0,27.383v.95A1.672,1.672,0,0,0,1.667,30H7.5V27.317A7.5,7.5,0,0,1,8.55,23.5Zm24.783-1.833A3.333,3.333,0,1,0,30,18.333,3.343,3.343,0,0,0,33.333,21.667ZM40,27.383A3.351,3.351,0,0,0,37.967,24.3a11.33,11.33,0,0,0-6.517-.8,7.5,7.5,0,0,1,1.05,3.817V30h5.833A1.672,1.672,0,0,0,40,28.333ZM20,10a5,5,0,1,1-5,5A4.993,4.993,0,0,1,20,10Z"/></g></svg>