<svg xmlns="http://www.w3.org/2000/svg" width="150.581" height="15.047" viewBox="0 0 150.581 15.047"><defs><style>.a{isolation:isolate;}.b{fill:#f8130e;}.c{fill:#9aefdf;}.d{fill:#44c1c1;}.e{fill:#072735;}.f{fill:#121212;}</style></defs><g class="a"><g transform="translate(0 0)"><rect class="b" width="15.047" height="3.762"/><rect class="c" width="15.047" height="3.762" transform="translate(0 3.762)"/><rect class="d" width="15.047" height="3.762" transform="translate(0 7.523)"/><rect class="e" width="15.047" height="3.762" transform="translate(0 11.285)"/></g><g transform="translate(27.13 3.192)"><path class="f" d="M-418.832,504.44v2.508h3.42v1.14h-3.42v3.648H-420.2V503.3h5.7v1.14h-4.332Z" transform="translate(420.2 -503.186)"/><path class="f" d="M-407.912,503.3a2.351,2.351,0,0,1,1.482.342c.456.456.8,1.026.8,3.876s-.342,3.42-.8,3.876a2.139,2.139,0,0,1-1.482.342h-2.508a2.35,2.35,0,0,1-1.482-.342c-.456-.456-.8-1.026-.8-3.876s.342-3.42.8-3.876a2.138,2.138,0,0,1,1.482-.342Zm-3.078,7.181c.114.114.228.114.684.114h2.28c.456,0,.57,0,.684-.114s.342-.456.342-2.964c0-2.394-.228-2.85-.342-2.964s-.228-.114-.684-.114h-2.28c-.456,0-.57,0-.684.114s-.342.456-.342,2.964C-411.218,509.911-411.1,510.367-410.99,510.481Z" transform="translate(421.249 -503.186)"/><path class="f" d="M-396.447,508.2c0,2.166-.228,2.508-.684,2.964a3.389,3.389,0,0,1-2.166.456h-1.254a3.389,3.389,0,0,1-2.166-.456c-.456-.456-.684-.912-.684-2.964v-4.9h1.368v5.244c0,1.482.114,1.71.342,1.824.114.114.342.228,1.368.228h.8c.912,0,1.14,0,1.368-.228s.228-.228.228-1.824V503.3h1.368v4.9Z" transform="translate(422.55 -503.186)"/><path class="f" d="M-386.819,511.749H-388.3a.813.813,0,0,1-.684-.342l-3.42-6.269h-.228v6.611H-394v-8.435h1.6a.813.813,0,0,1,.684.342l3.306,5.928h.228V503.2h1.368Z" transform="translate(423.865 -503.2)"/><path class="f" d="M-380.424,503.3a2.907,2.907,0,0,1,2.166.57c.57.456.912,1.6.912,3.648s-.228,3.078-.912,3.648c-.456.456-1.026.57-2.166.57H-384.3V503.3h3.876Zm1.026,1.368c-.228-.228-.57-.228-1.026-.228h-2.394V510.6h2.394c.57,0,.8,0,1.026-.228.342-.342.456-.912.456-2.736C-378.828,505.58-379.056,505.01-379.4,504.668Z" transform="translate(425.222 -503.186)"/><path class="f" d="M-369.159,511.735H-375.2V503.3h6.041v1.14h-4.674v2.28h3.876v1.14h-3.876v2.622h4.674Z" transform="translate(426.496 -503.186)"/><path class="f" d="M-362.012,508.416c-.114-.114-.456-.114-.912-.114h-2.508v3.534H-366.8V503.4h4.788a1.834,1.834,0,0,1,1.254.342c.342.342.57.8.57,2.052,0,1.482-.456,1.938-1.482,2.052h0c.912.114,1.254.342,1.368,1.6,0,1.14.114,1.938.114,2.394h-1.368a13.129,13.129,0,0,1-.114-2.28C-361.784,508.758-361.9,508.53-362.012,508.416Zm-.456-1.254a2.32,2.32,0,0,0,.57-.114c.114-.114.228-.342.228-1.254s-.114-1.14-.228-1.254-.228-.114-.57-.114h-2.964v2.736h2.964Z" transform="translate(427.671 -503.172)"/><path class="f" d="M-351.845,511.379a1.98,1.98,0,0,1-1.368.342h-2.964a1.981,1.981,0,0,1-1.368-.342c-.342-.342-.456-.8-.456-2.28h1.368a6.275,6.275,0,0,0,.114,1.368c.114.114.228.114.57.114h2.508c.342,0,.456,0,.57-.114s.114-.456.114-1.14c0-.57,0-.8-.114-.912s-.228-.114-.57-.114l-2.736-.228a2.2,2.2,0,0,1-1.254-.456c-.342-.342-.456-.684-.456-1.824s.114-1.6.57-2.052a1.98,1.98,0,0,1,1.368-.342h2.736a1.98,1.98,0,0,1,1.368.342c.342.342.456.684.456,2.28h-1.368a3.619,3.619,0,0,0-.114-1.254c-.114-.114-.228-.114-.57-.114h-2.28c-.342,0-.456,0-.57.114s-.114.456-.114,1.14c0,.57,0,.8.114.912s.228.114.57.114l2.736.228a1.42,1.42,0,0,1,1.254.456c.342.342.456.684.456,1.938A2.211,2.211,0,0,1-351.845,511.379Z" transform="translate(428.902 -503.172)"/><path class="f" d="M-343.532,504.44v2.508h3.42v1.14h-3.42v3.648H-344.9V503.3h5.7v1.14h-4.332Z" transform="translate(430.735 -503.186)"/><path class="f" d="M-330.147,508.2c0,2.166-.228,2.508-.684,2.964a3.389,3.389,0,0,1-2.166.456h-1.254a3.389,3.389,0,0,1-2.166-.456c-.456-.456-.684-.912-.684-2.964v-4.9h1.368v5.244c0,1.482.114,1.71.342,1.824.114.114.342.228,1.368.228h.8c.912,0,1.14,0,1.368-.228s.228-.228.228-1.824V503.3h1.368v4.9Z" transform="translate(431.826 -503.186)"/><path class="f" d="M-320.519,511.749H-322a.812.812,0,0,1-.684-.342l-3.42-6.269h-.228v6.611H-327.7v-8.435h1.6a.813.813,0,0,1,.684.342l3.306,5.928h.228V503.2h1.368Z" transform="translate(433.141 -503.2)"/><path class="f" d="M-314.124,503.3a2.907,2.907,0,0,1,2.166.57c.57.456.912,1.6.912,3.648s-.228,3.078-.912,3.648c-.456.456-1.026.57-2.166.57H-318V503.3h3.876Zm1.026,1.368c-.228-.228-.57-.228-1.026-.228h-2.394V510.6h2.394c.57,0,.8,0,1.026-.228.342-.342.456-.912.456-2.736C-312.642,505.58-312.756,505.01-313.1,504.668Z" transform="translate(434.498 -503.186)"/></g></g></svg>