<svg xmlns="http://www.w3.org/2000/svg" width="76.202" height="23.966" viewBox="0 0 76.202 23.966"><defs><style>.a{isolation:isolate;}.b{fill:#444;}</style></defs><g class="a"><path class="b" d="M179.572,389.357v2.564H185.7a5.436,5.436,0,0,1-1.4,3.232,6.275,6.275,0,0,1-4.732,1.876,6.818,6.818,0,0,1,0-13.635,6.518,6.518,0,0,1,4.618,1.835l1.8-1.8a8.853,8.853,0,0,0-6.421-2.606,9.383,9.383,0,1,0,0,18.764,8.6,8.6,0,0,0,6.546-2.627,8.485,8.485,0,0,0,2.221-5.994,8.244,8.244,0,0,0-.136-1.605Z" transform="translate(-170.054 -380.819)"/><path class="b" d="M242.664,402.427a6.057,6.057,0,1,0,6.077,6.057A5.968,5.968,0,0,0,242.664,402.427Zm0,9.726a3.679,3.679,0,1,1,3.419-3.669A3.5,3.5,0,0,1,242.664,412.153Z" transform="translate(-216.718 -395.974)"/><path class="b" d="M335.7,403.782H335.6a4.2,4.2,0,0,0-3.19-1.355,6.07,6.07,0,0,0,0,12.113,4.136,4.136,0,0,0,3.19-1.376h.094v.845c0,2.314-1.241,3.555-3.232,3.555a3.359,3.359,0,0,1-3.054-2.158l-2.314.959a5.77,5.77,0,0,0,5.369,3.576c3.117,0,5.754-1.835,5.754-6.307V402.74H335.7Zm-3.054,8.371a3.7,3.7,0,1,1,3.231-3.648A3.391,3.391,0,0,1,332.643,412.153Z" transform="translate(-279.958 -395.974)"/><path class="b" d="M288.044,402.427a6.057,6.057,0,1,0,6.077,6.057A5.968,5.968,0,0,0,288.044,402.427Zm0,9.726a3.679,3.679,0,1,1,3.419-3.669A3.5,3.5,0,0,1,288.044,412.153Z" transform="translate(-248.546 -395.974)"/><path class="b" d="M372.132,381.657h2.616v18.316h-2.616Z" transform="translate(-311.785 -381.407)"/><path class="b" d="M393.845,412.153a3.083,3.083,0,0,1-2.94-1.835l8.1-3.346-.271-.688a5.624,5.624,0,0,0-5.181-3.857,5.755,5.755,0,0,0-5.713,6.057,5.921,5.921,0,0,0,6,6.057,6.043,6.043,0,0,0,5.045-2.679l-2.064-1.376a3.468,3.468,0,0,1-2.982,1.668Zm-.188-7.453a2.4,2.4,0,0,1,2.293,1.334l-5.473,2.262A3.29,3.29,0,0,1,393.657,404.7Z" transform="translate(-322.802 -395.974)"/></g></svg>