<svg xmlns="http://www.w3.org/2000/svg" xmlns:xlink="http://www.w3.org/1999/xlink" width="826.492" height="644.655" viewBox="0 0 826.492 644.655"><defs><style>.a,.bq,.bx,.cc,.cg,.t{fill:none;}.b,.bp{opacity:0.1;}.c{fill:#dadada;}.d{fill:silver;}.ch,.e{fill:#1e1e1e;}.bu,.f{fill:#ba3dfe;}.g{fill:#00d5ff;}.h{fill:#ff8c19;}.i{fill:#a4a4a4;}.j{fill:url(#a);}.k{fill:#98113d;}.l{fill:#8c8c8c;}.m{fill:#d0d0d0;}.n{fill:#e57917;}.o{fill:#646464;}.p{fill:#004ab5;}.q{fill:#ff2b50;}.r{fill:#ffc402;}.s{fill:url(#b);}.t{stroke:#004000;stroke-linejoin:round;}.u{fill:url(#c);}.v{fill:url(#d);}.w{fill:url(#e);}.x{fill:url(#f);}.y{fill:url(#g);}.z{fill:url(#h);}.aa{fill:url(#i);}.ab{fill:url(#j);}.ac{fill:url(#k);}.ad{fill:url(#l);}.ae{fill:#050;}.af{fill:#a73de5;}.ag{fill:#fe9643;}.ah{fill:#ffc600;}.ai{fill:url(#m);}.aj{fill:url(#n);}.ak{fill:#00ab00;}.al{fill:url(#o);}.am{fill:url(#p);}.an{fill:url(#q);}.ao{fill:url(#r);}.ap{fill:url(#s);}.aq{fill:url(#t);}.ar{fill:#00eb00;}.as{fill:url(#u);}.at{fill:#9a35db;}.au{fill:url(#v);}.av{fill:url(#w);}.aw{fill:url(#x);}.ax,.bd,.bu,.ch{opacity:0.3;}.ax,.bn,.bp,.bu,.ca,.cb,.ch{isolation:isolate;}.ay{fill:url(#y);}.az{fill:url(#z);}.ba{fill:#009300;}.bb{fill:#007900;}.bc{fill:url(#aa);}.be{fill:url(#ab);}.bf{fill:url(#ac);}.bg{fill:url(#ad);}.bh{fill:url(#ae);}.bi{fill:url(#af);}.bj{fill:url(#ag);}.bk{fill:url(#ah);}.bl{fill:url(#ai);}.bm{fill:#e9e9e9;}.bn{opacity:0.15;}.bo{fill:#843c32;}.bq,.cg{stroke:#1e1e1e;}.bq,.bx,.cc,.cg{stroke-linecap:round;stroke-miterlimit:10;}.br{fill:#ff8538;}.bs{fill:url(#aj);}.bt{fill:url(#ak);}.bv{fill:#f5f5f5;}.bw{clip-path:url(#al);}.bx{stroke:#c836d7;}.by{fill:url(#an);}.bz{fill:url(#ao);}.ca,.cb{opacity:0.5;}.ca{fill:url(#ap);}.cb{fill:url(#aq);}.cc{stroke:#ff8538;}.cd{fill:#e3e3e3;}.ce{fill:#6343dc;}.cf{fill:#de1250;}.cg{stroke-width:0.462px;}.ci{fill:url(#ar);}</style><linearGradient id="a" x1="0.5" y1="2.229" x2="0.5" y2="1.093" gradientUnits="objectBoundingBox"><stop offset="0" stop-color="#f5f5f5"/><stop offset="1" stop-color="#d1d1d1"/></linearGradient><linearGradient id="b" y1="-2.678" y2="-9.718" xlink:href="#a"/><linearGradient id="c" y1="4.205" y2="0.255" xlink:href="#a"/><linearGradient id="d" y1="-9.583" y2="-14.372" xlink:href="#a"/><linearGradient id="e" y1="2.331" y2="1.1" xlink:href="#a"/><linearGradient id="f" y1="1.504" x2="1" y2="1.504" gradientUnits="objectBoundingBox"><stop offset="0" stop-color="#ff1d4b"/><stop offset="1" stop-color="#b93dfe"/></linearGradient><linearGradient id="g" x1="0" y1="-0.899" x2="1" y2="-0.899" xlink:href="#a"/><linearGradient id="h" y1="-6.731" y2="-6.731" xlink:href="#f"/><linearGradient id="i" y1="-5.014" y2="-6.079" xlink:href="#a"/><linearGradient id="j" x1="0" y1="-6.898" x2="1" y2="-6.898" xlink:href="#a"/><linearGradient id="k" x1="0.5" y1="-5.373" x2="0.5" y2="-3.717" xlink:href="#f"/><linearGradient id="l" x1="0.5" y1="4.594" x2="0.5" y2="5.308" xlink:href="#f"/><linearGradient id="m" x1="0" y1="12.488" x2="1" y2="12.488" xlink:href="#a"/><linearGradient id="n" x1="0" y1="9.062" x2="1" y2="9.062" xlink:href="#a"/><linearGradient id="o" x1="0" y1="10.164" x2="1" y2="10.164" xlink:href="#a"/><linearGradient id="p" y1="14.839" y2="10.243" xlink:href="#a"/><linearGradient id="q" x1="0.202" y1="8.585" x2="1.119" y2="8.585" xlink:href="#f"/><linearGradient id="r" x1="0" y1="1.073" x2="1" y2="1.073" xlink:href="#a"/><linearGradient id="s" x1="0.5" y1="2.396" x2="0.5" y2="3.614" xlink:href="#f"/><linearGradient id="t" y1="-3.979" y2="-2.91" xlink:href="#a"/><linearGradient id="u" y1="0.219" y2="1.172" xlink:href="#a"/><linearGradient id="v" x1="0" y1="1.693" x2="1" y2="1.693" xlink:href="#a"/><linearGradient id="w" y1="8.23" y2="10.072" xlink:href="#a"/><linearGradient id="x" y1="8.392" y2="9.183" xlink:href="#a"/><linearGradient id="y" y1="4.968" y2="4.302" xlink:href="#a"/><linearGradient id="z" y1="4.098" y2="3.432" xlink:href="#a"/><linearGradient id="aa" x1="0" y1="6.204" x2="1" y2="6.204" xlink:href="#a"/><linearGradient id="ab" y1="11.52" y2="9.554" xlink:href="#a"/><linearGradient id="ac" y1="3.878" y2="5.641" xlink:href="#a"/><linearGradient id="ad" y1="-0.451" x2="1" y2="-0.451" gradientUnits="objectBoundingBox"><stop offset="0" stop-color="#f5f5f5"/><stop offset="1" stop-color="#e4e4e4"/></linearGradient><linearGradient id="ae" x1="0.191" y1="-0.05" x2="1.048" y2="-1.134" xlink:href="#ad"/><linearGradient id="af" x1="0.845" y1="0.502" x2="0.147" y2="-0.497" xlink:href="#ad"/><linearGradient id="ag" y1="-44.312" y2="-44.312" xlink:href="#ad"/><linearGradient id="ah" y1="-53.19" y2="-53.19" xlink:href="#ad"/><linearGradient id="ai" x1="0.943" y1="0.834" x2="-0.124" y2="-0.353" xlink:href="#ad"/><linearGradient id="aj" x1="1.927" y1="5.34" x2="0.292" y2="3.468" gradientUnits="objectBoundingBox"><stop offset="0" stop-color="#1c48c0"/><stop offset="1" stop-color="#ba3dfe"/></linearGradient><linearGradient id="ak" x1="0.924" y1="0" x2="0.257" y2="0.921" xlink:href="#aj"/><clipPath id="al"><path class="a" d="M147.852,443.294l6.561-21.27L111.89,418.94l9.912,29.385Z" transform="translate(-111.89 -418.94)"/></clipPath><linearGradient id="an" x1="0.5" y1="1.088" x2="0.732" y2="0.299" xlink:href="#aj"/><linearGradient id="ao" x1="0.091" y1="0.814" x2="0.865" y2="0.195" xlink:href="#aj"/><linearGradient id="ap" x1="-10.029" y1="136.586" x2="-10.029" y2="137.32" gradientUnits="objectBoundingBox"><stop offset="0" stop-color="#ff8538"/><stop offset="1" stop-color="#f5f5f5"/></linearGradient><linearGradient id="aq" x1="-10.015" y1="136.783" x2="-10.015" y2="137.518" xlink:href="#ap"/><linearGradient id="ar" x1="0.692" y1="0" x2="0.731" y2="1.042" xlink:href="#f"/></defs><g class="b" transform="translate(4.455 465.106)"><path d="M582.9,571.905l-8.466,3.218a2.744,2.744,0,0,0,.526,5.274l21.37,3.56,9.586-4.179s-25.265,11.466-2.181,13.882c31.232,3.259,49.251-9.7,49.251-9.7s37.366,2.014,46.643-6.293c7.346-6.577-1.5-8.257-22.674-10.4,0,0-24.8-14.676-45.741-9.737S582.9,571.905,582.9,571.905Z" transform="translate(-98.515 -556.514)"/><path d="M428.644,637.118C413.057,635.973,371.3,639.4,371.3,639.4c-15.127,1.73-18.721-4.572-18.721-4.572s2.758,1.546-10.238,0-9.9-8.8-9.9-8.8l5.783-4.062L348.989,597.5,246.15,583.939l97.883-21.119h49.8l53.814,3.226,14.718,8.792H535.3l50.613,12.636L568.18,604.332l-75.769-2.156-50.6,16.723s92.609,2.683,81.268,10.706C511.634,637.7,478.755,640.8,428.644,637.118Z" transform="translate(-44.885 -557.55)"/><path d="M5.33,622.04l87.152,7.4-4.354,5.808L321,633.8l7.037-27.237L129.472,603.47l-12.21.5,5.29.669,43.1,6.059,36.94,4.053,99.036,11.458L18.877,620.16Z" transform="translate(-5.33 -564.227)"/><path d="M692.34,742.91c-12.394-1.312-46.618-7.263-14.375-7.9S828.592,743.3,828.592,743.3l-10.89-3.845s8.491-5.533,29.5-4.831,52.376,7.321,71.64,14.133c20.434,7.229,40.016,20.718-56.062,15.294S707.141,744.481,692.34,742.91Z" transform="translate(-113.601 -585.76)"/></g><path class="c" d="M254.672,100.272l-5.432-36.38,14.8-4.572,6.193,38Z" transform="translate(-40.938 -9.743)"/><path class="d" d="M266.95,59.32l31.524,6.594,5.09,32.327-30.421-.919Z" transform="translate(-43.847 -9.743)"/><path class="e" d="M255.74,107.74l32.561.769,13.422-2.8L271.3,104.79Z" transform="translate(-42.006 -17.212)"/><g transform="translate(184.976)"><path class="f" d="M530.56,147.236v-5.081L500.08,101.17l2.148,39.146Z" transform="translate(-267.115 -16.617)"/><g transform="translate(111.556 255.505)"><path class="c" d="M386.568,373.2l-31.758.844V416.6h31.758Z" transform="translate(-354.81 -316.804)"/><path class="g" d="M386.568,305.72H354.81v57.24l31.758-.844Z" transform="translate(-354.81 -305.72)"/><path class="h" d="M354.81,425.13V541.717l31.758,3.452V425.13Z" transform="translate(-354.81 -325.333)"/><rect class="i" width="25.114" height="43.4" transform="translate(31.758 56.396)"/><rect class="j" width="25.114" height="56.405" transform="translate(31.758)"/></g><g transform="translate(98 355.302)"><path class="k" d="M417.924,425.13H392.81v48.415l25.114-2.307Z" transform="translate(-347.496 -425.13)"/><g transform="translate(0 46.108)"><path class="l" d="M376.14,504.557V515.79l13.932-1.822V503.12Z" transform="translate(-344.758 -484.048)"/><path class="i" d="M390.072,499.825V483.06l-13.932,1.287v16.916Z" transform="translate(-344.758 -480.753)"/><path class="c" d="M369.972,484.257,338.59,482.51v17.1l31.382,1.563Z" transform="translate(-338.59 -480.663)"/><path class="m" d="M338.59,502.97v11.8l31.382.995V504.533Z" transform="translate(-338.59 -484.024)"/><path class="n" d="M392.81,559.467l25.114-4.964V512.18l-25.114,3.276Z" transform="translate(-347.496 -485.536)"/><path class="k" d="M417.924,496.773V480.3l-25.114,2.307v16.765Z" transform="translate(-347.496 -480.3)"/><path class="o" d="M392.81,502.609v10.848l25.114-3.276V500.01Z" transform="translate(-347.496 -483.537)"/></g></g><path class="g" d="M338.59,474.284l12.954-41.854h4.48L369.972,470.8v5.232Z" transform="translate(-240.59 -71.027)"/><path class="e" d="M376.14,478.113l16.7-1.153v4.847l-16.7,1.538Z" transform="translate(-246.758 -78.342)"/><path class="p" d="M359.45,432.43h15.2L390.1,469.646,373.4,470.8Z" transform="translate(-244.016 -71.027)"/><g transform="translate(138.726 306.619)"><path class="q" d="M403.768,439.263l-16.448-.443v20.426l16.448.435Z" transform="translate(-387.32 -378.696)"/><path class="r" d="M387.32,438.787l3.46-.167v.259Z" transform="translate(-387.32 -378.663)"/><path class="h" d="M387.32,463.26v23.585l16.448.886V463.695Z" transform="translate(-387.32 -382.711)"/><path class="n" d="M407,487.251l32.377-4.9V460.34L407,463.215Z" transform="translate(-390.552 -382.231)"/><path class="k" d="M407,438.826v20.417l32.377-2.875V436.16Z" transform="translate(-390.552 -378.259)"/><g transform="translate(3.46)"><path class="p" d="M409.67,409.829l30.145-2.332V366.88h-17.35l-12.8,37.876Z" transform="translate(-394.451 -366.88)"/><g transform="translate(0 40.617)"><path class="o" d="M409.231,417.812v17.375l-2.231.242,32.377-2.666V415.48Z" transform="translate(-394.012 -415.48)"/><path class="d" d="M406.679,418.27H391.46v17.267l12.988.351,2.231-.184Z" transform="translate(-391.46 -415.938)"/></g><path class="g" d="M419.474,366.88H405.141L391.46,404.756h15.219Z" transform="translate(-391.46 -366.88)"/><rect class="s" width="15.219" height="5.073" transform="translate(0 37.876)"/><path class="t" d="M409.67,418.27Z" transform="translate(-394.451 -375.321)"/></g></g><path class="o" d="M440.722,486.68v10.965l-25.532,4.212V490.541Z" transform="translate(-253.172 -79.938)"/><path class="d" d="M395.06,491.8v9.711l16.824,1.1V491.3l-6.845,1.036Z" transform="translate(-249.865 -80.697)"/><g transform="translate(0 263.67)"><path class="c" d="M283.52,368.107h15.963V342.19l-15.963.526Z" transform="translate(-231.545 -319.876)"/><path class="f" d="M276.966,338.331V315.49l-33.346,2.867v45.364h33.346Z" transform="translate(-224.991 -315.49)"/><path class="i" d="M302.62,342.19v25.917h32.527V343.193Z" transform="translate(-234.682 -319.876)"/><path class="u" d="M276.966,373.2H243.62v11.458h49.309V373.2Z" transform="translate(-224.991 -324.969)"/><rect class="p" width="32.527" height="11.458" transform="translate(67.938 48.231)"/><g transform="translate(2.039 68.264)"><path class="k" d="M278.5,439.116V397.17H263.57v42.548Z" transform="translate(-230.307 -397.17)"/><path class="c" d="M257.033,447.919,223.77,447.1v22.306l33.263,2.465Z" transform="translate(-223.77 -405.371)"/><path class="i" d="M263.57,471.914l14.926-1.463V447.36l-14.926.6Z" transform="translate(-230.307 -405.414)"/><path class="r" d="M257.033,476.255,223.77,473.79v25.95l33.263,2.624Z" transform="translate(-223.77 -409.755)"/><path class="h" d="M263.57,476.452v26.109L278.5,500.4V474.99Z" transform="translate(-230.307 -409.952)"/><path class="p" d="M263.57,520.208l14.926-2.566V505.39l-14.926,2.165Z" transform="translate(-230.307 -414.945)"/><path class="v" d="M223.77,504.84v11.776l33.263,3.5V507.464Z" transform="translate(-223.77 -414.855)"/></g><g transform="translate(0 59.689)"><rect class="h" width="33.079" height="8.575"/><rect class="n" width="17.158" height="8.575" transform="translate(33.071)"/></g><path class="w" d="M254.4,378.826,238.814,337.69h-3.677L221.33,378.826Z" transform="translate(-221.33 -319.136)"/><path class="x" d="M260.068,338.96l-17.818-1.27,15.587,41.136h17.158Z" transform="translate(-224.766 -319.136)"/><g transform="translate(2.039 68.264)"><path class="e" d="M244.462,441.177a7.876,7.876,0,0,0-4.338-1.337c-3.569,0-6.686,2.516-8.324,6.235l8.583.209A11.162,11.162,0,0,1,244.462,441.177Z" transform="translate(-225.089 -404.179)"/><path class="y" d="M223.77,397.17V438.9l6.7.167c1.638-3.719,4.755-6.235,8.324-6.235a7.875,7.875,0,0,1,4.338,1.337,11.334,11.334,0,0,1,4.162,5.315l5.09.125,4.638.117V397.17Z" transform="translate(-223.77 -397.17)"/><path class="p" d="M242.06,446.545l8.24.2a11.333,11.333,0,0,0-4.162-5.315A11.337,11.337,0,0,0,242.06,446.545Z" transform="translate(-226.774 -404.44)"/></g><path class="i" d="M281.43,386.91v50.521l33.973-2.1V386.91Z" transform="translate(-231.202 -327.221)"/><path class="z" d="M315.4,444.661l14.709-.961v11.04l-48.682,4.17V446.759Z" transform="translate(-231.202 -336.549)"/><path class="g" d="M336.789,443.7H322.08v.961Z" transform="translate(-237.878 -336.549)"/><g transform="translate(18.671 167.016)"><path class="c" d="M286.218,522.148,269.963,521.1l-9.661,1.663-16.631-1.755v8.065l50.822,4.58V520.97Z" transform="translate(-243.67 -516.256)"/><path class="i" d="M304.48,520.044V532.73l33.162-6.109V515.33Z" transform="translate(-253.658 -515.33)"/></g><g transform="translate(20.743 180.02)"><path class="m" d="M246.15,530.89v47.8l31.232,4.129V533.706Z" transform="translate(-246.15 -530.89)"/><path class="i" d="M301.037,535.57l-17.517-1.58V583.1l33.555-6.878v-43.6Z" transform="translate(-252.288 -531.174)"/></g><g transform="translate(44.963 118.192)"><path class="aa" d="M291.385,463.56l-16.255-1.12v23.15l16.255,1.12Z" transform="translate(-275.13 -457.818)"/><path class="ab" d="M275.13,490.14v25.9l16.255,1.045V491.26Z" transform="translate(-275.13 -462.368)"/><path class="g" d="M340.009,458.164l-10.932-1.254-53.948,4.622,16.255,1.12Z" transform="translate(-275.13 -456.91)"/><path class="k" d="M294.58,515.961l48.624-7.02V483.3l-48.624,6.836Z" transform="translate(-278.325 -461.245)"/><path class="ac" d="M294.58,462.9v23.15l48.624-6.836v-20.8Z" transform="translate(-278.325 -457.156)"/></g></g><path class="ad" d="M422.4,235.112V177.98H402.23v63.784Z" transform="translate(-251.043 -29.234)"/><path class="ae" d="M534.232,282.271H519.615L493.13,278.1l2.323-.251Z" transform="translate(-265.974 -45.637)"/><g transform="translate(123.808 14.417)"><path class="h" d="M410.44,172.8l26.61-3.878V109.968l-26.61-5.558Z" transform="translate(-376.199 -31.566)"/><path class="af" d="M410.44,99.436l26.61,5.558V80.131l-26.61-6Z" transform="translate(-376.199 -26.593)"/><path class="q" d="M410.44,17.25v7.9l26.61,10.38v-7.02Z" transform="translate(-376.199 -17.25)"/><g transform="translate(34.241 7.898)"><path class="e" d="M426.292,41.55a5.678,5.678,0,0,0-4.162,2.014,11.923,11.923,0,0,1,2.75,7.981,11.923,11.923,0,0,1-2.75,7.981,5.664,5.664,0,0,0,4.162,2.014c3.819,0,6.912-4.471,6.912-10S430.1,41.55,426.292,41.55Z" transform="translate(-412.36 -29.139)"/><path class="h" d="M410.44,26.7V66.34l26.61,6V37.08Zm13.932,32.394a5.678,5.678,0,0,1-4.162-2.014,11.923,11.923,0,0,1-2.75-7.981,11.923,11.923,0,0,1,2.75-7.981,5.664,5.664,0,0,1,4.162-2.014c3.819,0,6.912,4.471,6.912,10S428.183,59.094,424.372,59.094Z" transform="translate(-410.44 -26.7)"/></g><path class="ag" d="M403.711,17.25,369.47,25.875v7.9l34.241-8.625Z" transform="translate(-369.47 -17.25)"/><path class="f" d="M403.711,74.13,369.47,80.858v25.4l34.241-6.82Z" transform="translate(-369.47 -26.593)"/><path class="ah" d="M369.47,111.23v67.194l34.241-5.625V104.41Z" transform="translate(-369.47 -31.566)"/><path class="e" d="M388.6,51.547c0-3.7,1.387-6.928,3.452-8.65A5.357,5.357,0,0,0,388.6,41.56c-3.819,0-6.912,4.471-6.912,10s3.092,10,6.912,10a5.367,5.367,0,0,0,3.452-1.337C389.989,58.467,388.6,55.241,388.6,51.547Z" transform="translate(-371.477 -21.243)"/><path class="ai" d="M369.47,35.325V73.067l34.241-6.728V26.7Zm17.124,23.769c-3.819,0-6.912-4.471-6.912-10s3.092-10,6.912-10a5.367,5.367,0,0,1,3.452,1.337c2.064,1.73,3.452,4.956,3.452,8.65s-1.387,6.928-3.452,8.65A5.288,5.288,0,0,1,386.594,59.094Z" transform="translate(-369.47 -18.802)"/></g><path class="ah" d="M403.835,14.417,370.23,0V22.874Z" transform="translate(-245.787)"/><path class="h" d="M370.23,0l23.4,8.575,36.815,17.1-26.61-11.258Z" transform="translate(-245.787)"/><path class="aj" d="M350.73,187.567v-36.28L385.9,145.32v36.622Z" transform="translate(-242.584 -23.869)"/><path class="f" d="M392.027,145.32l15.344,4.012v80.157l-19.331-3.51,3.987-8.717Z" transform="translate(-248.712 -23.869)"/><path class="ah" d="M385.9,137.086l-18.838-41.9-2.649.56-13.681,47.3Z" transform="translate(-242.584 -15.635)"/><path class="h" d="M370.27,95.19l15.453,4.1L404.452,141.1l-15.344-4.012Z" transform="translate(-245.794 -15.635)"/><path class="ak" d="M412.84,150.79" transform="translate(-252.786 -24.768)"/><g transform="translate(129.048 201.424)"><path class="o" d="M421.158,264.06v-18.6L394.69,241.01v20.367Z" transform="translate(-378.853 -241.01)"/><path class="al" d="M391.577,241.01l-15.837,2.248v20.635l15.837-2.516Z" transform="translate(-375.74 -241.01)"/><path class="h" d="M394.69,288.121l.017-.008,26.451,2.34v-22.39L394.69,265.38Z" transform="translate(-378.853 -245.013)"/><path class="q" d="M375.74,294.236v11.817l15.837-2.031V292.59Z" transform="translate(-375.74 -249.482)"/><path class="r" d="M391.577,265.38,375.74,267.9v21.871l15.837-1.646Z" transform="translate(-375.74 -245.013)"/><path class="k" d="M394.707,292.58l-.017.008v11.433l26.468,2.031V294.92Z" transform="translate(-378.853 -249.48)"/></g><path class="e" d="M341.73,264.565l27.555,2.206s5.173-46.66,45.239-54.884l-6.469-14.918L350.79,208.9l-14.35,51.407Z" transform="translate(-240.237 -32.353)"/><path class="q" d="M414.376,209.659V183.4l-78.084,12.1-.752,66.835h6.042s4.07-34.742,30.455-50.981S414.376,209.659,414.376,209.659Z" transform="translate(-240.089 -30.124)"/><path class="e" d="M375.74,308.3l26.334,1.429,15.971-1.429-26.468-2.031Z" transform="translate(-246.692 -50.305)"/><g transform="translate(97.916 232.213)"><path class="ah" d="M338.49,303.361l31.132,2.491V294.034L338.49,291.36Z" transform="translate(-338.49 -280.069)"/><path class="am" d="M342.067,277.85H338.49v11.291l31.132,2.674V280.065Z" transform="translate(-338.49 -277.85)"/></g><path class="an" d="M389.855,318.578v-9.36L302.62,303.15v8.934Z" transform="translate(-234.682 -49.793)"/><path class="e" d="M389.855,320.334l-43.618.7-43.618-3.117V313.84Z" transform="translate(-234.682 -51.549)"/><g transform="translate(190.843 232.463)"><path class="ao" d="M449.68,281.276V390.182l16.966,3.6h19.348V278.15Z" transform="translate(-449.68 -278.15)"/><g transform="translate(36.313)"><path class="ap" d="M522.891,281.426,493.13,278.15v53.521h29.761Z" transform="translate(-493.13 -278.15)"/><rect class="e" width="29.761" height="62.113" transform="translate(0 53.521)"/></g></g><g transform="translate(211.921 394.013)"><path class="aq" d="M515.166,475.959,474.9,474.17v51.123l40.266,3.435Z" transform="translate(-474.9 -471.897)"/><path class="m" d="M474.9,535.34v50.045l40.266,4.8V538.775Z" transform="translate(-474.9 -481.944)"/><path class="o" d="M523.08,475.512v52.769l26.234-5.892V471.45Z" transform="translate(-482.814 -471.45)"/><path class="i" d="M523.08,589.7l26.234-7.756V532.4l-26.234,5.892Z" transform="translate(-482.814 -481.461)"/></g><g transform="translate(232.071 368.59)"><path class="ar" d="M499.01,475.389l19.916.752v-.008l-19.916-.852Z" transform="translate(-499.01 -446.656)"/><path class="g" d="M499.01,441.03v28.624l19.916.852V441.323Z" transform="translate(-499.01 -441.03)"/></g><g transform="translate(231.72 344.495)"><path class="r" d="M498.59,412.99v23.426l20.267.3V413.266Z" transform="translate(-498.59 -412.33)"/><path class="h" d="M522.84,413.136v23.451l26.435-2.139,1.212-.1-.075-22.147Z" transform="translate(-502.573 -412.2)"/></g><g transform="translate(192.841 344.495)"><path class="h" d="M490.949,412.86l-38.879-.66v51.047l39.23,1.78V436.295l19.916.293-20.267-.3Z" transform="translate(-452.07 -412.2)"/><path class="p" d="M522.84,440.96v29.184l.2.008,26.234-4.062V438.82Z" transform="translate(-463.694 -416.572)"/></g><g transform="translate(177.154 289.236)"><path class="i" d="M479.26,346.08v57.658l15.2-1.738V346.08Z" transform="translate(-440.849 -346.08)"/><path class="as" d="M433.3,347.141v56.421l38.411.176V346.08Z" transform="translate(-433.3 -346.08)"/></g><g transform="translate(233.341 324.68)"><path class="o" d="M522.84,389.225v20.016l27.212-.936V388.49Z" transform="translate(-504.194 -388.49)"/><path class="d" d="M500.53,389.37v19.765l18.646.251V389.37Z" transform="translate(-500.53 -388.635)"/></g><g transform="translate(232.071 318.537)"><path class="f" d="M499.01,381.956v6.151h19.916l1.989-.059V381.68Z" transform="translate(-499.01 -381.229)"/><path class="at" d="M551.3,381.14l-26.075.451v6.368l26.075-.677Z" transform="translate(-503.315 -381.14)"/></g><g transform="translate(232.071 275.972)"><path class="f" d="M537.831,330.21l-3.51.042-9.1,42.974,26.075-.451Z" transform="translate(-503.315 -330.21)"/><path class="au" d="M509.958,330.477,499.01,373.51l21.9-.276,9.1-42.974Z" transform="translate(-499.01 -330.218)"/></g><path class="av" d="M470.257,344.62l-38.127,1.053v-7.455l38.127-1.229Z" transform="translate(-255.954 -55.351)"/><path class="o" d="M493.629,344.587v-7.6H477.75v7.63l1.262-.033Z" transform="translate(-263.447 -55.351)"/><path class="ah" d="M432.13,329.65l15.879-44.5,3.184-.334,20.325,43.6h-1.262Z" transform="translate(-255.954 -46.782)"/><path class="h" d="M454.94,284.82l15.587,1.5,19.356,42.1H475.265Z" transform="translate(-259.701 -46.782)"/><path class="n" d="M530.982,173.057V154.93l-28.332-6.92v21.546Z" transform="translate(-267.537 -24.311)"/><path class="h" d="M487.248,148.01l-78.368,13.4v18.729l78.368-10.581Z" transform="translate(-252.135 -24.311)"/><path class="r" d="M485.724,275.744l-37.684,3.243V267.913l40.007-4.413v11.993Z" transform="translate(-258.568 -43.28)"/><path class="h" d="M534.689,269.576,495.91,263.5v11.993l38.779,4.421Z" transform="translate(-266.43 -43.28)"/><path class="aw" d="M485.1,101.17,425.286,112.2,408.88,153.713l78.368-13.4Z" transform="translate(-252.135 -16.617)"/><path class="ax" d="M480.28,131.624l4.254-14.074,13.188,2.524,1.254,22.933v18.88l-11.642,2.173Z" transform="translate(-263.863 -19.308)"/><g transform="translate(36.631 134.881)"><path class="e" d="M468.3,260.58l-38.428,4.772,15.186,2.081,40.007-4.413Z" transform="translate(-292.214 -177.682)"/><path class="d" d="M429.87,249.166v13.522l38.428-4.772V244.36Z" transform="translate(-292.214 -175.018)"/><path class="ay" d="M468.3,161.39l-38.428,6.143v68l38.428-4.806Z" transform="translate(-292.214 -161.39)"/><path class="az" d="M303.588,200l-38.428,6.143v68l38.428-4.8Z" transform="translate(-265.16 -167.732)"/></g><path class="ba" d="M475.85,260.58" transform="translate(-263.135 -42.801)"/><path class="e" d="M531.394,223.519,475.85,211.25v15.127l44.8,9.745v23.225l10.748,1.646Z" transform="translate(-263.135 -34.698)"/><g transform="translate(212.715 191.679)"><path class="o" d="M491.771,233.5v12.219l-15.921-3.142v13.556l44.8,6.87V239.776Z" transform="translate(-475.85 -230.032)"/><path class="f" d="M491.771,232.818,475.85,229.35v12.545l15.921,3.142Z" transform="translate(-475.85 -229.35)"/></g><path class="f" d="M475.85,224.263V161.39l14.383,3.176v59.7Z" transform="translate(-263.135 -26.509)"/><path class="bb" d="M475.85,169.64" transform="translate(-263.135 -27.864)"/><path class="bc" d="M548.367,222.78v-44.6s-6.678-7.38-23.894-9.227-44.2.46-44.2.46v49.9Z" transform="translate(-263.861 -27.633)"/><g class="bd" transform="translate(255.154 140.882)"><path d="M555.982,178.231s-6.678-7.38-23.894-9.227c-1.73-.184-3.56-.326-5.457-.435v52.769l29.343,1.5v-44.6Z" transform="translate(-526.63 -168.57)"/></g><path class="e" d="M480.28,228.926s29.945-4.246,53.187-.827,12.361,5.9,12.361,5.9l-36.23,3.594Z" transform="translate(-263.863 -37.247)"/><path class="d" d="M494.9,245.037V232.894l24.078-3.544v11.993Z" transform="translate(-266.264 -37.671)"/><path class="e" d="M523.775,252.559,494.9,247.394l24.078-3.694,25.549,5.349Z" transform="translate(-266.264 -40.028)"/><path class="o" d="M549.259,246.692V234.423L523.71,229.35v11.993Z" transform="translate(-270.996 -37.671)"/><path class="ah" d="M429.87,166.523v-4.806L468.3,155.24v5.14Z" transform="translate(-255.583 -25.498)"/><path class="q" d="M429.87,153.593l14.45-47.2,3.594-.61L468.3,147.116Z" transform="translate(-255.583 -17.375)"/><path class="k" d="M451.46,105.78l15.5,4.379,19.264,40.459-14.383-3.5Z" transform="translate(-259.129 -17.375)"/><path class="n" d="M475.85,155.24l14.383,3.5v4.814L475.85,160.38Z" transform="translate(-263.135 -25.498)"/><g transform="translate(36.012 160.121)"><path class="k" d="M332.6,218.994V198.761l-11.692-2.8v4.63l-6.895-1.245v-5.031L302.62,191.59v22.5Z" transform="translate(-270.694 -191.59)"/><path class="e" d="M286.3,199.942v-2.649l-9.427-2.073v5.967Z" transform="translate(-266.465 -192.186)"/><path class="e" d="M323.145,201.45v-4.63l-6.895,1.488v1.9Z" transform="translate(-272.933 -192.449)"/><path class="q" d="M296.346,191.59l-12.093,1.7v6.051l-9.427,1.245v-5.967l-10.405,1.463v21.771l31.926-3.769Z" transform="translate(-264.42 -191.59)"/><path class="i" d="M302.62,293.947l29.978,2.148V251.232L302.62,247.12Z" transform="translate(-270.694 -200.711)"/><path class="c" d="M264.42,251.224v44.871l31.926-2.148V247.12Z" transform="translate(-264.42 -200.711)"/></g><g transform="translate(36.012 100.766)"><path class="r" d="M264.42,122.386v62.1l7.238-1.02V120.99Z" transform="translate(-264.42 -120.639)"/><path class="h" d="M336.116,122.317l-8.366-1.747v64.378l8.366,2Z" transform="translate(-274.822 -120.57)"/></g><path class="r" d="M326.538,120.57l-6.168,2.206V185.04l3.452-.744,2.716.652Z" transform="translate(-237.598 -19.804)"/><g transform="translate(43.25 96.378)"><path class="r" d="M291,117.184v63.249l9.711-1.371V115.32Z" transform="translate(-276.023 -115.32)"/><path class="h" d="M273.08,120.99v62.481l3.167-.443,3.727.819.159-59.915Z" transform="translate(-273.08 -116.251)"/><path class="h" d="M302.62,115.32v63.743l8.408,2.048V117.075Z" transform="translate(-277.932 -115.32)"/><path class="e" d="M312.68,117.42v5.508l6.3,1.346.125-2.014,6.168-2.206Z" transform="translate(-279.584 -115.665)"/></g><path class="e" d="M289.292,117.55l-8.692,1.671,8.692,1.906Z" transform="translate(-231.065 -19.308)"/><g transform="translate(67.938 70.077)"><path class="d" d="M302.62,83.85v26.3l14.993,3.134V88.213Z" transform="translate(-302.62 -83.85)"/><path class="o" d="M334.935,93.249,320.56,89.07v25.072l14.375,3Z" transform="translate(-305.567 -84.707)"/></g><path class="c" d="M299,83.85l-18.4,3.719v26.117l18.4-3.535Z" transform="translate(-231.065 -13.773)"/><g transform="translate(36.012 182.611)"><path class="e" d="M285.644,238.624a6.9,6.9,0,0,0-4.739-2.014c-4.538,0-8.215,4.9-8.215,10.94,0,.351.017.7.042,1.053l9.452-1.212A12.235,12.235,0,0,1,285.644,238.624Z" transform="translate(-265.778 -221.475)"/><path class="be" d="M264.42,222.278v24.245l6.945-.894c-.025-.343-.042-.694-.042-1.053,0-6.042,3.677-10.94,8.215-10.94a6.864,6.864,0,0,1,4.739,2.014,11.971,11.971,0,0,1,3.427,7.873l4.438-.568,4.2-.543V218.5Z" transform="translate(-264.42 -218.5)"/></g><g transform="translate(67.938 182.619)"><path class="e" d="M319.721,237a7.13,7.13,0,0,0-4.271,1.463,11.248,11.248,0,0,1,4.12,9.026l8.491,1.162c.033-.376.05-.761.05-1.145C328.1,241.705,324.351,237,319.721,237Z" transform="translate(-304.727 -221.547)"/><path class="f" d="M302.62,218.51v23.911l3.1.426,3.552.485a10.981,10.981,0,0,1,4.07-7.906,7.13,7.13,0,0,1,4.271-1.463c4.63,0,8.391,4.705,8.391,10.514,0,.384-.017.769-.05,1.145l6.653.911V223.424Z" transform="translate(-302.62 -218.51)"/></g><g transform="translate(18.629 214.695)"><path class="q" d="M292.929,256.89,243.62,263.4v20.685l49.309-4.588Z" transform="translate(-243.62 -256.89)"/><path class="k" d="M302.62,256.89V279.5l15.8,2.022V259.3Z" transform="translate(-253.311 -256.89)"/><path class="ah" d="M243.62,288.528v24.646l49.309-4.246V283.94Z" transform="translate(-243.62 -261.333)"/><path class="h" d="M302.62,308.929l15.8,1.178V285.962l-15.8-2.022Z" transform="translate(-253.311 -261.333)"/></g><path class="bf" d="M299.483,337.533V313.84l-15.963,1.379V338.06Z" transform="translate(-231.545 -51.549)"/><path class="k" d="M335.147,338.536V316.322L302.62,313.84v23.693Z" transform="translate(-234.682 -51.549)"/><path class="ax" d="M354.81,322.35l31.758,26.844V321.84Z" transform="translate(-243.254 -52.863)"/><path class="ax" d="M281.43,386.91v14.634L315.4,424.953V386.91Z" transform="translate(-231.202 -63.551)"/><path class="ax" d="M321.53,265.38l37.709,35.277-37.709-2.582Z" transform="translate(-237.788 -43.589)"/><g transform="translate(97.306 113.745)"><path class="ax" d="M372.393,203.6c.995-.61,1.964-1.17,2.925-1.7V181.782L361.9,183.637V143.814l-9.352-7.714L348.6,149.781v36.113l-10.84,1.713v1.9l.61.15v64.921h3.569C341.947,254.567,346.009,219.825,372.393,203.6Z" transform="translate(-337.76 -136.1)"/></g><path class="ax" d="M433.108,346.606l-.978.025V342.82l39.389,51.123v9.26l-17.292-.109L433.108,366.02Z" transform="translate(-255.954 -56.309)"/></g><path class="ax" d="M388.76,100.09l18.194,15.862,12.561,2.307L407.489,148.7V141.9Z" transform="translate(-63.855 -16.44)"/><path class="ax" d="M480.28,229.35l.735,1.329,15.812,28.2,24.546,3.443V250.2L492.5,245.037l10.606-1.63,13.472-14.057L492.5,232.894" transform="translate(-78.887 -37.671)"/><path class="ax" d="M448.04,267.913l21.353,14.91,16.272,35.394V289.458l.059-13.715,2.323-.251V263.5Z" transform="translate(-73.591 -43.28)"/><path class="ax" d="M508.329,338.2h7.48l6.611,29.251-1.5,7.087-21.9.276Z" transform="translate(-81.963 -55.55)"/><path class="ax" d="M513.2,381.68v6.368l-1.989.05v4.078l-6.2,4.112V416.18a13.521,13.521,0,0,1-13.69,13.514l-7.731-.1,1.011,29.97-32.544-1.346.66-48.749,22.064.1,15.2-1.738,2.566.025V388.09h-1.27v-6.143Z" transform="translate(-74.252 -62.692)"/><path class="ax" d="M474.9,474.17v5.524l40.266,18.4V475.959Z" transform="translate(-78.003 -77.883)"/><path class="ax" d="M354.81,519.835,386.568,537.3l25.114,1.83V503.5l-6.41,1.053-16.824-1.1-1.88-.334v10.848l-13.932,1.822-17.826-.568Z" transform="translate(-58.278 -82.638)"/><path class="ax" d="M243.67,521.012v3.05l13.029,6.185,6.536.593,13.74,7.781v-6.544l17.517,1.58V520.97l-8.274,1.178L269.963,521.1l-9.661,1.663Z" transform="translate(-40.023 -85.57)"/><path class="ax" d="M263.57,339.21l19.03,11.851,9.569,28.014H278.5Z" transform="translate(-43.292 -55.716)"/><g transform="translate(87.687 317.534)"><path class="c" d="M191.8,380.049h0l5.992-.109Z" transform="translate(-119.19 -379.94)"/><path class="c" d="M109.61,381.519l30.07,186.648L146.6,567,115.276,381.41Z" transform="translate(-105.69 -380.181)"/><path class="bg" d="M104.92,381.607l28.7,185.912,5.29.669L108.84,381.54Z" transform="translate(-104.92 -380.203)"/><path class="bh" d="M197.792,379.94l-5.992.109L225.447,577.06l7.772.978Z" transform="translate(-119.19 -379.94)"/><path class="c" d="M240.172,576.884,207.119,379.94H198.97l35.427,198.1Z" transform="translate(-120.368 -379.94)"/></g><g transform="translate(0 255.664)"><path class="c" d="M5.33,625.69Z" transform="translate(-0.875 -358.434)"/><path class="bi" d="M103.424,305.91h0l-4.739.318L0,572.455l4.455.71Z" transform="translate(0 -305.91)"/><path class="c" d="M116.016,308.743,104.3,305.91,5.33,573.166h0l14.676-2.039Z" transform="translate(-0.875 -305.91)"/></g><g transform="translate(63.467 372.134)"><path class="bj" d="M75.94,447.293l.184-2.023,110.135.284.41,1.939Z" transform="translate(-75.94 -445.27)"/></g><g transform="translate(43.827 424.276)"><path class="bk" d="M52.44,507.66v2.031l73.462,1.8.585-1.889Z" transform="translate(-52.44 -507.66)"/></g><g transform="translate(79.998 248.937)"><path class="bl" d="M116.179,301.579l-1.763,3.452,4.73-.318,38.879-2.616a17.321,17.321,0,0,1,17.718,22.381L95.72,584.02l7.254,1.162L179.27,324.7a20.353,20.353,0,0,0-20.927-26.025Z" transform="translate(-95.72 -297.986)"/><g transform="translate(7.254)"><path class="c" d="M159.768,298.545h0A20.347,20.347,0,0,1,180.7,324.571L104.4,585.057l14.918-2.482,73.654-254.861a23.364,23.364,0,0,0-24.053-29.794Z" transform="translate(-104.4 -297.861)"/></g></g><g transform="translate(24.822 474.153)"><path class="bm" d="M102.042,572.471,41.108,567.34H29.7l71.966,6.343Z" transform="translate(-29.7 -567.34)"/><path class="c" d="M29.7,567.34v2.031l71.381,6.21.585-1.9Z" transform="translate(-29.7 -567.34)"/></g><path class="bn" d="M123.75,305.91l7.956,13.121,3.761-10.288Z" transform="translate(-20.326 -50.246)"/><path class="bn" d="M75.94,447.69l7.4,5.357,1.922-5.265Z" transform="translate(-12.473 -73.534)"/><path class="bn" d="M52.44,510.09l9.82.242-2.3,6.285Z" transform="translate(-8.613 -83.783)"/><g transform="translate(528.084 457.422)"><path class="e" d="M640.938,556.02c-.936-1.789-4.312-6.836-5.558-8.7h-3.51v14.032s2.323,3.36,4.914,4.655C642.6,566.559,642.1,558.227,640.938,556.02Z" transform="translate(-631.87 -547.32)"/><path class="k" d="M643.14,555.621c-1.446-2.031-5.917-8.291-5.917-8.291H636.07c1.245,1.855,4.622,6.911,5.558,8.7,1.162,2.206,1.663,10.539-4.154,10a3.645,3.645,0,0,0,2.708.384C643.6,565.357,644.586,557.643,643.14,555.621Z" transform="translate(-632.56 -547.322)"/></g><path class="bn" d="M29.7,569.77l8.391,6.21,1.939-5.307Z" transform="translate(-4.878 -93.586)"/><path class="bn" d="M198.1,379.94l-1.7.109-2.75,9.528,2.683,15.211,3.193-16.824Z" transform="translate(-31.807 -62.406)"/><g transform="translate(286.023 245.188)"><g transform="translate(5.968 277.982)"><path class="i" d="M359.305,643.444c-5.483.075-8.625-1.956-9.9-3.034.008,1.245.008,2.123.008,2.248,0,.485,3.819,4.3,14.057,3.009,4.1-.518,8.692-.978,12.72-1.337l-.234-2.733A114.408,114.408,0,0,1,359.305,643.444Z" transform="translate(-349.383 -628.359)"/><path class="e" d="M384.272,629.241l-16.414-2.858-16.9-.393s-1.463.485-1.546,1.22c-.059.543-.033,7.229-.008,10.831,1.279,1.078,4.413,3.109,9.9,3.034a115.54,115.54,0,0,0,16.656-1.847l.234,2.733c6.009-.535,10.764-.861,10.764-.861Z" transform="translate(-349.377 -625.99)"/></g><path class="m" d="M351.27,619.388v6.26s2.582,3.084,10.564,3.084c6.828,0,6.335-3.594,6.335-3.594V618.41Z" transform="translate(-343.72 -346.763)"/><g transform="translate(25.149 281.267)"><path class="e" d="M409.729,641.094c1.379-.292,1.847-1.713,1.989-2.95A4.6,4.6,0,0,0,408,633.681l-17.191-3.368-16.9-.393s-1.463.485-1.546,1.22c-.059.552-.033,7.455-.008,11.015,1.036.852,4.078,2.917,9.436,3C388.535,645.256,407.18,641.637,409.729,641.094Z" transform="translate(-372.327 -629.92)"/><path class="i" d="M409.733,642.712c-2.549.535-21.186,4.162-27.947,4.053-5.357-.084-8.4-2.148-9.436-3,.008,1.153.008,1.947.008,2.073,0,.485,3.819,4.3,14.057,3.009,7.3-.928,16.122-2.733,20.584-3.694a6.173,6.173,0,0,0,4.221-3.259h0a4.561,4.561,0,0,0,.493-2.123C411.58,641,411.112,642.419,409.733,642.712Z" transform="translate(-372.331 -631.538)"/></g><path class="m" d="M374.21,620.2v8.75s2.273,3.109,9.427,3.109c6.368,0,6.335-3.736,6.335-5.115V619.39Z" transform="translate(-347.488 -346.924)"/><path class="bo" d="M388.65,313.43a16.12,16.12,0,0,0,4.229,3.961c1.229.886-.15,2.549-1.713,1.763S388.65,313.43,388.65,313.43Z" transform="translate(-349.859 -296.669)"/><path class="ax" d="M388.15,313.43c.919,1.555,3.41,3.076,4.638,3.961s-.56,2.549-2.123,1.763" transform="translate(-349.777 -296.669)"/><path class="bo" d="M400.892,353.934s16.013-22.849,17.751-25.1,7.246-7.246,10.815-7.137,4.179,2.248,2.039,2.549-3.56.61-3.56.61l-3.87,10.84v6.669l-16.188,47.989a4.755,4.755,0,0,1-6.736,2.557l-18.1-9.812Z" transform="translate(-348.938 -298.027)"/><path class="bo" d="M363.556,341.785V329.307L358.75,311.1l18.127-8.006,2.173.844s8.617,14.249,10.472,17.785,2.19,11.132-7.079,12.394v9.862Z" transform="translate(-344.948 -294.971)"/><g transform="translate(34.879 31.044)"><path class="ax" d="M383.97,330.52s2.616,4.221,2.616,8.09c6-.819,7.973-4.279,8.124-7.58C394.166,335.075,383.97,330.52,383.97,330.52Z" transform="translate(-383.97 -330.52)"/></g><path class="e" d="M351.794,320.324l5.842,9.636a5.522,5.522,0,0,0,7,2.165l5.549-2.524a3.161,3.161,0,0,0,1.73-3.753L368,312.3l3.569,1.337s3.067.669,4.045-.259-3.393-5.4-3.393-5.4,6.962-2.491,7.279-1.972.919,1.529.919,1.529,2.148-3.828-1.145-6.343c0,0,6.068-4.112-.409-6.276s-16.807-3.293-26.535,5.349C343.1,308.439,351.017,319.045,351.794,320.324Z" transform="translate(-343.165 -293.375)"/><path class="q" d="M343.813,456.11s-.7,92.685,3.92,135.525c0,0,3.109,7.981,19.348,3.31l3.585-3.2-1.2-133.72Z" transform="translate(-342.488 -320.105)"/><path class="bp" d="M357.6,479.573a13.573,13.573,0,0,1-5.951,2.917c-.334.084,3.995,2.457,3.995,2.825s.008.727.017,1.1c.343,24.838,1.521,96.989,3.719,113.653,0,0,9.143-.209,11.115-3.034C372.707,593.87,381.107,464.964,357.6,479.573Z" transform="translate(-343.778 -323.769)"/><path class="q" d="M351.66,478.7l10.915,3.318s2.273,94.047,5.115,112.809c0,0,2.816,3.527,12.854,3.527,7.505,0,8.867-4.321,8.867-4.321s5.349-83.926,5.349-104.962V455.3H357.911" transform="translate(-343.784 -319.972)"/><path class="ax" d="M343.813,455.974v.66s19.439,13.313,49.652,8.149v-9.5l-49.685.084Z" transform="translate(-342.489 -319.968)"/><path class="bo" d="M377.866,318.615s-4.939-5.608-7.664-4.012.568,6.945,4.221,8.642,4.221-1.337,4.221-1.337" transform="translate(-346.664 -296.815)"/><path class="q" d="M363.27,351.972v-3a1.532,1.532,0,0,1,.535-1.17,16.97,16.97,0,0,1,10.589-3.886,35.519,35.519,0,0,1,9.335.769,1.554,1.554,0,0,1,1.178,1.5v4.354Z" transform="translate(-345.691 -301.673)"/><g transform="translate(0 44.078)"><path class="bo" d="M484.431,372.589l-1.27.251,1.621-2.758a.854.854,0,0,0-1.279-1.095l-3.844,3.176s.969-2.14,1.747-3.4-.293-2.231-1.262-1.555-7.48,7-7.48,7,.109-3.142-.585-3.3c-1.137-.267-2.432,2.332-3.009,4.078s-2.541,6.77-2.541,6.77l-18.654,9.678s-8.107-8.157-18.044-17.041c3.176,2.875-2.156,17.7-8.082,24.212l20.818,9.9a11.178,11.178,0,0,0,12.545-2.022c7.9-7.564,21.671-20.718,24.07-22.841,3.4-3.009,5.925-9.619,5.925-9.619v-.869A.569.569,0,0,0,484.431,372.589Z" transform="translate(-355.296 -349.543)"/><path class="c" d="M417.841,369.587c-10.99-9.828-24.228-20.543-31.249-22.114-13.364-2.992-30.171-2.766-38,19.122s-6.218,71.632-6.218,71.632c34.165,10.413,55.435,0,55.435,0l.1-47.629,9.77,5.056,2.081-1.847C415.693,387.3,421.017,372.462,417.841,369.587Z" transform="translate(-342.236 -346.116)"/></g><line class="bq" x2="2.014" y2="2.106" transform="translate(92.579 85.961)"/><path class="ax" d="M407.488,398.609l-6.928-3.719,6.912,12.018Z" transform="translate(-351.816 -310.049)"/><line class="bq" x1="6.928" y1="3.719" transform="translate(48.744 84.841)"/></g><line class="bq" x1="2.708" y2="3.527" transform="translate(407.686 311.884)"/><line class="bq" x1="4.062" y2="4.797" transform="translate(409.834 312.561)"/><g transform="translate(34.555 60.684)"><path class="n" d="M243.34,85.99s3.31-8.867,3.544-10.606.928-2.775,1.387-2.775c.978,0,1.4,1.5,1.78,4.63.443,3.661-3.552,8.491-3.552,8.491Z" transform="translate(-74.524 -72.61)"/><path class="ax" d="M267.375,79.43l.292,1.814a7.512,7.512,0,0,1-3.034,2.917c-1,.46-4.53,12.352-4.973,18.579l-4.4.836L252.85,88.18l11.216-7.263Z" transform="translate(-76.086 -73.73)"/><path class="br" d="M235.92,98.053s4.421-7.965,5.75-10.84,4.312-9.009,5.917-10,9.511-2.875,12.11-2.984,7.63.217,7.739,1.162-1.1,1.437-1.989,1.5c0,0,.819,1.095-1.5,1.989,0,0,1.028,2.156-2.29,3.151a14.086,14.086,0,0,0-7.605,5.967c-1.329,2.323-6.527,13.765-6.527,13.765Z" transform="translate(-73.305 -72.872)"/><path class="bs" d="M142.949,227.207,129.4,240.972l5.934,20.969-6.686,10.221s-12.311-16.414-16.874-29.184a7.4,7.4,0,0,1,1.137-7.045c6.026-7.739,22.106-28.382,28.858-36.689C150.153,188.921,142.949,227.207,142.949,227.207Z" transform="translate(-52.843 -93.12)"/><g class="bd" transform="translate(80.852 104.363)"><path d="M146.163,199.252c-1.88,2.315-4.488,5.591-7.4,9.268l-.284,2.633a68.092,68.092,0,0,0,.886,20.467l.61,3.084,7.371-7.488C147.341,227.208,154.546,188.923,146.163,199.252Z" transform="translate(-138.088 -197.483)"/></g><path class="k" d="M237.04,99.469v-.827s1.546-3.761,2.766-4.588,5.023-1.538,8.625.719c4.062,2.541,2.816,4.964,1.27,7.781S237.04,99.469,237.04,99.469Z" transform="translate(-73.489 -76.001)"/><path class="bt" d="M141.06,232.643c3.945-7.5,6.243-24.253,10.681-38.829,0,0,22.49-7.589,29.836-20.952s35.87-68.857,39.64-74.373c3.318-4.856,15.812-2.29,12.8,4.722s-25.223,51.942-33.071,73.32-13.8,53.413-17,66.292S143,237.992,143,237.992Z" transform="translate(-57.724 -76.45)"/><path class="e" d="M182.89,178.909s19.841,42.272-10.865,49.368c-20.651,4.772-23.317-10.957-22.858-21.771,0,0-4.889-6.811-3.619-13.74s9.77-16.6,7.421-23.217-4.956-17.584,3.5-24.855a18.128,18.128,0,0,1,17.559-3.753s7.321-4.53,11.115,2.6-.735,10.113-.735,10.113l.995,7.346a8.735,8.735,0,0,0,3.778,6.076h0Z" transform="translate(-58.427 -83.601)"/><path class="br" d="M190.633,166.3a9.082,9.082,0,0,1-3.535-2.348c-2.917-.3-6.594-5.549-4.028-7.129s6.1,4.613,6.1,4.613c1.78-.928,1.1-1.906.527-2.666s-5.474-6.026-2.833-8.14,5.416,2.34,5.416,2.34c.3.861,1.563,4.923,1.563,4.923a20.027,20.027,0,0,1,2.549,8.725l-1.32,2.516-1.546-1.262A9.263,9.263,0,0,0,190.633,166.3Z" transform="translate(-64.482 -85.331)"/><path class="e" d="M131.035,280.5c1.371,4.714,7,10.647,7,10.647l-6.845,41.829s-12.8,59.163-12.929,60.232,3.961,2.75,10.447,3.585a63.229,63.229,0,0,0,9.528.61,1.7,1.7,0,0,0,1.588-1.22c1.914-6.485,11.475-38.988,18.286-63.517,7.605-27.379,13.69-60.842,13.539-63.425s-7.3-8.976-19.473-11.558a48.432,48.432,0,0,0-23.426,1.371,55.433,55.433,0,0,0-7.154,11.416c-3.669,8.474-6.042,19.03-9.277,26.3C106.84,309.095,102.126,324,102.126,324S72.557,348.2,67.551,352.779a3.1,3.1,0,0,0-.936,1.613,24.553,24.553,0,0,0,.226,10.681c1.437,5.048,5.474,8.976,7.756,8.366s41.679-30.722,47.153-34.684,30.856-56.848,30.856-56.848" transform="translate(-45.417 -102.866)"/><ellipse class="bu" cx="4.304" cy="9.686" rx="4.304" ry="9.686" transform="translate(20.307 251.473) rotate(-13.539)"/><path class="bv" d="M75.594,381a16.307,16.307,0,0,0-3.284-6.912L66.685,377.3l-5.265,3.009,3.109,13.957,6.435-3.87,5.1-3.067A17.887,17.887,0,0,0,75.594,381Z" transform="translate(-44.643 -122.129)"/><g class="bd" transform="translate(23.329 251.961)"><path d="M76.882,381A16.307,16.307,0,0,0,73.6,374.09l-4.338,2.474c1.839.953,6.77,4.271,6.034,12l2.056-1.237A17.886,17.886,0,0,0,76.882,381Z" transform="translate(-69.26 -374.09)"/></g><path class="e" d="M54.3,398.37c1.6-4.622,2.666-13.6-.359-14.876a4.9,4.9,0,0,0-5.148.8c-.752.735-.786,1.722-1.112,2.959h0c-1.162,5.332-3.5,15.862-5.065,21.027-1.488,4.923-2.089,10.347.543,12.595.008.008.025.017.033.033.092.075.192.15.293.226.017.008.025.017.042.025s.042.025.059.033C48.261,423.877,52.757,402.841,54.3,398.37Z" transform="translate(-41.346 -123.609)"/><g transform="translate(2.226 254.623)"><path class="q" d="M67.94,384.258c-.476-6.661-5.733-7.689-8.441-6.619a51.743,51.743,0,0,0-9.093,4.48c1.07-.694,5.274-2.775,7.421.418s.644,10.447,0,12.921-3.443,11.583-4.555,14.484c-1.1,2.883-3.3,11.4-7.363,10.9a6.815,6.815,0,0,0,1.061.134c5.959.175,9.469-11.2,14.626-18.754S68.417,390.927,67.94,384.258Z" transform="translate(-44.322 -377.275)"/><path class="q" d="M48.93,388.07Z" transform="translate(-44.818 -379.048)"/><path class="k" d="M52.953,410.635c1.112-2.9,3.911-12.01,4.555-14.484s2.148-9.728,0-12.921-6.343-1.112-7.421-.418a3.3,3.3,0,0,0-1.4,1.521c-.117.552-.318,1.479-.577,2.658.326-1.237.368-2.223,1.112-2.958a4.9,4.9,0,0,1,5.148-.8c3.025,1.279,1.956,10.255.359,14.876-1.546,4.471-6.042,25.5-10.723,22.816a4.662,4.662,0,0,0,1.563.61C49.66,422.034,51.849,413.518,52.953,410.635Z" transform="translate(-44.01 -377.969)"/></g><path class="bu" d="M149.068,423.025c-.1.719-4.48.685-9.778-.075s-9.77-2.1-9.67-2.808,4.747-.535,10.037.217S149.168,422.306,149.068,423.025Z" transform="translate(-55.845 -129.619)"/><path class="bv" d="M140.109,420.368c-2.165-.309-4.221-.518-5.9-.618l-.476,2.023-1.362,5.75,14.116.334,1-4.321.351-1.513A46.9,46.9,0,0,0,140.109,420.368Z" transform="translate(-56.297 -129.628)"/><g class="bd" transform="translate(77.176 290.122)"><path d="M140.326,420.368c-2.165-.309-4.221-.518-5.9-.618l-.476,2.023-.259,1.095a68.425,68.425,0,0,1,14.132.159l.234-1A46.9,46.9,0,0,0,140.326,420.368Z" transform="translate(-133.69 -419.75)"/></g><g transform="translate(58.957 289.445)"><g class="bw"><path class="q" d="M165.163,439.579a8.527,8.527,0,0,0-3.711-3.711c-2.641-1.438-12.678-9.5-13.18-9.77s-4.346-.267-7.355-.267-10.505-.267-10.84.5c-.251.577-1.529,9.085-2.148,13.238C132.217,439.562,152.844,439.571,165.163,439.579Z" transform="translate(-114.525 -420.064)"/></g><g class="bw"><path class="k" d="M127.892,442.288c-.067.476-.134.894-.184,1.237a.884.884,0,0,0,.878,1.011h36.129a.8.8,0,0,0,.8-.861,4.629,4.629,0,0,0-.393-1.387C152.806,442.28,132.18,442.271,127.892,442.288Z" transform="translate(-114.487 -422.773)"/></g></g><path class="bx" d="M143.79,285.16c1.371,4.714,7,10.647,7,10.647L145.8,326.254" transform="translate(-58.173 -107.522)"/><path class="bq" d="M258.17,81.217a43.377,43.377,0,0,1,8.976-1.947.437.437,0,0,1,.46.343" transform="translate(-76.96 -73.704)"/><path class="bq" d="M258,77.967s5.792-1.237,10.213-1.638a.835.835,0,0,1,.852.543h0" transform="translate(-76.932 -73.22)"/></g><path class="o" d="M588.349,521.4l-.652,5.182L567.271,554.4a10.993,10.993,0,0,0,.777,13.957h0a10.993,10.993,0,0,0,10.89,3.184l44.637-11.784L611.917,521.4Z" transform="translate(-92.825 -85.641)"/><path class="ax" d="M612.07,550.26c-.15.042-.209-.058-19.74,13.723l23.108-5.391Z" transform="translate(-97.291 -90.381)"/><g transform="translate(520.75 469.817)"><g transform="translate(0.005)"><path class="e" d="M640.267,568.193a56.652,56.652,0,0,1-3.251-5.558c-1.162-2.666-11.366,6.552-11.366,6.552l1.162,5.625-.577,2.608c2.3-1.839,10.1-1.053,11.943,4.53,1.045-1.27,1.63-3.167,1.747-6.151C640.15,569.647,640.794,569.062,640.267,568.193Z" transform="translate(-623.519 -562.151)"/><path class="m" d="M625.816,580.245a8.421,8.421,0,0,0-2.716,5.775c.184,1.655,5.466,2.165,9.67,1.237,2.19-.485,3.853-1.12,4.981-2.482C635.912,579.184,628.114,578.406,625.816,580.245Z" transform="translate(-623.1 -564.977)"/></g><path class="q" d="M639.847,569.38c.518.869-.117,1.454-.351,7.6-.234,6.2-2.491,7.714-6.728,8.642-4.2.919-9.486.409-9.67-1.237a8.658,8.658,0,0,0,.1,1.646s.46,2.842,7.3,2.491,8.583-3.134,9.569-5.976.869-9.686.928-10.723A6.746,6.746,0,0,0,639.847,569.38Z" transform="translate(-623.094 -563.338)"/></g><path class="by" d="M631.165,506.225c1.538-1.237.786-5.391-1.429-9.4s-7.313-25.6-8.675-32.168-7.722-13.564-22.114-12.728-19.231,4.012-29.268,11.14-15.219,11.141-15.219,11.141v16.606S578.814,476.289,582.407,474c0,0,1.8,9.477,2.557,17.709s1.162,12.285,1.63,18.278h43.785Z" transform="translate(-91.071 -74.219)"/><path class="bq" d="M587.409,476.9a45.686,45.686,0,0,0-2.5-7.254" transform="translate(-96.073 -77.141)"/><path class="ax" d="M623.79,480.3l-19.941,34.349H592.784l-.643-7.706Z" transform="translate(-97.26 -78.89)"/><path class="bz" d="M605.827,464.69a91.6,91.6,0,0,1-25.173,25c-14.082,9.26-23.326,15.971-25.582,17.626a1.591,1.591,0,0,0-.643,1.095,17.057,17.057,0,0,0,1.061,8.107c1.839,4.622,3.376,5.7,5.182,5.006s22.248-12.687,32.519-20.409S618.8,476.324,618.8,476.324" transform="translate(-91.048 -76.326)"/><ellipse class="e" cx="2.181" cy="6.72" rx="2.181" ry="6.72" transform="matrix(0.96, -0.279, 0.279, 0.96, 462.966, 432.173)"/><path class="br" d="M556.607,522.206c-1.02-3.493-2.75-6.076-3.9-5.859-.025.008-.05,0-.067.008a.96.96,0,0,0-.242.125l-.008.008-4.455,2.248-6.068-.56a.738.738,0,0,0-.735.418h0a.747.747,0,0,0,.326.986l2.407,1.254a.386.386,0,0,1-.092.719l-9.929,2.357a.785.785,0,0,0-.593.894h0a.787.787,0,0,0,.869.644l8.658-1.07a.071.071,0,0,1,.042.134l-7.538,4.329a.873.873,0,0,0-.251,1.3h0a.867.867,0,0,0,.953.284l7.948-2.624a.072.072,0,0,1,.067.125l-5.073,4.463a.811.811,0,0,0,.034,1.245h0a.8.8,0,0,0,.928.05l5.767-3.552a.071.071,0,0,1,.1.092l-2.048,4.538a.786.786,0,0,0,.485,1.07l.025.008a.78.78,0,0,0,.8-.209l6.778-7.146,2.181-1.287,3.259-1.931A17.876,17.876,0,0,0,556.607,522.206Z" transform="translate(-87.585 -84.809)"/><g class="b" transform="translate(464.643 431.526)"><path d="M560.339,522.206c-1.02-3.493-2.75-6.076-3.9-5.859-.025.008-.05,0-.067.008a.962.962,0,0,0-.242.125l-.008.008-.159.083c.786.769,3.092,3.569,3.084,9.845l1.939-1.145A19.783,19.783,0,0,0,560.339,522.206Z" transform="translate(-555.96 -516.335)"/></g><path class="q" d="M595.812,454.494c-1.864,1.178-2.958,4.145-1.162,5.633s7.388,2.591,13.33-1.713c7.388-5.357,2.541-10.154-2.181-7.238A26.59,26.59,0,0,1,595.812,454.494Z" transform="translate(-97.522 -73.961)"/><path class="br" d="M609.518,449.13l-.6-7.4-.3-3.644-12.845,4.964.368,9.11.075,1.839c.167,4.279,6.619,2.3,10.505.008C608.916,452.716,609.685,451.178,609.518,449.13Z" transform="translate(-97.856 -71.957)"/><path class="ax" d="M607.629,439.939l.986-1.839-12.845,4.964.368,9.11C598.754,451.739,607.562,450.945,607.629,439.939Z" transform="translate(-97.856 -71.959)"/><path class="bq" d="M611.7,464.69a91.381,91.381,0,0,1-21.646,22.54" transform="translate(-96.917 -76.326)"/><g transform="translate(498.828 428.811)"><path class="d" d="M638.13,516.282a8.409,8.409,0,0,1-6.352.911c-3.243-1.036-26.685-10.238-33.3,2.85-6.477,12.837,7.764,23.694,20.292,42.431a1.828,1.828,0,0,0,1.922.786c.911-.192,1.905-.4,3.009-.618,5.165-1.011,7.664-4.538,9.043-6.527a2.616,2.616,0,0,0,.192-2.658l-4.923-9.845s11.659-.518,14.768-8.55S638.13,516.282,638.13,516.282Z" transform="translate(-596.865 -513.086)"/></g><g class="bd" transform="translate(520.445 438.743)"><path d="M622.73,524.97l9.578,20.593c.66-.033,9.812-.66,13.731-6.611C641.534,544.46,625.271,530.461,622.73,524.97Z" transform="translate(-622.73 -524.97)"/></g><g transform="translate(483.941 340.056)"><path class="q" d="M607.624,430.78a.725.725,0,0,0-.084-.05l.025.134A.721.721,0,0,0,607.624,430.78Z" transform="translate(-583.731 -410.804)"/><path class="br" d="M592.313,438.947c1.22-.176,1.078-1.563,1.078-1.563l4.062-.593c3.142-.46,2.44-2.5,2.022-5-.334-1.981-.944-5.29-1.178-6.577a6.04,6.04,0,0,1-8.558-1.3,4.143,4.143,0,0,1-2.566,3.368,4,4,0,0,1-.9.251c.76,3.535,1.63,7.731,2.1,10.347l2.49-.368S591.092,439.122,592.313,438.947Z" transform="translate(-580.237 -409.686)"/><path class="br" d="M611.964,430.8c-.635-3.067-3.034-2.491-4.346-.359a.572.572,0,0,1-.059.092c.376,2.574.836,8.023,2,7.856,0,0,2.582-.894,2.566-5.875A8.417,8.417,0,0,0,611.964,430.8Z" transform="translate(-583.734 -410.466)"/><path class="r" d="M609.237,417.9a5.025,5.025,0,0,0-4.279-4.246,6.545,6.545,0,0,0-.05-1.337,6.35,6.35,0,0,0-10.33-3.978,6.009,6.009,0,0,0-9.135,1.989,3.784,3.784,0,0,0-2.967,4.246.031.031,0,0,0,.008.025,4.542,4.542,0,0,0-3.385,5.065,4.48,4.48,0,0,0,1.145,2.407,3.788,3.788,0,0,0-.1,1.538,3.706,3.706,0,0,0,4.2,3.126,3.743,3.743,0,0,0,1.1-.376s-.368-1.638-.351-1.646a4,4,0,0,0,.9-.251,4.159,4.159,0,0,0,2.566-3.368,6.04,6.04,0,0,0,8.558,1.3c.234,1.287.844,4.6,1.178,6.577.418,2.491,1.12,4.538-2.023,5l-4.062.593s.151,1.379-1.078,1.563-1.463-1.429-1.463-1.429l-2.491.368c.092.5.159.953.217,1.32.51,3.485.777,10.138,9.093,8.215a10.486,10.486,0,0,0,8.391-9.812c-1.153.167-1.613-5.282-2-7.856l-.025-.134a.745.745,0,0,0,.084.05c1.312-2.131,3.711-2.7,4.346.359a2.982,2.982,0,0,0,.61-5.115A5,5,0,0,0,609.237,417.9Z" transform="translate(-579.051 -406.888)"/><path class="ca" d="M587.66,438.525h0a2.8,2.8,0,0,1-3.176-2.365h0a2.8,2.8,0,0,1,2.365-3.176h0a2.8,2.8,0,0,1,3.176,2.365h0A2.8,2.8,0,0,1,587.66,438.525Z" transform="translate(-579.939 -411.17)"/><path class="cb" d="M596.64,437.205h0a2.8,2.8,0,0,1-3.176-2.365h0a2.8,2.8,0,0,1,2.365-3.176h0a2.8,2.8,0,0,1,3.176,2.365h0A2.8,2.8,0,0,1,596.64,437.205Z" transform="translate(-581.414 -410.953)"/><path class="bq" d="M587.66,438.525h0a2.8,2.8,0,0,1-3.176-2.365h0a2.8,2.8,0,0,1,2.365-3.176h0a2.8,2.8,0,0,1,3.176,2.365h0A2.8,2.8,0,0,1,587.66,438.525Z" transform="translate(-579.939 -411.17)"/><path class="bq" d="M596.64,437.205h0a2.8,2.8,0,0,1-3.176-2.365h0a2.8,2.8,0,0,1,2.365-3.176h0a2.8,2.8,0,0,1,3.176,2.365h0A2.8,2.8,0,0,1,596.64,437.205Z" transform="translate(-581.414 -410.953)"/><line class="bq" y1="0.293" x2="1.964" transform="translate(10.086 23.887)"/><line class="bq" y1="1.337" x2="1.906" transform="translate(17.591 21.739)"/><line class="cc" y1="2.307" x2="3.385" transform="translate(20.124 18.965)"/><g class="bd" transform="translate(6.025 14.234)"><path d="M587.163,428.433a4,4,0,0,0,.9-.251,4.148,4.148,0,0,0,2.549-3.285,6.168,6.168,0,0,1-.886-.978,4.143,4.143,0,0,1-2.566,3.368,4,4,0,0,1-.9.251c.067.3.134.61.192.919A3.57,3.57,0,0,0,587.163,428.433Z" transform="translate(-586.26 -423.92)"/><path d="M597.323,427.5a5.891,5.891,0,0,0,2.106-.727c-.1-.535-.184-1-.242-1.329a6.04,6.04,0,0,1-7.447-.117A6.065,6.065,0,0,0,597.323,427.5Z" transform="translate(-587.16 -424.152)"/></g></g><g transform="translate(528.26 285.222)"><path class="cd" d="M654.152,468.268l-3.485-5.767-1.379-2.282a51.862,51.862,0,0,0-9.294-11.349l-7.915-7.263,54.1-10.647,7.915,7.263a52.1,52.1,0,0,1,9.293,11.349l1.379,2.282,3.485,5.767,11.082,21.98-55.987,14.55Z" transform="translate(-632.08 -356.008)"/><g transform="translate(31.023 84.104)"><path class="q" d="M684.089,482.987l-6.118,1.546-6.761-16.147,6.109-1.546Z" transform="translate(-669.53 -446.005)"/><path class="q" d="M708.359,476.835l-6.109,1.546-6.77-16.147,6.118-1.555Z" transform="translate(-673.517 -444.993)"/><path class="r" d="M669.2,464.718l30.781-7.806-2.315-1.521a133.132,133.132,0,0,0-20.71-11.14l-5.449-2.34h0c.585,7.848.46,11.868-.986,18.6Z" transform="translate(-669.2 -441.91)"/><g transform="translate(7.789 17.241)"><path class="ce" d="M678.52,466.134l6.769,16.147,3.527-.894-2.106-5.023c-1.036-2.474-.284-4.872,1.68-5.374s4.4,1.1,5.432,3.569l2.106,5.023,3.527-.894-6.761-16.147Z" transform="translate(-678.52 -462.54)"/></g></g><path class="bn" d="M718.36,463.99l5.992,6.912-.919-6.694Z" transform="translate(-646.252 -361.433)"/><path class="bn" d="M665.62,467.94l5.374,7.839,7.263,5.992H667.333Z" transform="translate(-637.589 -362.082)"/><path class="cf" d="M685.742,715.288l-11.049.969c-4.4-1.061-11.375-3.067-16.214-1.788-5.541,1.463-3.585,5.541-3.585,5.541s2.2,5.625,19.874,13.522,22.406,6.761,24.521,5.048,7.33-14.341,7.087-15.963S696.138,713.332,685.742,715.288Z" transform="translate(-635.772 -402.507)"/><path class="bv" d="M694,707.78s-3.193,8.692-3.268,9.745,2.7,5.792,10.932,6.628c3.61.368,6.343-.644,7.739-2.365s3.343-7,4.722-11.483C716.889,701.345,694,707.78,694,707.78Z" transform="translate(-641.713 -401.109)"/><g class="bd" transform="translate(50.914 304.435)"><path d="M694.371,707.78s-.644,1.805-1.371,3.92c2.14,3.159,7.94,9.971,17.592,8.8a66.383,66.383,0,0,0,3.9-10.2C717.262,701.345,694.371,707.78,694.371,707.78Z" transform="translate(-693 -705.543)"/></g><path class="cg" d="M756.222,378.061h-4.655a1.944,1.944,0,0,1-1.947-1.947v-3.427a1.944,1.944,0,0,1,1.947-1.947h4.655a1.944,1.944,0,0,1,1.947,1.947v3.427A1.949,1.949,0,0,1,756.222,378.061Z" transform="translate(-651.386 -346.117)"/><path class="bq" d="M756.222,378.061h-4.655a1.944,1.944,0,0,1-1.947-1.947v-3.427a1.944,1.944,0,0,1,1.947-1.947h4.655a1.944,1.944,0,0,1,1.947,1.947v3.427A1.949,1.949,0,0,1,756.222,378.061Z" transform="translate(-651.386 -346.117)"/><path class="br" d="M668.952,480.051s-3.2-.969-3.343-1.788-1.546-9.636-2.181-10.363-1.789.142-1.939,1.939-.385,5.132-.727,5.332-3.293-.869-3.293-.869l-3.485-5.767s-2.031,2.273-.435,4.212a4.524,4.524,0,0,0-1.07,4.4s-.919,2.566,2.081,5.859,5.716,6.393,14.383,7.221C677.627,491.05,668.952,480.051,668.952,480.051Z" transform="translate(-635.397 -362.033)"/><path class="q" d="M672.833,481.219a6.587,6.587,0,0,0-5.09.242c-2.374,1.312-4.12,4.555-2.766,8.533s6.544,2.908,6.544,2.908Z" transform="translate(-637.406 -364.195)"/><path class="br" d="M726.159,459.005a15.419,15.419,0,0,0-6.678-1.755l2.658,4.379-2.825-.928a1.228,1.228,0,0,0-1.6,1.011h0a1.226,1.226,0,0,0,.535,1.17l5.675,3.769Z" transform="translate(-646.145 -360.326)"/><path class="e" d="M740,517.659S692.322,674.88,691.913,676.318s2.674,8.834,9.862,10.48,12.7-1.237,14.166-2.674,27.764-68.439,36.6-88.781,13.773-28.156,13.773-28.156,15,50.964,18.9,57.341,42.13,54.048,44.395,54.875,8.516-1.112,13.038-4.814,8.75-9.578,8.341-11.425S813.172,612.4,813.172,612.4l-14.592-56.313s-3.193-28.975-10.129-34.734S740,517.659,740,517.659Z" transform="translate(-641.902 -370.189)"/><ellipse class="bu" cx="12.243" cy="4.22" rx="12.243" ry="4.22" transform="translate(185.245 304.052) rotate(-38.222)"/><path class="bv" d="M877.709,697.178l-1.972-2.482-3.343-4.2a25.922,25.922,0,0,0-8.357,4.638,26.682,26.682,0,0,0-6.276,6.711c1.153,1.421,2.432,2.975,3.6,4.4,2.165,2.633,3.978,4.814,3.978,4.814l12.912-11.517Z" transform="translate(-669.148 -398.638)"/><g class="bd" transform="translate(188.612 291.871)"><path class="e" d="M875.687,694.639l-3.293-4.129a25.919,25.919,0,0,0-8.357,4.638,26.682,26.682,0,0,0-6.276,6.711c.585.719.46.568,1.078,1.32C862.641,698.458,868.424,693.385,875.687,694.639Z" transform="translate(-857.76 -690.51)"/></g><g transform="translate(178.454 295.569)"><path class="cf" d="M878.621,700.1c-3.761-5.541-5.7-7.129-13.063-2.24s-5.867,8.491-5.7,12.636a41.017,41.017,0,0,1-.777,9.235s-.878.485-6.9,3.109-7.229,5.474-6.285,8.357,12.419,2.566,16.849,2.223a16.892,16.892,0,0,0,2.616-.476c4.847-1.237,11.776-4.379,12.929-4.831,1.4-.543,1.688-2.616,3.309-5.792a47.992,47.992,0,0,0,3.1-9.745,14.333,14.333,0,0,0,.393-2.666C885.073,708.169,882.382,705.637,878.621,700.1Z" transform="translate(-845.606 -694.935)"/><path class="ch" d="M885.288,711.085c-3.042.284-6.151,2.758-7.948,10.179s-3.477,12.862-8.09,14.333c4.847-1.237,11.776-4.379,12.929-4.831,1.4-.543,1.688-2.616,3.31-5.792a48,48,0,0,0,3.1-9.745C889.141,712.907,888.322,710.792,885.288,711.085Z" transform="translate(-849.489 -697.583)"/></g><path class="cf" d="M747.036,514.036s-.543,10.1.677,11.433,6.636,8.608,26.828,8.608,27.63-8.533,27.212-13.063-.618-10.3-.618-10.3Z" transform="translate(-650.942 -369.107)"/><path class="bx" d="M799.826,561.46l-16.172,7.413-2.725,5.566" transform="translate(-656.529 -377.443)"/><path class="ci" d="M749.616,406.442s-5.85,3.953-14.693,9.009-11.851,15.8-13.748,23.225-8.692,30.179-8.692,30.179-32.711-.794-38.561-.794-10.906,10.589-1.9,14.851c5.892,2.791,27.947,7.338,42.5,10.154a15.878,15.878,0,0,0,17.918-10.112l.418-1.145s-.318,14.851.476,18.8,10.113,11.851,30.814,10.907,25.281-10.271,25.123-14.066-.635-12.01-.635-12.01,13.907,1.262,13.43-13.907-5.056-45.983-11.692-52.46-16.907-11.533-20.384-12.645S749.616,406.442,749.616,406.442Z" transform="translate(-637.834 -351.899)"/><path class="q" d="M745.78,496.73" transform="translate(-650.755 -366.811)"/><line class="bq" y1="33.973" x2="11.224" transform="translate(95.025 95.946)"/><line class="bq" x2="4.271" y2="51.992" transform="translate(146.54 81.563)"/><path class="q" d="M669.08,482.22" transform="translate(-638.157 -364.427)"/><g transform="translate(101.577 15.739)"><path class="br" d="M765.529,398.262v-5.148s-11.207,3.2-11.517-8.04-.393-24.964-.393-24.964h27.045l.861,34.876v5.775l-14.743,2.265Z" transform="translate(-753.62 -360.11)"/><g class="bd" transform="translate(2.758 26.184)"><path d="M766.071,391.44s-5.29,8.683-9.151,5.24c3.376,3.226,9.151,1.58,9.151,1.58h0Z" transform="translate(-756.92 -391.44)"/></g></g><path class="e" d="M756.862,361.07a14.79,14.79,0,0,1-6.009-1.638c-2.415-1.479-1.4-5.223,0-6.711,0,0-6.427-1.095-3.677-6.168s26.376-8.449,35.126-.7c8.675,7.681,4.964,19,3.243,23.844s-4.187,6.636-4.805,9.6.7,6.786-4.371,6.945-9.285.443-9.887-4.5c-.585-4.789-2.758-6.711-2.758-6.711s4.521-5.457,1.638-8.115-5.925,2.808-6.084,8.658c0,0-2.181.468-2.181-.159C757.1,374.8,756.862,361.07,756.862,361.07Z" transform="translate(-650.872 -341.277)"/><path class="cf" d="M775.883,411.335c-8.968,0-12.4-2.106-12.4-5.223s3.669-4.287,3.669-4.287V403.7s2.808,2.081,7.873,1.738a14.1,14.1,0,0,0,8.107-3.142l-.025-1.872a4.518,4.518,0,0,1,3.535,4.446C786.563,408.527,781.866,411.335,775.883,411.335Z" transform="translate(-653.663 -350.992)"/><path class="bq" d="M754.57,387.24a2.5,2.5,0,0,0,1.964-1.02" transform="translate(-652.199 -348.659)"/></g><path class="br" d="M595,443.2l-2.432.359a1.073,1.073,0,0,0-.911,1.229h0a1.073,1.073,0,0,0,1.229.911l2.432-.359a1.073,1.073,0,0,0,.911-1.229h0A1.09,1.09,0,0,0,595,443.2Z" transform="translate(-97.179 -72.794)"/><line class="bq" x1="1.095" y2="4.129" transform="translate(601.806 402.179)"/></svg>