<svg xmlns="http://www.w3.org/2000/svg" width="67.779" height="27.361" viewBox="0 0 67.779 27.361"><defs><style>.a{isolation:isolate;}</style></defs><g class="a" transform="translate(0)"><path d="M-69.314-25.744h.205c.656,0,1.366-.123,1.366-.943s-.766-.9-1.4-.9h-.171Zm0,2.733h-.642v-5.152h.738c1.585,0,2.077.547,2.077,1.49,0,1.086-.827,1.5-1.8,1.5h-.369Z" transform="translate(77.873 50.16)"/><path d="M-61.167-27.009l-.916,2.084h1.831Zm-1.182,2.672-.588,1.292h-.69l2.46-5.37,2.46,5.37h-.69l-.588-1.292h-2.363Z" transform="translate(76.975 50.196)"/><path d="M-53.566-25.723h.205c.656,0,1.366-.124,1.366-.943s-.766-.923-1.4-.923h-.171ZM-51-23.01h-.778L-53.3-25.19h-.267v2.18h-.642v-5.152h.779a2.729,2.729,0,0,1,1.359.239,1.428,1.428,0,0,1,.676,1.23,1.4,1.4,0,0,1-1.237,1.442L-51-23.011Z" transform="translate(75.64 50.16)"/><path d="M-45.392-23.01h-.642v-4.564h-1.223v-.588h3.089v.588h-1.223Z" transform="translate(74.654 50.16)"/><path d="M-39.956-28.449l3.867,4.052V-28.2h.642v5.363l-3.867-4.052v3.84h-.642Z" transform="translate(73.619 50.201)"/><path d="M-30.29-28.162h2.767v.588h-2.125v1.442h2.063v.588h-2.063V-23.6h2.125v.588H-30.29Z" transform="translate(72.248 50.16)"/><path d="M-22.315-25.723h.205c.656,0,1.366-.124,1.366-.943s-.766-.923-1.4-.923h-.171Zm2.562,2.713h-.778l-1.517-2.18h-.266v2.18h-.642v-5.152h.779a2.727,2.727,0,0,1,1.359.239,1.427,1.427,0,0,1,.676,1.23,1.4,1.4,0,0,1-1.237,1.442l1.626,2.241Z" transform="translate(71.208 50.16)"/><path d="M-13.205-27.2a.882.882,0,0,0-.827-.485.812.812,0,0,0-.861.73c0,.4.4.615.717.738l.369.143c.73.287,1.278.69,1.278,1.551a1.588,1.588,0,0,1-1.647,1.606,1.6,1.6,0,0,1-1.592-1.441l.65-.136a.964.964,0,0,0,1,.977.969.969,0,0,0,.95-1c0-.553-.445-.793-.888-.977l-.354-.15c-.588-.253-1.121-.588-1.121-1.305a1.4,1.4,0,0,1,1.516-1.332,1.469,1.469,0,0,1,1.326.778l-.512.307Z" transform="translate(70.189 50.178)"/><path d="M-40.919-37.181a5.285,5.285,0,0,1-.395-2.437v-7.775h-1.375v-2.484l.175.018c.518.052.75.081,1.228.106V-52.82l2.7-.975v4.049h2.276a4.579,4.579,0,0,0,1.22-.167l.225-.06-.026.232a10.713,10.713,0,0,1-.251,1.633.843.843,0,0,1-.571.654,2.393,2.393,0,0,1-.655.061H-38.59v7.23a3.688,3.688,0,0,0,.2,1.479.894.894,0,0,0,.93.511,3.647,3.647,0,0,0,2.518-1.411l.292-.316-.015.43a12.27,12.27,0,0,1-.2,2.25.916.916,0,0,1-.474.656,5.317,5.317,0,0,1-2.811.714h-.025a2.791,2.791,0,0,1-2.748-1.331Z" transform="translate(74.006 53.795)"/><path d="M-31.621-35.448l.077-.214c.221-.613.36-.941.362-4.673v-2.433c0-1.174,0-2.719-.086-3.861a4.14,4.14,0,0,0-.306-1.472l-.053-.148,2.8-1.041.156,1.225a4.039,4.039,0,0,1,2.948-1.279,2.083,2.083,0,0,1,.587.075.672.672,0,0,1,.547.631,2.913,2.913,0,0,1-.149.7l-.449,1.475-.154-.051a2.289,2.289,0,0,0-.866-.165,3.171,3.171,0,0,0-2.3,1.024v5.318c0,1.977.027,2.743.085,3.452a4.434,4.434,0,0,0,.279,1.226l.07.209h-3.541Z" transform="translate(72.438 53.164)"/><path d="M-21.793-35.439l.082-.216c.219-.579.36-.939.361-4.67v-2.491c0-1.116,0-2.719-.087-3.8a4.805,4.805,0,0,0-.333-1.474l-.06-.157,3.175-1.037v8.955c0,1.977.028,2.744.085,3.452a4.434,4.434,0,0,0,.279,1.226l.07.21h-3.574Z" transform="translate(71.048 53.155)"/><path d="M-11.815-49.077h.136l.021.136a5.85,5.85,0,0,0,1.091,2.481l1.6,2.3c2.452-2.83,2.727-3.683,2.924-4.781l.023-.132H-3l-.076.213a18.351,18.351,0,0,1-4.47,6.582l2.932,4.188a19.632,19.632,0,0,0,1.964,2.418l.245.267H-6.5v-.16c-.006-.608,0-.7-1-2.23l-1.923-2.817c-.847.888-2.669,2.946-3.059,5.075l-.024.13h-3.2l.082-.215a20.51,20.51,0,0,1,4.755-6.865l-2.532-3.7a30.576,30.576,0,0,0-2-2.621l-.227-.263Z" transform="translate(70.181 53.126)"/><path d="M-49.083-39.3a1.763,1.763,0,0,1-.9,1.518,2.478,2.478,0,0,1-1.251.347,1.488,1.488,0,0,1-1.624-1.624c0-1.917,2.023-2.423,3.78-2.5Zm3.743,2.738c-.694-.6-.99-.947-1-2.684V-45.6a4.035,4.035,0,0,0-.533-2.353c-.542-.793-1.619-1.39-3.665-1.388a8.891,8.891,0,0,0-3.2.592c-.864.36-1.492.8-1.517,1.372a4.573,4.573,0,0,0,.058.458v.021l.005.02.445,1.649.2-.206a5.109,5.109,0,0,1,3.666-1.611c.892,0,1.3.242,1.527.584a2.7,2.7,0,0,1,.261,1.432v1.14a10.256,10.256,0,0,0-4.215,1.069,4.091,4.091,0,0,0-2.23,3.778,4.306,4.306,0,0,0,.754,2.533,3.452,3.452,0,0,0,2.956,1.321h.014a4.743,4.743,0,0,0,3.326-1.2c.346.9.771,1.185,1.073,1.2a1.319,1.319,0,0,0,.53-.189l1.719-1.038-.171-.143Z" transform="translate(75.829 53.164)"/><path d="M-64.311-35.448l.078-.214c.222-.613.361-.941.363-4.673v-3.837a5.383,5.383,0,0,0-.229-2.048c-.224-.477-.616-.765-1.559-.773a3.938,3.938,0,0,0-2.934,1.283v5.375c0,1.692,0,2.545.085,3.453a4.161,4.161,0,0,0,.279,1.225l.07.209h-3.622l.107-.227a2.794,2.794,0,0,0,.282-1.088c.067-.626.1-1.668.1-3.572v-4.122a3.971,3.971,0,0,0-.239-1.673,1.587,1.587,0,0,0-1.636-.833A4.184,4.184,0,0,0-76.012-45.7v5.366c0,1.692,0,2.545.085,3.453a4.189,4.189,0,0,0,.279,1.225l.07.209h-3.569l.077-.214c.221-.613.36-.941.362-4.673V-42.8c0-.171,0-2.637-.085-3.826a4.9,4.9,0,0,0-.335-1.479l-.053-.149,2.918-1.038.132,1.236A5.347,5.347,0,0,1-72.5-49.344a4.931,4.931,0,0,1,2.514.651,2.423,2.423,0,0,1,.78.74,6.234,6.234,0,0,1,4.009-1.39c1.2.005,2.914.4,3.607,1.632a5.4,5.4,0,0,1,.419,2.738v4.639c0,1.977.029,2.744.086,3.451a4.43,4.43,0,0,0,.28,1.226l.07.209h-3.571Z" transform="translate(79.181 53.164)"/></g></svg>